<?xml version="1.0" encoding="utf-8" standalone="no"?>
<!DOCTYPE svg PUBLIC "-//W3C//DTD SVG 1.1//EN"
  "http://www.w3.org/Graphics/SVG/1.1/DTD/svg11.dtd">
<!-- Created with matplotlib (https://matplotlib.org/) -->
<svg height="360pt" version="1.1" viewBox="0 0 432 360" width="432pt" xmlns="http://www.w3.org/2000/svg" xmlns:xlink="http://www.w3.org/1999/xlink">
 <metadata>
  <rdf:RDF xmlns:cc="http://creativecommons.org/ns#" xmlns:dc="http://purl.org/dc/elements/1.1/" xmlns:rdf="http://www.w3.org/1999/02/22-rdf-syntax-ns#">
   <cc:Work>
    <dc:type rdf:resource="http://purl.org/dc/dcmitype/StillImage"/>
    <dc:date>2021-08-12T10:05:46.057494</dc:date>
    <dc:format>image/svg+xml</dc:format>
    <dc:creator>
     <cc:Agent>
      <dc:title>Matplotlib v3.3.3, https://matplotlib.org/</dc:title>
     </cc:Agent>
    </dc:creator>
   </cc:Work>
  </rdf:RDF>
 </metadata>
 <defs>
  <style type="text/css">*{stroke-linecap:butt;stroke-linejoin:round;}</style>
 </defs>
 <g id="figure_1">
  <g id="patch_1">
   <path d="M 0 360 
L 432 360 
L 432 0 
L 0 0 
z
" style="fill:#ffffff;"/>
  </g>
  <g id="axes_1">
   <g id="patch_2">
    <path d="M 69.846 293.124 
L 399.953851 293.124 
L 399.953851 40.416 
L 69.846 40.416 
z
" style="fill:#ffffff;"/>
   </g>
   <g id="matplotlib.axis_1">
    <g id="xtick_1">
     <g id="line2d_1">
      <defs>
       <path d="M 0 0 
L 0 4.8 
" id="m14c5bf6574" style="stroke:#262626;"/>
      </defs>
      <g>
       <use style="fill:#262626;stroke:#262626;" x="69.846" xlink:href="#m14c5bf6574" y="293.124"/>
      </g>
     </g>
     <g id="text_1">
      <!-- 0 -->
      <g style="fill:#262626;" transform="translate(64.952375 314.02175)scale(0.176 -0.176)">
       <defs>
        <path d="M 4.15625 35.296875 
Q 4.15625 48 6.765625 55.734375 
Q 9.375 63.484375 14.515625 67.671875 
Q 19.671875 71.875 27.484375 71.875 
Q 33.25 71.875 37.59375 69.546875 
Q 41.9375 67.234375 44.765625 62.859375 
Q 47.609375 58.5 49.21875 52.21875 
Q 50.828125 45.953125 50.828125 35.296875 
Q 50.828125 22.703125 48.234375 14.96875 
Q 45.65625 7.234375 40.5 3 
Q 35.359375 -1.21875 27.484375 -1.21875 
Q 17.140625 -1.21875 11.234375 6.203125 
Q 4.15625 15.140625 4.15625 35.296875 
z
M 13.1875 35.296875 
Q 13.1875 17.671875 17.3125 11.828125 
Q 21.4375 6 27.484375 6 
Q 33.546875 6 37.671875 11.859375 
Q 41.796875 17.71875 41.796875 35.296875 
Q 41.796875 52.984375 37.671875 58.78125 
Q 33.546875 64.59375 27.390625 64.59375 
Q 21.34375 64.59375 17.71875 59.46875 
Q 13.1875 52.9375 13.1875 35.296875 
z
" id="ArialMT-48"/>
       </defs>
       <use xlink:href="#ArialMT-48"/>
      </g>
     </g>
    </g>
    <g id="xtick_2">
     <g id="line2d_2">
      <g>
       <use style="fill:#262626;stroke:#262626;" x="135.213891" xlink:href="#m14c5bf6574" y="293.124"/>
      </g>
     </g>
     <g id="text_2">
      <!-- 20 -->
      <g style="fill:#262626;" transform="translate(125.426641 314.02175)scale(0.176 -0.176)">
       <defs>
        <path d="M 50.34375 8.453125 
L 50.34375 0 
L 3.03125 0 
Q 2.9375 3.171875 4.046875 6.109375 
Q 5.859375 10.9375 9.828125 15.625 
Q 13.8125 20.3125 21.34375 26.46875 
Q 33.015625 36.03125 37.109375 41.625 
Q 41.21875 47.21875 41.21875 52.203125 
Q 41.21875 57.421875 37.46875 61 
Q 33.734375 64.59375 27.734375 64.59375 
Q 21.390625 64.59375 17.578125 60.78125 
Q 13.765625 56.984375 13.71875 50.25 
L 4.6875 51.171875 
Q 5.609375 61.28125 11.65625 66.578125 
Q 17.71875 71.875 27.9375 71.875 
Q 38.234375 71.875 44.234375 66.15625 
Q 50.25 60.453125 50.25 52 
Q 50.25 47.703125 48.484375 43.546875 
Q 46.734375 39.40625 42.65625 34.8125 
Q 38.578125 30.21875 29.109375 22.21875 
Q 21.1875 15.578125 18.9375 13.203125 
Q 16.703125 10.84375 15.234375 8.453125 
z
" id="ArialMT-50"/>
       </defs>
       <use xlink:href="#ArialMT-50"/>
       <use x="55.615234" xlink:href="#ArialMT-48"/>
      </g>
     </g>
    </g>
    <g id="xtick_3">
     <g id="line2d_3">
      <g>
       <use style="fill:#262626;stroke:#262626;" x="200.581783" xlink:href="#m14c5bf6574" y="293.124"/>
      </g>
     </g>
     <g id="text_3">
      <!-- 40 -->
      <g style="fill:#262626;" transform="translate(190.794533 314.02175)scale(0.176 -0.176)">
       <defs>
        <path d="M 32.328125 0 
L 32.328125 17.140625 
L 1.265625 17.140625 
L 1.265625 25.203125 
L 33.9375 71.578125 
L 41.109375 71.578125 
L 41.109375 25.203125 
L 50.78125 25.203125 
L 50.78125 17.140625 
L 41.109375 17.140625 
L 41.109375 0 
z
M 32.328125 25.203125 
L 32.328125 57.46875 
L 9.90625 25.203125 
z
" id="ArialMT-52"/>
       </defs>
       <use xlink:href="#ArialMT-52"/>
       <use x="55.615234" xlink:href="#ArialMT-48"/>
      </g>
     </g>
    </g>
    <g id="xtick_4">
     <g id="line2d_4">
      <g>
       <use style="fill:#262626;stroke:#262626;" x="265.949674" xlink:href="#m14c5bf6574" y="293.124"/>
      </g>
     </g>
     <g id="text_4">
      <!-- 60 -->
      <g style="fill:#262626;" transform="translate(256.162424 314.02175)scale(0.176 -0.176)">
       <defs>
        <path d="M 49.75 54.046875 
L 41.015625 53.375 
Q 39.84375 58.546875 37.703125 60.890625 
Q 34.125 64.65625 28.90625 64.65625 
Q 24.703125 64.65625 21.53125 62.3125 
Q 17.390625 59.28125 14.984375 53.46875 
Q 12.59375 47.65625 12.5 36.921875 
Q 15.671875 41.75 20.265625 44.09375 
Q 24.859375 46.4375 29.890625 46.4375 
Q 38.671875 46.4375 44.84375 39.96875 
Q 51.03125 33.5 51.03125 23.25 
Q 51.03125 16.5 48.125 10.71875 
Q 45.21875 4.9375 40.140625 1.859375 
Q 35.0625 -1.21875 28.609375 -1.21875 
Q 17.625 -1.21875 10.6875 6.859375 
Q 3.765625 14.9375 3.765625 33.5 
Q 3.765625 54.25 11.421875 63.671875 
Q 18.109375 71.875 29.4375 71.875 
Q 37.890625 71.875 43.28125 67.140625 
Q 48.6875 62.40625 49.75 54.046875 
z
M 13.875 23.1875 
Q 13.875 18.65625 15.796875 14.5 
Q 17.71875 10.359375 21.1875 8.171875 
Q 24.65625 6 28.46875 6 
Q 34.03125 6 38.03125 10.484375 
Q 42.046875 14.984375 42.046875 22.703125 
Q 42.046875 30.125 38.078125 34.390625 
Q 34.125 38.671875 28.125 38.671875 
Q 22.171875 38.671875 18.015625 34.390625 
Q 13.875 30.125 13.875 23.1875 
z
" id="ArialMT-54"/>
       </defs>
       <use xlink:href="#ArialMT-54"/>
       <use x="55.615234" xlink:href="#ArialMT-48"/>
      </g>
     </g>
    </g>
    <g id="xtick_5">
     <g id="line2d_5">
      <g>
       <use style="fill:#262626;stroke:#262626;" x="331.317566" xlink:href="#m14c5bf6574" y="293.124"/>
      </g>
     </g>
     <g id="text_5">
      <!-- 80 -->
      <g style="fill:#262626;" transform="translate(321.530316 314.02175)scale(0.176 -0.176)">
       <defs>
        <path d="M 17.671875 38.8125 
Q 12.203125 40.828125 9.5625 44.53125 
Q 6.9375 48.25 6.9375 53.421875 
Q 6.9375 61.234375 12.546875 66.546875 
Q 18.171875 71.875 27.484375 71.875 
Q 36.859375 71.875 42.578125 66.421875 
Q 48.296875 60.984375 48.296875 53.171875 
Q 48.296875 48.1875 45.671875 44.5 
Q 43.0625 40.828125 37.75 38.8125 
Q 44.34375 36.671875 47.78125 31.875 
Q 51.21875 27.09375 51.21875 20.453125 
Q 51.21875 11.28125 44.71875 5.03125 
Q 38.234375 -1.21875 27.640625 -1.21875 
Q 17.046875 -1.21875 10.546875 5.046875 
Q 4.046875 11.328125 4.046875 20.703125 
Q 4.046875 27.6875 7.59375 32.390625 
Q 11.140625 37.109375 17.671875 38.8125 
z
M 15.921875 53.71875 
Q 15.921875 48.640625 19.1875 45.40625 
Q 22.46875 42.1875 27.6875 42.1875 
Q 32.765625 42.1875 36.015625 45.375 
Q 39.265625 48.578125 39.265625 53.21875 
Q 39.265625 58.0625 35.90625 61.359375 
Q 32.5625 64.65625 27.59375 64.65625 
Q 22.5625 64.65625 19.234375 61.421875 
Q 15.921875 58.203125 15.921875 53.71875 
z
M 13.09375 20.65625 
Q 13.09375 16.890625 14.875 13.375 
Q 16.65625 9.859375 20.171875 7.921875 
Q 23.6875 6 27.734375 6 
Q 34.03125 6 38.125 10.046875 
Q 42.234375 14.109375 42.234375 20.359375 
Q 42.234375 26.703125 38.015625 30.859375 
Q 33.796875 35.015625 27.4375 35.015625 
Q 21.234375 35.015625 17.15625 30.90625 
Q 13.09375 26.8125 13.09375 20.65625 
z
" id="ArialMT-56"/>
       </defs>
       <use xlink:href="#ArialMT-56"/>
       <use x="55.615234" xlink:href="#ArialMT-48"/>
      </g>
     </g>
    </g>
    <g id="xtick_6">
     <g id="line2d_6">
      <g>
       <use style="fill:#262626;stroke:#262626;" x="396.685457" xlink:href="#m14c5bf6574" y="293.124"/>
      </g>
     </g>
     <g id="text_6">
      <!-- 100 -->
      <g style="fill:#262626;" transform="translate(382.004582 314.02175)scale(0.176 -0.176)">
       <defs>
        <path d="M 37.25 0 
L 28.46875 0 
L 28.46875 56 
Q 25.296875 52.984375 20.140625 49.953125 
Q 14.984375 46.921875 10.890625 45.40625 
L 10.890625 53.90625 
Q 18.265625 57.375 23.78125 62.296875 
Q 29.296875 67.234375 31.59375 71.875 
L 37.25 71.875 
z
" id="ArialMT-49"/>
       </defs>
       <use xlink:href="#ArialMT-49"/>
       <use x="55.615234" xlink:href="#ArialMT-48"/>
       <use x="111.230469" xlink:href="#ArialMT-48"/>
      </g>
     </g>
    </g>
    <g id="text_7">
     <!-- Trial -->
     <g style="fill:#262626;" transform="translate(216.595426 335.26275)scale(0.192 -0.192)">
      <defs>
       <path d="M 25.921875 0 
L 25.921875 63.140625 
L 2.34375 63.140625 
L 2.34375 71.578125 
L 59.078125 71.578125 
L 59.078125 63.140625 
L 35.40625 63.140625 
L 35.40625 0 
z
" id="ArialMT-84"/>
       <path d="M 6.5 0 
L 6.5 51.859375 
L 14.40625 51.859375 
L 14.40625 44 
Q 17.4375 49.515625 20 51.265625 
Q 22.5625 53.03125 25.640625 53.03125 
Q 30.078125 53.03125 34.671875 50.203125 
L 31.640625 42.046875 
Q 28.421875 43.953125 25.203125 43.953125 
Q 22.3125 43.953125 20.015625 42.21875 
Q 17.71875 40.484375 16.75 37.40625 
Q 15.28125 32.71875 15.28125 27.15625 
L 15.28125 0 
z
" id="ArialMT-114"/>
       <path d="M 6.640625 61.46875 
L 6.640625 71.578125 
L 15.4375 71.578125 
L 15.4375 61.46875 
z
M 6.640625 0 
L 6.640625 51.859375 
L 15.4375 51.859375 
L 15.4375 0 
z
" id="ArialMT-105"/>
       <path d="M 40.4375 6.390625 
Q 35.546875 2.25 31.03125 0.53125 
Q 26.515625 -1.171875 21.34375 -1.171875 
Q 12.796875 -1.171875 8.203125 3 
Q 3.609375 7.171875 3.609375 13.671875 
Q 3.609375 17.484375 5.34375 20.625 
Q 7.078125 23.78125 9.890625 25.6875 
Q 12.703125 27.59375 16.21875 28.5625 
Q 18.796875 29.25 24.03125 29.890625 
Q 34.671875 31.15625 39.703125 32.90625 
Q 39.75 34.71875 39.75 35.203125 
Q 39.75 40.578125 37.25 42.78125 
Q 33.890625 45.75 27.25 45.75 
Q 21.046875 45.75 18.09375 43.578125 
Q 15.140625 41.40625 13.71875 35.890625 
L 5.125 37.0625 
Q 6.296875 42.578125 8.984375 45.96875 
Q 11.671875 49.359375 16.75 51.1875 
Q 21.828125 53.03125 28.515625 53.03125 
Q 35.15625 53.03125 39.296875 51.46875 
Q 43.453125 49.90625 45.40625 47.53125 
Q 47.359375 45.171875 48.140625 41.546875 
Q 48.578125 39.3125 48.578125 33.453125 
L 48.578125 21.734375 
Q 48.578125 9.46875 49.140625 6.21875 
Q 49.703125 2.984375 51.375 0 
L 42.1875 0 
Q 40.828125 2.734375 40.4375 6.390625 
z
M 39.703125 26.03125 
Q 34.90625 24.078125 25.34375 22.703125 
Q 19.921875 21.921875 17.671875 20.9375 
Q 15.4375 19.96875 14.203125 18.09375 
Q 12.984375 16.21875 12.984375 13.921875 
Q 12.984375 10.40625 15.640625 8.0625 
Q 18.3125 5.71875 23.4375 5.71875 
Q 28.515625 5.71875 32.46875 7.9375 
Q 36.421875 10.15625 38.28125 14.015625 
Q 39.703125 17 39.703125 22.796875 
z
" id="ArialMT-97"/>
       <path d="M 6.390625 0 
L 6.390625 71.578125 
L 15.1875 71.578125 
L 15.1875 0 
z
" id="ArialMT-108"/>
      </defs>
      <use xlink:href="#ArialMT-84"/>
      <use x="57.333984" xlink:href="#ArialMT-114"/>
      <use x="90.634766" xlink:href="#ArialMT-105"/>
      <use x="112.851562" xlink:href="#ArialMT-97"/>
      <use x="168.466797" xlink:href="#ArialMT-108"/>
     </g>
    </g>
   </g>
   <g id="matplotlib.axis_2">
    <g id="ytick_1">
     <g id="line2d_7">
      <defs>
       <path d="M 0 0 
L -4.8 0 
" id="m5013a20ed9" style="stroke:#262626;"/>
      </defs>
      <g>
       <use style="fill:#262626;stroke:#262626;" x="69.846" xlink:href="#m5013a20ed9" y="293.124"/>
      </g>
     </g>
     <g id="text_8">
      <!-- 0 -->
      <g style="fill:#262626;" transform="translate(51.75875 299.422875)scale(0.176 -0.176)">
       <use xlink:href="#ArialMT-48"/>
      </g>
     </g>
    </g>
    <g id="ytick_2">
     <g id="line2d_8">
      <g>
       <use style="fill:#262626;stroke:#262626;" x="69.846" xlink:href="#m5013a20ed9" y="247.177091"/>
      </g>
     </g>
     <g id="text_9">
      <!-- 10 -->
      <g style="fill:#262626;" transform="translate(41.9715 253.475966)scale(0.176 -0.176)">
       <use xlink:href="#ArialMT-49"/>
       <use x="55.615234" xlink:href="#ArialMT-48"/>
      </g>
     </g>
    </g>
    <g id="ytick_3">
     <g id="line2d_9">
      <g>
       <use style="fill:#262626;stroke:#262626;" x="69.846" xlink:href="#m5013a20ed9" y="201.230182"/>
      </g>
     </g>
     <g id="text_10">
      <!-- 20 -->
      <g style="fill:#262626;" transform="translate(41.9715 207.529057)scale(0.176 -0.176)">
       <use xlink:href="#ArialMT-50"/>
       <use x="55.615234" xlink:href="#ArialMT-48"/>
      </g>
     </g>
    </g>
    <g id="ytick_4">
     <g id="line2d_10">
      <g>
       <use style="fill:#262626;stroke:#262626;" x="69.846" xlink:href="#m5013a20ed9" y="155.283273"/>
      </g>
     </g>
     <g id="text_11">
      <!-- 30 -->
      <g style="fill:#262626;" transform="translate(41.9715 161.582148)scale(0.176 -0.176)">
       <defs>
        <path d="M 4.203125 18.890625 
L 12.984375 20.0625 
Q 14.5 12.59375 18.140625 9.296875 
Q 21.78125 6 27 6 
Q 33.203125 6 37.46875 10.296875 
Q 41.75 14.59375 41.75 20.953125 
Q 41.75 27 37.796875 30.921875 
Q 33.84375 34.859375 27.734375 34.859375 
Q 25.25 34.859375 21.53125 33.890625 
L 22.515625 41.609375 
Q 23.390625 41.5 23.921875 41.5 
Q 29.546875 41.5 34.03125 44.421875 
Q 38.53125 47.359375 38.53125 53.46875 
Q 38.53125 58.296875 35.25 61.46875 
Q 31.984375 64.65625 26.8125 64.65625 
Q 21.6875 64.65625 18.265625 61.421875 
Q 14.84375 58.203125 13.875 51.765625 
L 5.078125 53.328125 
Q 6.6875 62.15625 12.390625 67.015625 
Q 18.109375 71.875 26.609375 71.875 
Q 32.46875 71.875 37.390625 69.359375 
Q 42.328125 66.84375 44.9375 62.5 
Q 47.5625 58.15625 47.5625 53.265625 
Q 47.5625 48.640625 45.0625 44.828125 
Q 42.578125 41.015625 37.703125 38.765625 
Q 44.046875 37.3125 47.5625 32.6875 
Q 51.078125 28.078125 51.078125 21.140625 
Q 51.078125 11.765625 44.234375 5.25 
Q 37.40625 -1.265625 26.953125 -1.265625 
Q 17.53125 -1.265625 11.296875 4.34375 
Q 5.078125 9.96875 4.203125 18.890625 
z
" id="ArialMT-51"/>
       </defs>
       <use xlink:href="#ArialMT-51"/>
       <use x="55.615234" xlink:href="#ArialMT-48"/>
      </g>
     </g>
    </g>
    <g id="ytick_5">
     <g id="line2d_11">
      <g>
       <use style="fill:#262626;stroke:#262626;" x="69.846" xlink:href="#m5013a20ed9" y="109.336364"/>
      </g>
     </g>
     <g id="text_12">
      <!-- 40 -->
      <g style="fill:#262626;" transform="translate(41.9715 115.635239)scale(0.176 -0.176)">
       <use xlink:href="#ArialMT-52"/>
       <use x="55.615234" xlink:href="#ArialMT-48"/>
      </g>
     </g>
    </g>
    <g id="ytick_6">
     <g id="line2d_12">
      <g>
       <use style="fill:#262626;stroke:#262626;" x="69.846" xlink:href="#m5013a20ed9" y="63.389455"/>
      </g>
     </g>
     <g id="text_13">
      <!-- 50 -->
      <g style="fill:#262626;" transform="translate(41.9715 69.68833)scale(0.176 -0.176)">
       <defs>
        <path d="M 4.15625 18.75 
L 13.375 19.53125 
Q 14.40625 12.796875 18.140625 9.390625 
Q 21.875 6 27.15625 6 
Q 33.5 6 37.890625 10.78125 
Q 42.28125 15.578125 42.28125 23.484375 
Q 42.28125 31 38.0625 35.34375 
Q 33.84375 39.703125 27 39.703125 
Q 22.75 39.703125 19.328125 37.765625 
Q 15.921875 35.84375 13.96875 32.765625 
L 5.71875 33.84375 
L 12.640625 70.609375 
L 48.25 70.609375 
L 48.25 62.203125 
L 19.671875 62.203125 
L 15.828125 42.96875 
Q 22.265625 47.46875 29.34375 47.46875 
Q 38.71875 47.46875 45.15625 40.96875 
Q 51.609375 34.46875 51.609375 24.265625 
Q 51.609375 14.546875 45.953125 7.46875 
Q 39.0625 -1.21875 27.15625 -1.21875 
Q 17.390625 -1.21875 11.203125 4.25 
Q 5.03125 9.71875 4.15625 18.75 
z
" id="ArialMT-53"/>
       </defs>
       <use xlink:href="#ArialMT-53"/>
       <use x="55.615234" xlink:href="#ArialMT-48"/>
      </g>
     </g>
    </g>
    <g id="text_14">
     <!-- Inventory size -->
     <g style="fill:#262626;" transform="translate(33.9305 225.993)rotate(-90)scale(0.192 -0.192)">
      <defs>
       <path d="M 9.328125 0 
L 9.328125 71.578125 
L 18.796875 71.578125 
L 18.796875 0 
z
" id="ArialMT-73"/>
       <path d="M 6.59375 0 
L 6.59375 51.859375 
L 14.5 51.859375 
L 14.5 44.484375 
Q 20.21875 53.03125 31 53.03125 
Q 35.6875 53.03125 39.625 51.34375 
Q 43.5625 49.65625 45.515625 46.921875 
Q 47.46875 44.1875 48.25 40.4375 
Q 48.734375 37.984375 48.734375 31.890625 
L 48.734375 0 
L 39.9375 0 
L 39.9375 31.546875 
Q 39.9375 36.921875 38.90625 39.578125 
Q 37.890625 42.234375 35.28125 43.8125 
Q 32.671875 45.40625 29.15625 45.40625 
Q 23.53125 45.40625 19.453125 41.84375 
Q 15.375 38.28125 15.375 28.328125 
L 15.375 0 
z
" id="ArialMT-110"/>
       <path d="M 21 0 
L 1.265625 51.859375 
L 10.546875 51.859375 
L 21.6875 20.796875 
Q 23.484375 15.765625 25 10.359375 
Q 26.171875 14.453125 28.265625 20.21875 
L 39.796875 51.859375 
L 48.828125 51.859375 
L 29.203125 0 
z
" id="ArialMT-118"/>
       <path d="M 42.09375 16.703125 
L 51.171875 15.578125 
Q 49.03125 7.625 43.21875 3.21875 
Q 37.40625 -1.171875 28.375 -1.171875 
Q 17 -1.171875 10.328125 5.828125 
Q 3.65625 12.84375 3.65625 25.484375 
Q 3.65625 38.578125 10.390625 45.796875 
Q 17.140625 53.03125 27.875 53.03125 
Q 38.28125 53.03125 44.875 45.953125 
Q 51.46875 38.875 51.46875 26.03125 
Q 51.46875 25.25 51.421875 23.6875 
L 12.75 23.6875 
Q 13.234375 15.140625 17.578125 10.59375 
Q 21.921875 6.0625 28.421875 6.0625 
Q 33.25 6.0625 36.671875 8.59375 
Q 40.09375 11.140625 42.09375 16.703125 
z
M 13.234375 30.90625 
L 42.1875 30.90625 
Q 41.609375 37.453125 38.875 40.71875 
Q 34.671875 45.796875 27.984375 45.796875 
Q 21.921875 45.796875 17.796875 41.75 
Q 13.671875 37.703125 13.234375 30.90625 
z
" id="ArialMT-101"/>
       <path d="M 25.78125 7.859375 
L 27.046875 0.09375 
Q 23.34375 -0.6875 20.40625 -0.6875 
Q 15.625 -0.6875 12.984375 0.828125 
Q 10.359375 2.34375 9.28125 4.8125 
Q 8.203125 7.28125 8.203125 15.1875 
L 8.203125 45.015625 
L 1.765625 45.015625 
L 1.765625 51.859375 
L 8.203125 51.859375 
L 8.203125 64.703125 
L 16.9375 69.96875 
L 16.9375 51.859375 
L 25.78125 51.859375 
L 25.78125 45.015625 
L 16.9375 45.015625 
L 16.9375 14.703125 
Q 16.9375 10.9375 17.40625 9.859375 
Q 17.875 8.796875 18.921875 8.15625 
Q 19.96875 7.515625 21.921875 7.515625 
Q 23.390625 7.515625 25.78125 7.859375 
z
" id="ArialMT-116"/>
       <path d="M 3.328125 25.921875 
Q 3.328125 40.328125 11.328125 47.265625 
Q 18.015625 53.03125 27.640625 53.03125 
Q 38.328125 53.03125 45.109375 46.015625 
Q 51.90625 39.015625 51.90625 26.65625 
Q 51.90625 16.65625 48.90625 10.90625 
Q 45.90625 5.171875 40.15625 2 
Q 34.421875 -1.171875 27.640625 -1.171875 
Q 16.75 -1.171875 10.03125 5.8125 
Q 3.328125 12.796875 3.328125 25.921875 
z
M 12.359375 25.921875 
Q 12.359375 15.96875 16.703125 11.015625 
Q 21.046875 6.0625 27.640625 6.0625 
Q 34.1875 6.0625 38.53125 11.03125 
Q 42.875 16.015625 42.875 26.21875 
Q 42.875 35.84375 38.5 40.796875 
Q 34.125 45.75 27.640625 45.75 
Q 21.046875 45.75 16.703125 40.8125 
Q 12.359375 35.890625 12.359375 25.921875 
z
" id="ArialMT-111"/>
       <path d="M 6.203125 -19.96875 
L 5.21875 -11.71875 
Q 8.109375 -12.5 10.25 -12.5 
Q 13.1875 -12.5 14.9375 -11.515625 
Q 16.703125 -10.546875 17.828125 -8.796875 
Q 18.65625 -7.46875 20.515625 -2.25 
Q 20.75 -1.515625 21.296875 -0.09375 
L 1.609375 51.859375 
L 11.078125 51.859375 
L 21.875 21.828125 
Q 23.96875 16.109375 25.640625 9.8125 
Q 27.15625 15.875 29.25 21.625 
L 40.328125 51.859375 
L 49.125 51.859375 
L 29.390625 -0.875 
Q 26.21875 -9.421875 24.46875 -12.640625 
Q 22.125 -17 19.09375 -19.015625 
Q 16.0625 -21.046875 11.859375 -21.046875 
Q 9.328125 -21.046875 6.203125 -19.96875 
z
" id="ArialMT-121"/>
       <path id="ArialMT-32"/>
       <path d="M 3.078125 15.484375 
L 11.765625 16.84375 
Q 12.5 11.625 15.84375 8.84375 
Q 19.1875 6.0625 25.203125 6.0625 
Q 31.25 6.0625 34.171875 8.515625 
Q 37.109375 10.984375 37.109375 14.3125 
Q 37.109375 17.28125 34.515625 19 
Q 32.71875 20.171875 25.53125 21.96875 
Q 15.875 24.421875 12.140625 26.203125 
Q 8.40625 27.984375 6.46875 31.125 
Q 4.546875 34.28125 4.546875 38.09375 
Q 4.546875 41.546875 6.125 44.5 
Q 7.71875 47.46875 10.453125 49.421875 
Q 12.5 50.921875 16.03125 51.96875 
Q 19.578125 53.03125 23.640625 53.03125 
Q 29.734375 53.03125 34.34375 51.265625 
Q 38.96875 49.515625 41.15625 46.5 
Q 43.359375 43.5 44.1875 38.484375 
L 35.59375 37.3125 
Q 35.015625 41.3125 32.203125 43.546875 
Q 29.390625 45.796875 24.265625 45.796875 
Q 18.21875 45.796875 15.625 43.796875 
Q 13.03125 41.796875 13.03125 39.109375 
Q 13.03125 37.40625 14.109375 36.03125 
Q 15.1875 34.625 17.484375 33.6875 
Q 18.796875 33.203125 25.25 31.453125 
Q 34.578125 28.953125 38.25 27.359375 
Q 41.9375 25.78125 44.03125 22.75 
Q 46.140625 19.734375 46.140625 15.234375 
Q 46.140625 10.84375 43.578125 6.953125 
Q 41.015625 3.078125 36.171875 0.953125 
Q 31.34375 -1.171875 25.25 -1.171875 
Q 15.140625 -1.171875 9.84375 3.03125 
Q 4.546875 7.234375 3.078125 15.484375 
z
" id="ArialMT-115"/>
       <path d="M 1.953125 0 
L 1.953125 7.125 
L 34.96875 45.015625 
Q 29.34375 44.734375 25.046875 44.734375 
L 3.90625 44.734375 
L 3.90625 51.859375 
L 46.296875 51.859375 
L 46.296875 46.046875 
L 18.21875 13.140625 
L 12.796875 7.125 
Q 18.703125 7.5625 23.875 7.5625 
L 47.859375 7.5625 
L 47.859375 0 
z
" id="ArialMT-122"/>
      </defs>
      <use xlink:href="#ArialMT-73"/>
      <use x="27.783203" xlink:href="#ArialMT-110"/>
      <use x="83.398438" xlink:href="#ArialMT-118"/>
      <use x="133.398438" xlink:href="#ArialMT-101"/>
      <use x="189.013672" xlink:href="#ArialMT-110"/>
      <use x="244.628906" xlink:href="#ArialMT-116"/>
      <use x="272.412109" xlink:href="#ArialMT-111"/>
      <use x="328.027344" xlink:href="#ArialMT-114"/>
      <use x="361.328125" xlink:href="#ArialMT-121"/>
      <use x="411.328125" xlink:href="#ArialMT-32"/>
      <use x="439.111328" xlink:href="#ArialMT-115"/>
      <use x="489.111328" xlink:href="#ArialMT-105"/>
      <use x="511.328125" xlink:href="#ArialMT-122"/>
      <use x="561.328125" xlink:href="#ArialMT-101"/>
     </g>
    </g>
   </g>
   <g id="PolyCollection_1">
    <defs>
     <path d="M 69.846 -89.849455 
L 69.846 -89.849455 
L 73.114395 -93.210078 
L 76.382789 -96.097137 
L 79.651184 -98.836156 
L 82.919578 -101.417737 
L 86.187973 -103.853868 
L 89.456367 -106.163348 
L 92.724762 -108.347184 
L 95.993157 -110.442792 
L 99.261551 -112.512775 
L 102.529946 -114.523615 
L 105.79834 -116.499739 
L 109.066735 -118.433847 
L 112.335129 -120.376732 
L 115.603524 -122.23699 
L 118.871919 -124.130404 
L 122.140313 -125.983537 
L 125.408708 -127.785442 
L 128.677102 -129.528032 
L 131.945497 -131.280869 
L 135.213891 -132.976946 
L 138.482286 -134.673933 
L 141.750681 -136.317496 
L 145.019075 -137.953403 
L 148.28747 -139.5882 
L 151.555864 -141.184309 
L 154.824259 -142.740959 
L 158.092653 -144.250328 
L 161.361048 -145.788197 
L 164.629443 -147.317301 
L 167.897837 -148.793855 
L 171.166232 -150.244759 
L 174.434626 -151.671202 
L 177.703021 -153.122127 
L 180.971415 -154.568947 
L 184.23981 -155.963642 
L 187.508204 -157.343391 
L 190.776599 -158.709297 
L 194.044994 -160.080341 
L 197.313388 -161.425618 
L 200.581783 -162.777403 
L 203.850177 -164.128248 
L 207.118572 -165.410334 
L 210.386966 -166.713363 
L 213.655361 -168.056158 
L 216.923756 -169.346077 
L 220.19215 -170.633905 
L 223.460545 -171.893958 
L 226.728939 -173.149702 
L 229.997334 -174.377742 
L 233.265728 -175.623419 
L 236.534123 -176.841622 
L 239.802518 -178.085232 
L 243.070912 -179.345336 
L 246.339307 -180.574458 
L 249.607701 -181.768633 
L 252.876096 -182.977443 
L 256.14449 -184.168961 
L 259.412885 -185.38786 
L 262.68128 -186.574241 
L 265.949674 -187.76024 
L 269.218069 -188.97536 
L 272.486463 -190.175908 
L 275.754858 -191.348767 
L 279.023252 -192.553928 
L 282.291647 -193.729045 
L 285.560042 -194.882019 
L 288.828436 -196.046644 
L 292.096831 -197.202418 
L 295.365225 -198.350419 
L 298.63362 -199.488424 
L 301.902014 -200.630198 
L 305.170409 -201.765687 
L 308.438804 -202.880131 
L 311.707198 -203.994698 
L 314.975593 -205.081259 
L 318.243987 -206.173725 
L 321.512382 -207.306714 
L 324.780776 -208.413127 
L 328.049171 -209.53215 
L 331.317566 -210.630411 
L 334.58596 -211.760029 
L 337.854355 -212.884607 
L 341.122749 -214.01464 
L 344.391144 -215.118164 
L 347.659538 -216.213051 
L 350.927933 -217.323232 
L 354.196328 -218.426017 
L 357.464722 -219.544681 
L 360.733117 -220.641155 
L 364.001511 -221.755741 
L 367.269906 -222.864583 
L 370.5383 -223.972333 
L 373.806695 -225.055785 
L 377.07509 -226.119459 
L 380.343484 -227.178865 
L 383.611879 -228.231369 
L 386.880273 -229.314296 
L 390.148668 -230.374778 
L 393.417062 -231.464899 
L 393.417062 -232.718285 
L 393.417062 -232.718285 
L 390.148668 -231.615864 
L 386.880273 -230.543043 
L 383.611879 -229.447099 
L 380.343484 -228.382248 
L 377.07509 -227.31063 
L 373.806695 -226.234165 
L 370.5383 -225.137987 
L 367.269906 -224.017501 
L 364.001511 -222.896589 
L 360.733117 -221.76927 
L 357.464722 -220.660292 
L 354.196328 -219.529456 
L 350.927933 -218.414638 
L 347.659538 -217.292027 
L 344.391144 -216.185259 
L 341.122749 -215.070421 
L 337.854355 -213.928171 
L 334.58596 -212.791857 
L 331.317566 -211.65071 
L 328.049171 -210.540482 
L 324.780776 -209.410005 
L 321.512382 -208.291981 
L 318.243987 -207.14661 
L 314.975593 -206.042738 
L 311.707198 -204.944353 
L 308.438804 -203.817774 
L 305.170409 -202.691832 
L 301.902014 -201.545164 
L 298.63362 -200.39263 
L 295.365225 -199.243162 
L 292.096831 -198.083945 
L 288.828436 -196.916552 
L 285.560042 -195.740543 
L 282.291647 -194.576426 
L 279.023252 -193.390403 
L 275.754858 -192.173668 
L 272.486463 -190.989945 
L 269.218069 -189.77771 
L 265.949674 -188.55043 
L 262.68128 -187.352505 
L 259.412885 -186.154963 
L 256.14449 -184.924627 
L 252.876096 -183.721588 
L 249.607701 -182.501668 
L 246.339307 -181.29673 
L 243.070912 -180.056871 
L 239.802518 -178.784958 
L 236.534123 -177.530727 
L 233.265728 -176.301973 
L 229.997334 -175.045252 
L 226.728939 -173.806588 
L 223.460545 -172.540189 
L 220.19215 -171.269745 
L 216.923756 -169.970875 
L 213.655361 -168.6703 
L 210.386966 -167.316278 
L 207.118572 -166.002231 
L 203.850177 -164.709012 
L 200.581783 -163.346331 
L 197.313388 -161.983071 
L 194.044994 -160.626974 
L 190.776599 -159.245001 
L 187.508204 -157.867762 
L 184.23981 -156.477027 
L 180.971415 -155.070859 
L 177.703021 -153.612771 
L 174.434626 -152.149675 
L 171.166232 -150.711461 
L 167.897837 -149.249103 
L 164.629443 -147.760752 
L 161.361048 -146.220147 
L 158.092653 -144.66932 
L 154.824259 -143.147712 
L 151.555864 -141.578453 
L 148.28747 -139.97043 
L 145.019075 -138.322871 
L 141.750681 -136.674143 
L 138.482286 -135.017884 
L 135.213891 -133.307204 
L 131.945497 -131.597895 
L 128.677102 -129.831425 
L 125.408708 -128.075216 
L 122.140313 -126.259086 
L 118.871919 -124.391659 
L 115.603524 -122.48401 
L 112.335129 -120.609278 
L 109.066735 -118.650853 
L 105.79834 -116.701118 
L 102.529946 -114.70986 
L 99.261551 -112.683447 
L 95.993157 -110.597703 
L 92.724762 -108.48746 
L 89.456367 -106.288493 
L 86.187973 -103.96379 
L 82.919578 -101.511322 
L 79.651184 -98.914193 
L 76.382789 -96.159328 
L 73.114395 -93.25252 
L 69.846 -89.849455 
z
" id="m4031d3f8cf" style="stroke:#cfeafe;stroke-opacity:0.1;stroke-width:0.8;"/>
    </defs>
    <g clip-path="url(#pa55bb724e0)">
     <use style="fill:#cfeafe;fill-opacity:0.1;stroke:#cfeafe;stroke-opacity:0.1;stroke-width:0.8;" x="0" xlink:href="#m4031d3f8cf" y="360"/>
    </g>
   </g>
   <g id="line2d_13">
    <path clip-path="url(#pa55bb724e0)" d="M 69.846 270.150545 
L 73.114395 266.768701 
L 76.382789 263.871767 
L 79.651184 261.124826 
L 82.919578 258.535471 
L 86.187973 256.091171 
L 89.456367 253.77408 
L 92.724762 251.582678 
L 95.993157 249.479753 
L 99.261551 247.401889 
L 102.529946 245.383263 
L 105.79834 243.399571 
L 109.066735 241.45765 
L 112.335129 239.506995 
L 115.603524 237.6395 
L 118.871919 235.738969 
L 122.140313 233.878688 
L 125.408708 232.069671 
L 128.677102 230.320271 
L 131.945497 228.560618 
L 135.213891 226.857925 
L 138.482286 225.154092 
L 141.750681 223.50418 
L 145.019075 221.861863 
L 148.28747 220.220685 
L 151.555864 218.618619 
L 154.824259 217.055664 
L 158.092653 215.540176 
L 161.361048 213.995828 
L 164.629443 212.460973 
L 167.897837 210.978521 
L 171.166232 209.52189 
L 174.434626 208.089562 
L 177.703021 206.632551 
L 180.971415 205.180097 
L 184.23981 203.779666 
L 187.508204 202.394423 
L 190.776599 201.022851 
L 194.044994 199.646342 
L 197.313388 198.295655 
L 200.581783 196.938133 
L 203.850177 195.58137 
L 207.118572 194.293717 
L 210.386966 192.98518 
L 213.655361 191.636771 
L 216.923756 190.341524 
L 220.19215 189.048175 
L 223.460545 187.782927 
L 226.728939 186.521855 
L 229.997334 185.288503 
L 233.265728 184.037304 
L 236.534123 182.813825 
L 239.802518 181.564905 
L 243.070912 180.298897 
L 246.339307 179.064406 
L 249.607701 177.86485 
L 252.876096 176.650484 
L 256.14449 175.453206 
L 259.412885 174.228588 
L 262.68128 173.036627 
L 265.949674 171.844665 
L 269.218069 170.623465 
L 272.486463 169.417074 
L 275.754858 168.238782 
L 279.023252 167.027834 
L 282.291647 165.847265 
L 285.560042 164.688719 
L 288.828436 163.518402 
L 292.096831 162.356818 
L 295.365225 161.203209 
L 298.63362 160.059473 
L 301.902014 158.912319 
L 305.170409 157.771241 
L 308.438804 156.651048 
L 311.707198 155.530475 
L 314.975593 154.438001 
L 318.243987 153.339832 
L 321.512382 152.200653 
L 324.780776 151.088434 
L 328.049171 149.963684 
L 331.317566 148.859439 
L 334.58596 147.724057 
L 337.854355 146.593611 
L 341.122749 145.457469 
L 344.391144 144.348288 
L 347.659538 143.247461 
L 350.927933 142.131065 
L 354.196328 141.022263 
L 357.464722 139.897514 
L 360.733117 138.794788 
L 364.001511 137.673835 
L 367.269906 136.558958 
L 370.5383 135.44484 
L 373.806695 134.355025 
L 377.07509 133.284956 
L 380.343484 132.219443 
L 383.611879 131.160766 
L 386.880273 130.07133 
L 390.148668 129.004679 
L 393.417062 127.908408 
" style="fill:none;stroke:#82cafc;stroke-linecap:round;stroke-width:2;"/>
   </g>
   <g id="patch_3">
    <path d="M 69.846 293.124 
L 69.846 40.416 
" style="fill:none;stroke:#9d9d9d;stroke-linecap:square;stroke-linejoin:miter;stroke-width:0.6;"/>
   </g>
   <g id="patch_4">
    <path d="M 399.953851 293.124 
L 399.953851 40.416 
" style="fill:none;stroke:#9d9d9d;stroke-linecap:square;stroke-linejoin:miter;stroke-width:0.6;"/>
   </g>
   <g id="patch_5">
    <path d="M 69.846 293.124 
L 399.953851 293.124 
" style="fill:none;stroke:#9d9d9d;stroke-linecap:square;stroke-linejoin:miter;stroke-width:0.6;"/>
   </g>
   <g id="patch_6">
    <path d="M 69.846 40.416 
L 399.953851 40.416 
" style="fill:none;stroke:#9d9d9d;stroke-linecap:square;stroke-linejoin:miter;stroke-width:0.6;"/>
   </g>
   <g id="text_15">
    <!-- Game progress averaged over 12100 players -->
    <g style="fill:#262626;" transform="translate(41.738926 34.416)scale(0.192 -0.192)">
     <defs>
      <path d="M 41.21875 28.078125 
L 41.21875 36.46875 
L 71.53125 36.53125 
L 71.53125 9.96875 
Q 64.546875 4.390625 57.125 1.578125 
Q 49.703125 -1.21875 41.890625 -1.21875 
Q 31.34375 -1.21875 22.71875 3.296875 
Q 14.109375 7.8125 9.71875 16.359375 
Q 5.328125 24.90625 5.328125 35.453125 
Q 5.328125 45.90625 9.6875 54.953125 
Q 14.0625 64.015625 22.265625 68.40625 
Q 30.46875 72.796875 41.15625 72.796875 
Q 48.921875 72.796875 55.1875 70.28125 
Q 61.46875 67.78125 65.03125 63.28125 
Q 68.609375 58.796875 70.453125 51.5625 
L 61.921875 49.21875 
Q 60.296875 54.6875 57.90625 57.8125 
Q 55.515625 60.9375 51.0625 62.8125 
Q 46.625 64.703125 41.21875 64.703125 
Q 34.71875 64.703125 29.984375 62.71875 
Q 25.25 60.75 22.34375 57.515625 
Q 19.4375 54.296875 17.828125 50.4375 
Q 15.09375 43.796875 15.09375 36.03125 
Q 15.09375 26.46875 18.390625 20.015625 
Q 21.6875 13.578125 27.984375 10.453125 
Q 34.28125 7.328125 41.359375 7.328125 
Q 47.515625 7.328125 53.375 9.6875 
Q 59.234375 12.0625 62.25 14.75 
L 62.25 28.078125 
z
" id="ArialMT-71"/>
      <path d="M 6.59375 0 
L 6.59375 51.859375 
L 14.453125 51.859375 
L 14.453125 44.578125 
Q 16.890625 48.390625 20.9375 50.703125 
Q 25 53.03125 30.171875 53.03125 
Q 35.9375 53.03125 39.625 50.640625 
Q 43.3125 48.25 44.828125 43.953125 
Q 50.984375 53.03125 60.84375 53.03125 
Q 68.5625 53.03125 72.703125 48.75 
Q 76.859375 44.484375 76.859375 35.59375 
L 76.859375 0 
L 68.109375 0 
L 68.109375 32.671875 
Q 68.109375 37.9375 67.25 40.25 
Q 66.40625 42.578125 64.15625 43.984375 
Q 61.921875 45.40625 58.890625 45.40625 
Q 53.421875 45.40625 49.796875 41.765625 
Q 46.1875 38.140625 46.1875 30.125 
L 46.1875 0 
L 37.40625 0 
L 37.40625 33.6875 
Q 37.40625 39.546875 35.25 42.46875 
Q 33.109375 45.40625 28.21875 45.40625 
Q 24.515625 45.40625 21.359375 43.453125 
Q 18.21875 41.5 16.796875 37.734375 
Q 15.375 33.984375 15.375 26.90625 
L 15.375 0 
z
" id="ArialMT-109"/>
      <path d="M 6.59375 -19.875 
L 6.59375 51.859375 
L 14.59375 51.859375 
L 14.59375 45.125 
Q 17.4375 49.078125 21 51.046875 
Q 24.5625 53.03125 29.640625 53.03125 
Q 36.28125 53.03125 41.359375 49.609375 
Q 46.4375 46.1875 49.015625 39.953125 
Q 51.609375 33.734375 51.609375 26.3125 
Q 51.609375 18.359375 48.75 11.984375 
Q 45.90625 5.609375 40.453125 2.21875 
Q 35.015625 -1.171875 29 -1.171875 
Q 24.609375 -1.171875 21.109375 0.6875 
Q 17.625 2.546875 15.375 5.375 
L 15.375 -19.875 
z
M 14.546875 25.640625 
Q 14.546875 15.625 18.59375 10.84375 
Q 22.65625 6.0625 28.421875 6.0625 
Q 34.28125 6.0625 38.453125 11.015625 
Q 42.625 15.96875 42.625 26.375 
Q 42.625 36.28125 38.546875 41.203125 
Q 34.46875 46.140625 28.8125 46.140625 
Q 23.1875 46.140625 18.859375 40.890625 
Q 14.546875 35.640625 14.546875 25.640625 
z
" id="ArialMT-112"/>
      <path d="M 4.984375 -4.296875 
L 13.53125 -5.5625 
Q 14.0625 -9.515625 16.5 -11.328125 
Q 19.78125 -13.765625 25.4375 -13.765625 
Q 31.546875 -13.765625 34.859375 -11.328125 
Q 38.1875 -8.890625 39.359375 -4.5 
Q 40.046875 -1.8125 39.984375 6.78125 
Q 34.234375 0 25.640625 0 
Q 14.9375 0 9.078125 7.71875 
Q 3.21875 15.4375 3.21875 26.21875 
Q 3.21875 33.640625 5.90625 39.90625 
Q 8.59375 46.1875 13.6875 49.609375 
Q 18.796875 53.03125 25.6875 53.03125 
Q 34.859375 53.03125 40.828125 45.609375 
L 40.828125 51.859375 
L 48.921875 51.859375 
L 48.921875 7.03125 
Q 48.921875 -5.078125 46.453125 -10.125 
Q 44 -15.1875 38.640625 -18.109375 
Q 33.296875 -21.046875 25.484375 -21.046875 
Q 16.21875 -21.046875 10.5 -16.875 
Q 4.78125 -12.703125 4.984375 -4.296875 
z
M 12.25 26.859375 
Q 12.25 16.65625 16.296875 11.96875 
Q 20.359375 7.28125 26.46875 7.28125 
Q 32.515625 7.28125 36.609375 11.9375 
Q 40.71875 16.609375 40.71875 26.5625 
Q 40.71875 36.078125 36.5 40.90625 
Q 32.28125 45.75 26.3125 45.75 
Q 20.453125 45.75 16.34375 40.984375 
Q 12.25 36.234375 12.25 26.859375 
z
" id="ArialMT-103"/>
      <path d="M 40.234375 0 
L 40.234375 6.546875 
Q 35.296875 -1.171875 25.734375 -1.171875 
Q 19.53125 -1.171875 14.328125 2.25 
Q 9.125 5.671875 6.265625 11.796875 
Q 3.421875 17.921875 3.421875 25.875 
Q 3.421875 33.640625 6 39.96875 
Q 8.59375 46.296875 13.765625 49.65625 
Q 18.953125 53.03125 25.34375 53.03125 
Q 30.03125 53.03125 33.6875 51.046875 
Q 37.359375 49.078125 39.65625 45.90625 
L 39.65625 71.578125 
L 48.390625 71.578125 
L 48.390625 0 
z
M 12.453125 25.875 
Q 12.453125 15.921875 16.640625 10.984375 
Q 20.84375 6.0625 26.5625 6.0625 
Q 32.328125 6.0625 36.34375 10.765625 
Q 40.375 15.484375 40.375 25.140625 
Q 40.375 35.796875 36.265625 40.765625 
Q 32.171875 45.75 26.171875 45.75 
Q 20.3125 45.75 16.375 40.96875 
Q 12.453125 36.1875 12.453125 25.875 
z
" id="ArialMT-100"/>
     </defs>
     <use xlink:href="#ArialMT-71"/>
     <use x="77.783203" xlink:href="#ArialMT-97"/>
     <use x="133.398438" xlink:href="#ArialMT-109"/>
     <use x="216.699219" xlink:href="#ArialMT-101"/>
     <use x="272.314453" xlink:href="#ArialMT-32"/>
     <use x="300.097656" xlink:href="#ArialMT-112"/>
     <use x="355.712891" xlink:href="#ArialMT-114"/>
     <use x="389.013672" xlink:href="#ArialMT-111"/>
     <use x="444.628906" xlink:href="#ArialMT-103"/>
     <use x="500.244141" xlink:href="#ArialMT-114"/>
     <use x="533.544922" xlink:href="#ArialMT-101"/>
     <use x="589.160156" xlink:href="#ArialMT-115"/>
     <use x="639.160156" xlink:href="#ArialMT-115"/>
     <use x="689.160156" xlink:href="#ArialMT-32"/>
     <use x="716.943359" xlink:href="#ArialMT-97"/>
     <use x="772.558594" xlink:href="#ArialMT-118"/>
     <use x="822.558594" xlink:href="#ArialMT-101"/>
     <use x="878.173828" xlink:href="#ArialMT-114"/>
     <use x="911.474609" xlink:href="#ArialMT-97"/>
     <use x="967.089844" xlink:href="#ArialMT-103"/>
     <use x="1022.705078" xlink:href="#ArialMT-101"/>
     <use x="1078.320312" xlink:href="#ArialMT-100"/>
     <use x="1133.935547" xlink:href="#ArialMT-32"/>
     <use x="1161.71875" xlink:href="#ArialMT-111"/>
     <use x="1217.333984" xlink:href="#ArialMT-118"/>
     <use x="1267.333984" xlink:href="#ArialMT-101"/>
     <use x="1322.949219" xlink:href="#ArialMT-114"/>
     <use x="1356.25" xlink:href="#ArialMT-32"/>
     <use x="1384.033203" xlink:href="#ArialMT-49"/>
     <use x="1439.648438" xlink:href="#ArialMT-50"/>
     <use x="1495.263672" xlink:href="#ArialMT-49"/>
     <use x="1550.878906" xlink:href="#ArialMT-48"/>
     <use x="1606.494141" xlink:href="#ArialMT-48"/>
     <use x="1662.109375" xlink:href="#ArialMT-32"/>
     <use x="1689.892578" xlink:href="#ArialMT-112"/>
     <use x="1745.507812" xlink:href="#ArialMT-108"/>
     <use x="1767.724609" xlink:href="#ArialMT-97"/>
     <use x="1823.339844" xlink:href="#ArialMT-121"/>
     <use x="1873.339844" xlink:href="#ArialMT-101"/>
     <use x="1928.955078" xlink:href="#ArialMT-114"/>
     <use x="1962.255859" xlink:href="#ArialMT-115"/>
    </g>
   </g>
  </g>
 </g>
 <defs>
  <clipPath id="pa55bb724e0">
   <rect height="252.708" width="330.107851" x="69.846" y="40.416"/>
  </clipPath>
 </defs>
</svg>
