<?xml version="1.0" encoding="utf-8" standalone="no"?>
<!DOCTYPE svg PUBLIC "-//W3C//DTD SVG 1.1//EN"
  "http://www.w3.org/Graphics/SVG/1.1/DTD/svg11.dtd">
<!-- Created with matplotlib (https://matplotlib.org/) -->
<svg height="360pt" version="1.1" viewBox="0 0 864 360" width="864pt" xmlns="http://www.w3.org/2000/svg" xmlns:xlink="http://www.w3.org/1999/xlink">
 <metadata>
  <rdf:RDF xmlns:cc="http://creativecommons.org/ns#" xmlns:dc="http://purl.org/dc/elements/1.1/" xmlns:rdf="http://www.w3.org/1999/02/22-rdf-syntax-ns#">
   <cc:Work>
    <dc:type rdf:resource="http://purl.org/dc/dcmitype/StillImage"/>
    <dc:date>2021-09-09T11:09:11.791815</dc:date>
    <dc:format>image/svg+xml</dc:format>
    <dc:creator>
     <cc:Agent>
      <dc:title>Matplotlib v3.3.2, https://matplotlib.org/</dc:title>
     </cc:Agent>
    </dc:creator>
   </cc:Work>
  </rdf:RDF>
 </metadata>
 <defs>
  <style type="text/css">*{stroke-linecap:butt;stroke-linejoin:round;}</style>
 </defs>
 <g id="figure_1">
  <g id="patch_1">
   <path d="M 0 360 
L 864 360 
L 864 0 
L 0 0 
z
" style="fill:#ffffff;"/>
  </g>
  <g id="axes_1">
   <g id="patch_2">
    <path d="M 69.936 293.124 
L 843.264 293.124 
L 843.264 40.416 
L 69.936 40.416 
z
" style="fill:#ffffff;"/>
   </g>
   <g id="matplotlib.axis_1">
    <g id="xtick_1">
     <g id="line2d_1">
      <defs>
       <path d="M 0 0 
L 0 4.8 
" id="m910d335d89" style="stroke:#262626;"/>
      </defs>
      <g>
       <use style="fill:#262626;stroke:#262626;" x="69.936" xlink:href="#m910d335d89" y="293.124"/>
      </g>
     </g>
     <g id="text_1">
      <!-- 0 -->
      <g style="fill:#262626;" transform="translate(65.042375 314.02175)scale(0.176 -0.176)">
       <defs>
        <path d="M 4.15625 35.296875 
Q 4.15625 48 6.765625 55.734375 
Q 9.375 63.484375 14.515625 67.671875 
Q 19.671875 71.875 27.484375 71.875 
Q 33.25 71.875 37.59375 69.546875 
Q 41.9375 67.234375 44.765625 62.859375 
Q 47.609375 58.5 49.21875 52.21875 
Q 50.828125 45.953125 50.828125 35.296875 
Q 50.828125 22.703125 48.234375 14.96875 
Q 45.65625 7.234375 40.5 3 
Q 35.359375 -1.21875 27.484375 -1.21875 
Q 17.140625 -1.21875 11.234375 6.203125 
Q 4.15625 15.140625 4.15625 35.296875 
z
M 13.1875 35.296875 
Q 13.1875 17.671875 17.3125 11.828125 
Q 21.4375 6 27.484375 6 
Q 33.546875 6 37.671875 11.859375 
Q 41.796875 17.71875 41.796875 35.296875 
Q 41.796875 52.984375 37.671875 58.78125 
Q 33.546875 64.59375 27.390625 64.59375 
Q 21.34375 64.59375 17.71875 59.46875 
Q 13.1875 52.9375 13.1875 35.296875 
z
" id="ArialMT-48"/>
       </defs>
       <use xlink:href="#ArialMT-48"/>
      </g>
     </g>
    </g>
    <g id="xtick_2">
     <g id="line2d_2">
      <g>
       <use style="fill:#262626;stroke:#262626;" x="217.517679" xlink:href="#m910d335d89" y="293.124"/>
      </g>
     </g>
     <g id="text_2">
      <!-- 100 -->
      <g style="fill:#262626;" transform="translate(202.836804 314.02175)scale(0.176 -0.176)">
       <defs>
        <path d="M 37.25 0 
L 28.46875 0 
L 28.46875 56 
Q 25.296875 52.984375 20.140625 49.953125 
Q 14.984375 46.921875 10.890625 45.40625 
L 10.890625 53.90625 
Q 18.265625 57.375 23.78125 62.296875 
Q 29.296875 67.234375 31.59375 71.875 
L 37.25 71.875 
z
" id="ArialMT-49"/>
       </defs>
       <use xlink:href="#ArialMT-49"/>
       <use x="55.615234" xlink:href="#ArialMT-48"/>
       <use x="111.230469" xlink:href="#ArialMT-48"/>
      </g>
     </g>
    </g>
    <g id="xtick_3">
     <g id="line2d_3">
      <g>
       <use style="fill:#262626;stroke:#262626;" x="365.099359" xlink:href="#m910d335d89" y="293.124"/>
      </g>
     </g>
     <g id="text_3">
      <!-- 200 -->
      <g style="fill:#262626;" transform="translate(350.418484 314.02175)scale(0.176 -0.176)">
       <defs>
        <path d="M 50.34375 8.453125 
L 50.34375 0 
L 3.03125 0 
Q 2.9375 3.171875 4.046875 6.109375 
Q 5.859375 10.9375 9.828125 15.625 
Q 13.8125 20.3125 21.34375 26.46875 
Q 33.015625 36.03125 37.109375 41.625 
Q 41.21875 47.21875 41.21875 52.203125 
Q 41.21875 57.421875 37.46875 61 
Q 33.734375 64.59375 27.734375 64.59375 
Q 21.390625 64.59375 17.578125 60.78125 
Q 13.765625 56.984375 13.71875 50.25 
L 4.6875 51.171875 
Q 5.609375 61.28125 11.65625 66.578125 
Q 17.71875 71.875 27.9375 71.875 
Q 38.234375 71.875 44.234375 66.15625 
Q 50.25 60.453125 50.25 52 
Q 50.25 47.703125 48.484375 43.546875 
Q 46.734375 39.40625 42.65625 34.8125 
Q 38.578125 30.21875 29.109375 22.21875 
Q 21.1875 15.578125 18.9375 13.203125 
Q 16.703125 10.84375 15.234375 8.453125 
z
" id="ArialMT-50"/>
       </defs>
       <use xlink:href="#ArialMT-50"/>
       <use x="55.615234" xlink:href="#ArialMT-48"/>
       <use x="111.230469" xlink:href="#ArialMT-48"/>
      </g>
     </g>
    </g>
    <g id="xtick_4">
     <g id="line2d_4">
      <g>
       <use style="fill:#262626;stroke:#262626;" x="512.681038" xlink:href="#m910d335d89" y="293.124"/>
      </g>
     </g>
     <g id="text_4">
      <!-- 300 -->
      <g style="fill:#262626;" transform="translate(498.000163 314.02175)scale(0.176 -0.176)">
       <defs>
        <path d="M 4.203125 18.890625 
L 12.984375 20.0625 
Q 14.5 12.59375 18.140625 9.296875 
Q 21.78125 6 27 6 
Q 33.203125 6 37.46875 10.296875 
Q 41.75 14.59375 41.75 20.953125 
Q 41.75 27 37.796875 30.921875 
Q 33.84375 34.859375 27.734375 34.859375 
Q 25.25 34.859375 21.53125 33.890625 
L 22.515625 41.609375 
Q 23.390625 41.5 23.921875 41.5 
Q 29.546875 41.5 34.03125 44.421875 
Q 38.53125 47.359375 38.53125 53.46875 
Q 38.53125 58.296875 35.25 61.46875 
Q 31.984375 64.65625 26.8125 64.65625 
Q 21.6875 64.65625 18.265625 61.421875 
Q 14.84375 58.203125 13.875 51.765625 
L 5.078125 53.328125 
Q 6.6875 62.15625 12.390625 67.015625 
Q 18.109375 71.875 26.609375 71.875 
Q 32.46875 71.875 37.390625 69.359375 
Q 42.328125 66.84375 44.9375 62.5 
Q 47.5625 58.15625 47.5625 53.265625 
Q 47.5625 48.640625 45.0625 44.828125 
Q 42.578125 41.015625 37.703125 38.765625 
Q 44.046875 37.3125 47.5625 32.6875 
Q 51.078125 28.078125 51.078125 21.140625 
Q 51.078125 11.765625 44.234375 5.25 
Q 37.40625 -1.265625 26.953125 -1.265625 
Q 17.53125 -1.265625 11.296875 4.34375 
Q 5.078125 9.96875 4.203125 18.890625 
z
" id="ArialMT-51"/>
       </defs>
       <use xlink:href="#ArialMT-51"/>
       <use x="55.615234" xlink:href="#ArialMT-48"/>
       <use x="111.230469" xlink:href="#ArialMT-48"/>
      </g>
     </g>
    </g>
    <g id="xtick_5">
     <g id="line2d_5">
      <g>
       <use style="fill:#262626;stroke:#262626;" x="660.262718" xlink:href="#m910d335d89" y="293.124"/>
      </g>
     </g>
     <g id="text_5">
      <!-- 400 -->
      <g style="fill:#262626;" transform="translate(645.581843 314.02175)scale(0.176 -0.176)">
       <defs>
        <path d="M 32.328125 0 
L 32.328125 17.140625 
L 1.265625 17.140625 
L 1.265625 25.203125 
L 33.9375 71.578125 
L 41.109375 71.578125 
L 41.109375 25.203125 
L 50.78125 25.203125 
L 50.78125 17.140625 
L 41.109375 17.140625 
L 41.109375 0 
z
M 32.328125 25.203125 
L 32.328125 57.46875 
L 9.90625 25.203125 
z
" id="ArialMT-52"/>
       </defs>
       <use xlink:href="#ArialMT-52"/>
       <use x="55.615234" xlink:href="#ArialMT-48"/>
       <use x="111.230469" xlink:href="#ArialMT-48"/>
      </g>
     </g>
    </g>
    <g id="xtick_6">
     <g id="line2d_6">
      <g>
       <use style="fill:#262626;stroke:#262626;" x="807.844397" xlink:href="#m910d335d89" y="293.124"/>
      </g>
     </g>
     <g id="text_6">
      <!-- 500 -->
      <g style="fill:#262626;" transform="translate(793.163522 314.02175)scale(0.176 -0.176)">
       <defs>
        <path d="M 4.15625 18.75 
L 13.375 19.53125 
Q 14.40625 12.796875 18.140625 9.390625 
Q 21.875 6 27.15625 6 
Q 33.5 6 37.890625 10.78125 
Q 42.28125 15.578125 42.28125 23.484375 
Q 42.28125 31 38.0625 35.34375 
Q 33.84375 39.703125 27 39.703125 
Q 22.75 39.703125 19.328125 37.765625 
Q 15.921875 35.84375 13.96875 32.765625 
L 5.71875 33.84375 
L 12.640625 70.609375 
L 48.25 70.609375 
L 48.25 62.203125 
L 19.671875 62.203125 
L 15.828125 42.96875 
Q 22.265625 47.46875 29.34375 47.46875 
Q 38.71875 47.46875 45.15625 40.96875 
Q 51.609375 34.46875 51.609375 24.265625 
Q 51.609375 14.546875 45.953125 7.46875 
Q 39.0625 -1.21875 27.15625 -1.21875 
Q 17.390625 -1.21875 11.203125 4.25 
Q 5.03125 9.71875 4.15625 18.75 
z
" id="ArialMT-53"/>
       </defs>
       <use xlink:href="#ArialMT-53"/>
       <use x="55.615234" xlink:href="#ArialMT-48"/>
       <use x="111.230469" xlink:href="#ArialMT-48"/>
      </g>
     </g>
    </g>
    <g id="text_7">
     <!-- Trial -->
     <g style="fill:#262626;" transform="translate(438.2955 335.26275)scale(0.192 -0.192)">
      <defs>
       <path d="M 25.921875 0 
L 25.921875 63.140625 
L 2.34375 63.140625 
L 2.34375 71.578125 
L 59.078125 71.578125 
L 59.078125 63.140625 
L 35.40625 63.140625 
L 35.40625 0 
z
" id="ArialMT-84"/>
       <path d="M 6.5 0 
L 6.5 51.859375 
L 14.40625 51.859375 
L 14.40625 44 
Q 17.4375 49.515625 20 51.265625 
Q 22.5625 53.03125 25.640625 53.03125 
Q 30.078125 53.03125 34.671875 50.203125 
L 31.640625 42.046875 
Q 28.421875 43.953125 25.203125 43.953125 
Q 22.3125 43.953125 20.015625 42.21875 
Q 17.71875 40.484375 16.75 37.40625 
Q 15.28125 32.71875 15.28125 27.15625 
L 15.28125 0 
z
" id="ArialMT-114"/>
       <path d="M 6.640625 61.46875 
L 6.640625 71.578125 
L 15.4375 71.578125 
L 15.4375 61.46875 
z
M 6.640625 0 
L 6.640625 51.859375 
L 15.4375 51.859375 
L 15.4375 0 
z
" id="ArialMT-105"/>
       <path d="M 40.4375 6.390625 
Q 35.546875 2.25 31.03125 0.53125 
Q 26.515625 -1.171875 21.34375 -1.171875 
Q 12.796875 -1.171875 8.203125 3 
Q 3.609375 7.171875 3.609375 13.671875 
Q 3.609375 17.484375 5.34375 20.625 
Q 7.078125 23.78125 9.890625 25.6875 
Q 12.703125 27.59375 16.21875 28.5625 
Q 18.796875 29.25 24.03125 29.890625 
Q 34.671875 31.15625 39.703125 32.90625 
Q 39.75 34.71875 39.75 35.203125 
Q 39.75 40.578125 37.25 42.78125 
Q 33.890625 45.75 27.25 45.75 
Q 21.046875 45.75 18.09375 43.578125 
Q 15.140625 41.40625 13.71875 35.890625 
L 5.125 37.0625 
Q 6.296875 42.578125 8.984375 45.96875 
Q 11.671875 49.359375 16.75 51.1875 
Q 21.828125 53.03125 28.515625 53.03125 
Q 35.15625 53.03125 39.296875 51.46875 
Q 43.453125 49.90625 45.40625 47.53125 
Q 47.359375 45.171875 48.140625 41.546875 
Q 48.578125 39.3125 48.578125 33.453125 
L 48.578125 21.734375 
Q 48.578125 9.46875 49.140625 6.21875 
Q 49.703125 2.984375 51.375 0 
L 42.1875 0 
Q 40.828125 2.734375 40.4375 6.390625 
z
M 39.703125 26.03125 
Q 34.90625 24.078125 25.34375 22.703125 
Q 19.921875 21.921875 17.671875 20.9375 
Q 15.4375 19.96875 14.203125 18.09375 
Q 12.984375 16.21875 12.984375 13.921875 
Q 12.984375 10.40625 15.640625 8.0625 
Q 18.3125 5.71875 23.4375 5.71875 
Q 28.515625 5.71875 32.46875 7.9375 
Q 36.421875 10.15625 38.28125 14.015625 
Q 39.703125 17 39.703125 22.796875 
z
" id="ArialMT-97"/>
       <path d="M 6.390625 0 
L 6.390625 71.578125 
L 15.1875 71.578125 
L 15.1875 0 
z
" id="ArialMT-108"/>
      </defs>
      <use xlink:href="#ArialMT-84"/>
      <use x="57.333984" xlink:href="#ArialMT-114"/>
      <use x="90.634766" xlink:href="#ArialMT-105"/>
      <use x="112.851562" xlink:href="#ArialMT-97"/>
      <use x="168.466797" xlink:href="#ArialMT-108"/>
     </g>
    </g>
   </g>
   <g id="matplotlib.axis_2">
    <g id="ytick_1">
     <g id="line2d_7">
      <defs>
       <path d="M 0 0 
L -4.8 0 
" id="m8212823d3b" style="stroke:#262626;"/>
      </defs>
      <g>
       <use style="fill:#262626;stroke:#262626;" x="69.936" xlink:href="#m8212823d3b" y="293.124"/>
      </g>
     </g>
     <g id="text_8">
      <!-- 0 -->
      <g style="fill:#262626;" transform="translate(51.84875 299.422875)scale(0.176 -0.176)">
       <use xlink:href="#ArialMT-48"/>
      </g>
     </g>
    </g>
    <g id="ytick_2">
     <g id="line2d_8">
      <g>
       <use style="fill:#262626;stroke:#262626;" x="69.936" xlink:href="#m8212823d3b" y="234.081778"/>
      </g>
     </g>
     <g id="text_9">
      <!-- 10 -->
      <g style="fill:#262626;" transform="translate(42.0615 240.380653)scale(0.176 -0.176)">
       <use xlink:href="#ArialMT-49"/>
       <use x="55.615234" xlink:href="#ArialMT-48"/>
      </g>
     </g>
    </g>
    <g id="ytick_3">
     <g id="line2d_9">
      <g>
       <use style="fill:#262626;stroke:#262626;" x="69.936" xlink:href="#m8212823d3b" y="175.039556"/>
      </g>
     </g>
     <g id="text_10">
      <!-- 20 -->
      <g style="fill:#262626;" transform="translate(42.0615 181.338431)scale(0.176 -0.176)">
       <use xlink:href="#ArialMT-50"/>
       <use x="55.615234" xlink:href="#ArialMT-48"/>
      </g>
     </g>
    </g>
    <g id="ytick_4">
     <g id="line2d_10">
      <g>
       <use style="fill:#262626;stroke:#262626;" x="69.936" xlink:href="#m8212823d3b" y="115.997334"/>
      </g>
     </g>
     <g id="text_11">
      <!-- 30 -->
      <g style="fill:#262626;" transform="translate(42.0615 122.296209)scale(0.176 -0.176)">
       <use xlink:href="#ArialMT-51"/>
       <use x="55.615234" xlink:href="#ArialMT-48"/>
      </g>
     </g>
    </g>
    <g id="ytick_5">
     <g id="line2d_11">
      <g>
       <use style="fill:#262626;stroke:#262626;" x="69.936" xlink:href="#m8212823d3b" y="56.955111"/>
      </g>
     </g>
     <g id="text_12">
      <!-- 40 -->
      <g style="fill:#262626;" transform="translate(42.0615 63.253986)scale(0.176 -0.176)">
       <use xlink:href="#ArialMT-52"/>
       <use x="55.615234" xlink:href="#ArialMT-48"/>
      </g>
     </g>
    </g>
    <g id="text_13">
     <!-- Inventory size -->
     <g style="fill:#262626;" transform="translate(34.0205 225.993)rotate(-90)scale(0.192 -0.192)">
      <defs>
       <path d="M 9.328125 0 
L 9.328125 71.578125 
L 18.796875 71.578125 
L 18.796875 0 
z
" id="ArialMT-73"/>
       <path d="M 6.59375 0 
L 6.59375 51.859375 
L 14.5 51.859375 
L 14.5 44.484375 
Q 20.21875 53.03125 31 53.03125 
Q 35.6875 53.03125 39.625 51.34375 
Q 43.5625 49.65625 45.515625 46.921875 
Q 47.46875 44.1875 48.25 40.4375 
Q 48.734375 37.984375 48.734375 31.890625 
L 48.734375 0 
L 39.9375 0 
L 39.9375 31.546875 
Q 39.9375 36.921875 38.90625 39.578125 
Q 37.890625 42.234375 35.28125 43.8125 
Q 32.671875 45.40625 29.15625 45.40625 
Q 23.53125 45.40625 19.453125 41.84375 
Q 15.375 38.28125 15.375 28.328125 
L 15.375 0 
z
" id="ArialMT-110"/>
       <path d="M 21 0 
L 1.265625 51.859375 
L 10.546875 51.859375 
L 21.6875 20.796875 
Q 23.484375 15.765625 25 10.359375 
Q 26.171875 14.453125 28.265625 20.21875 
L 39.796875 51.859375 
L 48.828125 51.859375 
L 29.203125 0 
z
" id="ArialMT-118"/>
       <path d="M 42.09375 16.703125 
L 51.171875 15.578125 
Q 49.03125 7.625 43.21875 3.21875 
Q 37.40625 -1.171875 28.375 -1.171875 
Q 17 -1.171875 10.328125 5.828125 
Q 3.65625 12.84375 3.65625 25.484375 
Q 3.65625 38.578125 10.390625 45.796875 
Q 17.140625 53.03125 27.875 53.03125 
Q 38.28125 53.03125 44.875 45.953125 
Q 51.46875 38.875 51.46875 26.03125 
Q 51.46875 25.25 51.421875 23.6875 
L 12.75 23.6875 
Q 13.234375 15.140625 17.578125 10.59375 
Q 21.921875 6.0625 28.421875 6.0625 
Q 33.25 6.0625 36.671875 8.59375 
Q 40.09375 11.140625 42.09375 16.703125 
z
M 13.234375 30.90625 
L 42.1875 30.90625 
Q 41.609375 37.453125 38.875 40.71875 
Q 34.671875 45.796875 27.984375 45.796875 
Q 21.921875 45.796875 17.796875 41.75 
Q 13.671875 37.703125 13.234375 30.90625 
z
" id="ArialMT-101"/>
       <path d="M 25.78125 7.859375 
L 27.046875 0.09375 
Q 23.34375 -0.6875 20.40625 -0.6875 
Q 15.625 -0.6875 12.984375 0.828125 
Q 10.359375 2.34375 9.28125 4.8125 
Q 8.203125 7.28125 8.203125 15.1875 
L 8.203125 45.015625 
L 1.765625 45.015625 
L 1.765625 51.859375 
L 8.203125 51.859375 
L 8.203125 64.703125 
L 16.9375 69.96875 
L 16.9375 51.859375 
L 25.78125 51.859375 
L 25.78125 45.015625 
L 16.9375 45.015625 
L 16.9375 14.703125 
Q 16.9375 10.9375 17.40625 9.859375 
Q 17.875 8.796875 18.921875 8.15625 
Q 19.96875 7.515625 21.921875 7.515625 
Q 23.390625 7.515625 25.78125 7.859375 
z
" id="ArialMT-116"/>
       <path d="M 3.328125 25.921875 
Q 3.328125 40.328125 11.328125 47.265625 
Q 18.015625 53.03125 27.640625 53.03125 
Q 38.328125 53.03125 45.109375 46.015625 
Q 51.90625 39.015625 51.90625 26.65625 
Q 51.90625 16.65625 48.90625 10.90625 
Q 45.90625 5.171875 40.15625 2 
Q 34.421875 -1.171875 27.640625 -1.171875 
Q 16.75 -1.171875 10.03125 5.8125 
Q 3.328125 12.796875 3.328125 25.921875 
z
M 12.359375 25.921875 
Q 12.359375 15.96875 16.703125 11.015625 
Q 21.046875 6.0625 27.640625 6.0625 
Q 34.1875 6.0625 38.53125 11.03125 
Q 42.875 16.015625 42.875 26.21875 
Q 42.875 35.84375 38.5 40.796875 
Q 34.125 45.75 27.640625 45.75 
Q 21.046875 45.75 16.703125 40.8125 
Q 12.359375 35.890625 12.359375 25.921875 
z
" id="ArialMT-111"/>
       <path d="M 6.203125 -19.96875 
L 5.21875 -11.71875 
Q 8.109375 -12.5 10.25 -12.5 
Q 13.1875 -12.5 14.9375 -11.515625 
Q 16.703125 -10.546875 17.828125 -8.796875 
Q 18.65625 -7.46875 20.515625 -2.25 
Q 20.75 -1.515625 21.296875 -0.09375 
L 1.609375 51.859375 
L 11.078125 51.859375 
L 21.875 21.828125 
Q 23.96875 16.109375 25.640625 9.8125 
Q 27.15625 15.875 29.25 21.625 
L 40.328125 51.859375 
L 49.125 51.859375 
L 29.390625 -0.875 
Q 26.21875 -9.421875 24.46875 -12.640625 
Q 22.125 -17 19.09375 -19.015625 
Q 16.0625 -21.046875 11.859375 -21.046875 
Q 9.328125 -21.046875 6.203125 -19.96875 
z
" id="ArialMT-121"/>
       <path id="ArialMT-32"/>
       <path d="M 3.078125 15.484375 
L 11.765625 16.84375 
Q 12.5 11.625 15.84375 8.84375 
Q 19.1875 6.0625 25.203125 6.0625 
Q 31.25 6.0625 34.171875 8.515625 
Q 37.109375 10.984375 37.109375 14.3125 
Q 37.109375 17.28125 34.515625 19 
Q 32.71875 20.171875 25.53125 21.96875 
Q 15.875 24.421875 12.140625 26.203125 
Q 8.40625 27.984375 6.46875 31.125 
Q 4.546875 34.28125 4.546875 38.09375 
Q 4.546875 41.546875 6.125 44.5 
Q 7.71875 47.46875 10.453125 49.421875 
Q 12.5 50.921875 16.03125 51.96875 
Q 19.578125 53.03125 23.640625 53.03125 
Q 29.734375 53.03125 34.34375 51.265625 
Q 38.96875 49.515625 41.15625 46.5 
Q 43.359375 43.5 44.1875 38.484375 
L 35.59375 37.3125 
Q 35.015625 41.3125 32.203125 43.546875 
Q 29.390625 45.796875 24.265625 45.796875 
Q 18.21875 45.796875 15.625 43.796875 
Q 13.03125 41.796875 13.03125 39.109375 
Q 13.03125 37.40625 14.109375 36.03125 
Q 15.1875 34.625 17.484375 33.6875 
Q 18.796875 33.203125 25.25 31.453125 
Q 34.578125 28.953125 38.25 27.359375 
Q 41.9375 25.78125 44.03125 22.75 
Q 46.140625 19.734375 46.140625 15.234375 
Q 46.140625 10.84375 43.578125 6.953125 
Q 41.015625 3.078125 36.171875 0.953125 
Q 31.34375 -1.171875 25.25 -1.171875 
Q 15.140625 -1.171875 9.84375 3.03125 
Q 4.546875 7.234375 3.078125 15.484375 
z
" id="ArialMT-115"/>
       <path d="M 1.953125 0 
L 1.953125 7.125 
L 34.96875 45.015625 
Q 29.34375 44.734375 25.046875 44.734375 
L 3.90625 44.734375 
L 3.90625 51.859375 
L 46.296875 51.859375 
L 46.296875 46.046875 
L 18.21875 13.140625 
L 12.796875 7.125 
Q 18.703125 7.5625 23.875 7.5625 
L 47.859375 7.5625 
L 47.859375 0 
z
" id="ArialMT-122"/>
      </defs>
      <use xlink:href="#ArialMT-73"/>
      <use x="27.783203" xlink:href="#ArialMT-110"/>
      <use x="83.398438" xlink:href="#ArialMT-118"/>
      <use x="133.398438" xlink:href="#ArialMT-101"/>
      <use x="189.013672" xlink:href="#ArialMT-110"/>
      <use x="244.628906" xlink:href="#ArialMT-116"/>
      <use x="272.412109" xlink:href="#ArialMT-111"/>
      <use x="328.027344" xlink:href="#ArialMT-114"/>
      <use x="361.328125" xlink:href="#ArialMT-121"/>
      <use x="411.328125" xlink:href="#ArialMT-32"/>
      <use x="439.111328" xlink:href="#ArialMT-115"/>
      <use x="489.111328" xlink:href="#ArialMT-105"/>
      <use x="511.328125" xlink:href="#ArialMT-122"/>
      <use x="561.328125" xlink:href="#ArialMT-101"/>
     </g>
    </g>
   </g>
   <g id="PolyCollection_1">
    <defs>
     <path d="M 69.936 -96.397111 
L 69.936 -96.251328 
L 71.411817 -100.854778 
L 72.887634 -104.819881 
L 74.36345 -107.528496 
L 75.839267 -109.797476 
L 77.315084 -111.826516 
L 78.790901 -114.335574 
L 80.266718 -117.204866 
L 81.742534 -120.102335 
L 83.218351 -122.352101 
L 84.694168 -123.919006 
L 86.169985 -125.342895 
L 87.645802 -126.855379 
L 89.121618 -128.381388 
L 90.597435 -129.884562 
L 92.073252 -130.852969 
L 93.549069 -132.827694 
L 95.024885 -134.148588 
L 96.500702 -135.180249 
L 97.976519 -136.993999 
L 99.452336 -138.925012 
L 100.928153 -140.220739 
L 102.403969 -141.89841 
L 103.879786 -142.592103 
L 105.355603 -143.831646 
L 106.83142 -144.8189 
L 108.307237 -146.224039 
L 109.783053 -147.125134 
L 111.25887 -148.359055 
L 112.734687 -149.881975 
L 114.210504 -151.204746 
L 115.686321 -152.233985 
L 117.162137 -152.99988 
L 118.637954 -153.708149 
L 120.113771 -154.563299 
L 121.589588 -155.675818 
L 123.065405 -156.675201 
L 124.541221 -157.74717 
L 126.017038 -158.509303 
L 127.492855 -158.787743 
L 128.968672 -159.916578 
L 130.444489 -160.413042 
L 131.920305 -161.174261 
L 133.396122 -162.526317 
L 134.871939 -163.903618 
L 136.347756 -165.108025 
L 137.823573 -166.51127 
L 139.299389 -166.937499 
L 140.775206 -168.772055 
L 142.251023 -169.713381 
L 143.72684 -170.773543 
L 145.202656 -171.81065 
L 146.678473 -172.916045 
L 148.15429 -173.487891 
L 149.630107 -174.055314 
L 151.105924 -174.618486 
L 152.58174 -175.274191 
L 154.057557 -175.958805 
L 155.533374 -177.397805 
L 157.009191 -177.568474 
L 158.485008 -179.319855 
L 159.960824 -180.044949 
L 161.436641 -180.423987 
L 162.912458 -181.489493 
L 164.388275 -181.292744 
L 165.864092 -181.769925 
L 167.339908 -182.291002 
L 168.815725 -182.753182 
L 170.291542 -183.063108 
L 171.767359 -183.59084 
L 173.243176 -183.716952 
L 174.718992 -183.962105 
L 176.194809 -184.426382 
L 177.670626 -185.530915 
L 179.146443 -186.39519 
L 180.62226 -186.39519 
L 182.098076 -187.574123 
L 183.573893 -188.363264 
L 185.04971 -187.995112 
L 186.525527 -188.646332 
L 188.001344 -189.855371 
L 189.47716 -189.585035 
L 190.952977 -190.313297 
L 192.428794 -190.680397 
L 193.904611 -190.680397 
L 195.380427 -191.633013 
L 196.856244 -192.17593 
L 198.332061 -192.616491 
L 199.807878 -192.819645 
L 201.283695 -193.484365 
L 202.759511 -193.755826 
L 204.235328 -193.947805 
L 205.711145 -194.110267 
L 207.186962 -194.524787 
L 208.662779 -198.23122 
L 210.138595 -198.610917 
L 211.614412 -199.269132 
L 213.090229 -199.833968 
L 214.566046 -201.197055 
L 216.041863 -202.144197 
L 217.517679 -203.265907 
L 218.993496 -204.207392 
L 220.469313 -204.207392 
L 221.94513 -205.229366 
L 223.420947 -205.508205 
L 224.896763 -205.869603 
L 226.37258 -206.574654 
L 227.848397 -207.18486 
L 229.324214 -208.021278 
L 230.800031 -208.31025 
L 232.275847 -208.508721 
L 233.751664 -208.508721 
L 235.227481 -209.350644 
L 236.703298 -210.092843 
L 238.179115 -210.616127 
L 239.654931 -211.472106 
L 241.130748 -212.738246 
L 242.606565 -213.017539 
L 244.082382 -213.702118 
L 245.558198 -215.687367 
L 247.034015 -216.147342 
L 248.509832 -216.858672 
L 249.985649 -216.858672 
L 251.461466 -217.246762 
L 252.937282 -217.924551 
L 254.413099 -219.889975 
L 255.888916 -220.58559 
L 257.364733 -221.696156 
L 258.84055 -222.77436 
L 260.316366 -223.144075 
L 261.792183 -223.343916 
L 263.268 -223.599029 
L 264.743817 -223.599029 
L 266.219634 -223.951779 
L 267.69545 -224.353234 
L 269.171267 -224.593202 
L 270.647084 -226.220057 
L 272.122901 -226.220057 
L 273.598718 -226.700817 
L 275.074534 -227.160503 
L 276.550351 -227.160503 
L 278.026168 -225.280533 
L 279.501985 -225.718133 
L 280.977802 -225.718133 
L 282.453618 -226.397672 
L 283.929435 -226.397672 
L 285.405252 -226.645491 
L 286.881069 -227.155887 
L 288.356885 -228.216322 
L 289.832702 -228.487891 
L 291.308519 -228.487891 
L 292.784336 -224.95276 
L 294.260153 -224.407902 
L 295.735969 -224.407902 
L 297.211786 -224.407902 
L 298.687603 -220.491822 
L 300.16342 -220.491822 
L 301.639237 -220.491822 
L 303.115053 -220.491822 
L 304.59087 -221.875262 
L 306.066687 -221.875262 
L 307.542504 -222.442136 
L 309.018321 -222.442136 
L 310.494137 -222.442136 
L 311.969954 -222.442136 
L 313.445771 -222.442136 
L 314.921588 -222.442136 
L 316.397405 -223.015736 
L 317.873221 -223.015736 
L 319.349038 -223.015736 
L 320.824855 -225.547918 
L 322.300672 -226.755461 
L 323.776489 -226.755461 
L 325.252305 -228.062605 
L 326.728122 -229.172099 
L 328.203939 -229.274607 
L 329.679756 -231.196137 
L 331.155573 -232.129558 
L 332.631389 -232.194222 
L 334.107206 -233.072524 
L 335.583023 -233.776254 
L 337.05884 -233.776254 
L 338.534656 -234.42715 
L 340.010473 -234.503605 
L 341.48629 -234.503605 
L 342.962107 -235.344922 
L 344.437924 -236.31079 
L 345.91374 -236.31079 
L 347.389557 -237.111139 
L 348.865374 -237.919257 
L 350.341191 -238.557821 
L 351.817008 -240.017727 
L 353.292824 -241.130156 
L 354.768641 -241.801382 
L 356.244458 -241.801382 
L 357.720275 -242.421593 
L 359.196092 -243.238514 
L 360.671908 -244.593692 
L 362.147725 -245.138531 
L 363.623542 -238.498848 
L 365.099359 -239.339488 
L 366.575176 -240.099365 
L 368.050992 -241.682488 
L 369.526809 -241.682488 
L 371.002626 -241.682488 
L 372.478443 -241.682488 
L 373.95426 -241.682488 
L 375.430076 -241.682488 
L 376.905893 -241.682488 
L 378.38171 -241.682488 
L 379.857527 -241.682488 
L 381.333344 -241.682488 
L 382.80916 -241.682488 
L 384.284977 -241.682488 
L 385.760794 -241.682488 
L 387.236611 -241.969171 
L 388.712427 -236.942222 
L 390.188244 -236.942222 
L 391.664061 -238.599315 
L 393.139878 -240.168203 
L 394.615695 -240.168203 
L 396.091511 -240.168203 
L 397.567328 -240.168203 
L 399.043145 -240.168203 
L 400.518962 -240.168203 
L 401.994779 -240.168203 
L 403.470595 -240.168203 
L 404.946412 -240.168203 
L 406.422229 -240.168203 
L 407.898046 -240.168203 
L 409.373863 -240.168203 
L 410.849679 -242.049977 
L 412.325496 -242.049977 
L 413.801313 -242.049977 
L 415.27713 -242.049977 
L 416.752947 -242.049977 
L 418.228763 -242.049977 
L 419.70458 -242.049977 
L 421.180397 -242.049977 
L 422.656214 -235.311887 
L 424.132031 -235.43142 
L 425.607847 -235.43142 
L 427.083664 -240.91719 
L 428.559481 -240.91719 
L 430.035298 -240.91719 
L 431.511115 -243.428968 
L 432.986931 -243.428968 
L 434.462748 -243.428968 
L 435.938565 -243.428968 
L 437.414382 -243.428968 
L 438.890198 -245.584698 
L 440.366015 -245.584698 
L 441.841832 -245.584698 
L 443.317649 -245.584698 
L 444.793466 -238.098444 
L 446.269282 -244.002666 
L 447.745099 -249.906889 
L 449.220916 -249.906889 
L 450.696733 -249.906889 
L 452.17255 -249.906889 
L 453.648366 -249.906889 
L 455.124183 -249.906889 
L 456.6 -249.906889 
L 458.075817 -249.906889 
L 459.551634 -249.906889 
L 461.02745 -249.906889 
L 462.503267 -249.906889 
L 463.979084 -249.906889 
L 465.454901 -255.811111 
L 466.930718 -255.811111 
L 468.406534 -255.811111 
L 469.882351 -255.811111 
L 471.358168 -255.811111 
L 472.833985 -255.811111 
L 474.309802 -255.811111 
L 475.785618 -255.811111 
L 477.261435 -255.811111 
L 478.737252 -255.811111 
L 480.213069 -255.811111 
L 481.688885 -255.811111 
L 483.164702 -255.811111 
L 484.640519 -255.811111 
L 486.116336 -255.811111 
L 487.592153 -255.811111 
L 489.067969 -255.811111 
L 490.543786 -255.811111 
L 492.019603 -255.811111 
L 493.49542 -255.811111 
L 494.971237 -255.811111 
L 496.447053 -255.811111 
L 497.92287 -255.811111 
L 499.398687 -255.811111 
L 500.874504 -255.811111 
L 502.350321 -255.811111 
L 503.826137 -255.811111 
L 505.301954 -255.811111 
L 506.777771 -255.811111 
L 508.253588 -255.811111 
L 509.729405 -255.811111 
L 511.205221 -255.811111 
L 512.681038 -255.811111 
L 514.156855 -255.811111 
L 515.632672 -255.811111 
L 517.108489 -255.811111 
L 518.584305 -255.811111 
L 520.060122 -255.811111 
L 521.535939 -255.811111 
L 523.011756 -255.811111 
L 524.487573 -255.811111 
L 525.963389 -255.811111 
L 527.439206 -255.811111 
L 528.915023 -255.811111 
L 530.39084 -255.811111 
L 531.866656 -255.811111 
L 533.342473 -255.811111 
L 534.81829 -255.811111 
L 536.294107 -255.811111 
L 537.769924 -255.811111 
L 539.24574 -255.811111 
L 540.721557 -255.811111 
L 542.197374 -255.811111 
L 543.673191 -255.811111 
L 545.149008 -255.811111 
L 546.624824 -255.811111 
L 548.100641 -255.811111 
L 549.576458 -255.811111 
L 551.052275 -255.811111 
L 552.528092 -255.811111 
L 554.003908 -255.811111 
L 555.479725 -255.811111 
L 556.955542 -255.811111 
L 558.431359 -255.811111 
L 559.907176 -255.811111 
L 561.382992 -255.811111 
L 562.858809 -255.811111 
L 564.334626 -255.811111 
L 565.810443 -255.811111 
L 567.28626 -255.811111 
L 568.762076 -255.811111 
L 570.237893 -255.811111 
L 571.71371 -255.811111 
L 573.189527 -255.811111 
L 574.665344 -255.811111 
L 576.14116 -255.811111 
L 577.616977 -255.811111 
L 579.092794 -255.811111 
L 580.568611 -255.811111 
L 582.044427 -255.811111 
L 583.520244 -255.811111 
L 584.996061 -255.811111 
L 586.471878 -255.811111 
L 587.947695 -255.811111 
L 589.423511 -255.811111 
L 590.899328 -255.811111 
L 592.375145 -255.811111 
L 593.850962 -255.811111 
L 595.326779 -255.811111 
L 596.802595 -255.811111 
L 598.278412 -255.811111 
L 599.754229 -255.811111 
L 601.230046 -255.811111 
L 602.705863 -255.811111 
L 604.181679 -255.811111 
L 605.657496 -261.715333 
L 607.133313 -261.715333 
L 608.60913 -261.715333 
L 610.084947 -267.619555 
L 611.560763 -267.619555 
L 613.03658 -267.619555 
L 614.512397 -267.619555 
L 615.988214 -267.619555 
L 617.464031 -267.619555 
L 618.939847 -267.619555 
L 620.415664 -273.523778 
L 621.891481 -279.428 
L 623.367298 -279.428 
L 624.843115 -279.428 
L 626.318931 -279.428 
L 627.794748 -279.428 
L 629.270565 -279.428 
L 630.746382 -279.428 
L 632.222198 -279.428 
L 633.698015 -279.428 
L 635.173832 -285.332222 
L 636.649649 -285.332222 
L 638.125466 -285.332222 
L 639.601282 -285.332222 
L 641.077099 -285.332222 
L 642.552916 -285.332222 
L 644.028733 -285.332222 
L 644.028733 -291.236444 
L 644.028733 -291.236444 
L 642.552916 -291.236444 
L 641.077099 -291.236444 
L 639.601282 -291.236444 
L 638.125466 -291.236444 
L 636.649649 -291.236444 
L 635.173832 -291.236444 
L 633.698015 -291.236444 
L 632.222198 -291.236444 
L 630.746382 -291.236444 
L 629.270565 -291.236444 
L 627.794748 -291.236444 
L 626.318931 -291.236444 
L 624.843115 -291.236444 
L 623.367298 -291.236444 
L 621.891481 -291.236444 
L 620.415664 -291.236444 
L 618.939847 -291.236444 
L 617.464031 -291.236444 
L 615.988214 -291.236444 
L 614.512397 -291.236444 
L 613.03658 -291.236444 
L 611.560763 -291.236444 
L 610.084947 -291.236444 
L 608.60913 -291.236444 
L 607.133313 -291.236444 
L 605.657496 -291.236444 
L 604.181679 -291.236444 
L 602.705863 -291.236444 
L 601.230046 -291.236444 
L 599.754229 -291.236444 
L 598.278412 -291.236444 
L 596.802595 -291.236444 
L 595.326779 -291.236444 
L 593.850962 -291.236444 
L 592.375145 -291.236444 
L 590.899328 -291.236444 
L 589.423511 -291.236444 
L 587.947695 -291.236444 
L 586.471878 -291.236444 
L 584.996061 -291.236444 
L 583.520244 -291.236444 
L 582.044427 -291.236444 
L 580.568611 -291.236444 
L 579.092794 -291.236444 
L 577.616977 -291.236444 
L 576.14116 -291.236444 
L 574.665344 -291.236444 
L 573.189527 -291.236444 
L 571.71371 -291.236444 
L 570.237893 -291.236444 
L 568.762076 -291.236444 
L 567.28626 -291.236444 
L 565.810443 -291.236444 
L 564.334626 -291.236444 
L 562.858809 -291.236444 
L 561.382992 -291.236444 
L 559.907176 -291.236444 
L 558.431359 -291.236444 
L 556.955542 -291.236444 
L 555.479725 -291.236444 
L 554.003908 -291.236444 
L 552.528092 -291.236444 
L 551.052275 -291.236444 
L 549.576458 -291.236444 
L 548.100641 -291.236444 
L 546.624824 -291.236444 
L 545.149008 -291.236444 
L 543.673191 -291.236444 
L 542.197374 -291.236444 
L 540.721557 -291.236444 
L 539.24574 -291.236444 
L 537.769924 -291.236444 
L 536.294107 -291.236444 
L 534.81829 -291.236444 
L 533.342473 -291.236444 
L 531.866656 -291.236444 
L 530.39084 -291.236444 
L 528.915023 -291.236444 
L 527.439206 -291.236444 
L 525.963389 -291.236444 
L 524.487573 -291.236444 
L 523.011756 -291.236444 
L 521.535939 -291.236444 
L 520.060122 -291.236444 
L 518.584305 -291.236444 
L 517.108489 -291.236444 
L 515.632672 -291.236444 
L 514.156855 -291.236444 
L 512.681038 -291.236444 
L 511.205221 -291.236444 
L 509.729405 -291.236444 
L 508.253588 -291.236444 
L 506.777771 -291.236444 
L 505.301954 -291.236444 
L 503.826137 -291.236444 
L 502.350321 -291.236444 
L 500.874504 -291.236444 
L 499.398687 -291.236444 
L 497.92287 -291.236444 
L 496.447053 -291.236444 
L 494.971237 -291.236444 
L 493.49542 -291.236444 
L 492.019603 -291.236444 
L 490.543786 -291.236444 
L 489.067969 -291.236444 
L 487.592153 -291.236444 
L 486.116336 -291.236444 
L 484.640519 -291.236444 
L 483.164702 -291.236444 
L 481.688885 -291.236444 
L 480.213069 -291.236444 
L 478.737252 -291.236444 
L 477.261435 -291.236444 
L 475.785618 -291.236444 
L 474.309802 -291.236444 
L 472.833985 -291.236444 
L 471.358168 -291.236444 
L 469.882351 -291.236444 
L 468.406534 -285.332222 
L 466.930718 -285.332222 
L 465.454901 -285.332222 
L 463.979084 -285.332222 
L 462.503267 -279.428 
L 461.02745 -279.428 
L 459.551634 -279.428 
L 458.075817 -273.523778 
L 456.6 -273.523778 
L 455.124183 -273.523778 
L 453.648366 -273.523778 
L 452.17255 -273.523778 
L 450.696733 -273.523778 
L 449.220916 -273.523778 
L 447.745099 -273.523778 
L 446.269282 -273.523778 
L 444.793466 -273.523778 
L 443.317649 -266.037524 
L 441.841832 -266.037524 
L 440.366015 -266.037524 
L 438.890198 -266.037524 
L 437.414382 -264.257106 
L 435.938565 -264.257106 
L 434.462748 -264.257106 
L 432.986931 -264.257106 
L 431.511115 -264.257106 
L 430.035298 -262.832735 
L 428.559481 -262.832735 
L 427.083664 -262.832735 
L 425.607847 -255.526024 
L 424.132031 -255.526024 
L 422.656214 -252.693446 
L 421.180397 -267.210556 
L 419.70458 -267.210556 
L 418.228763 -267.210556 
L 416.752947 -267.210556 
L 415.27713 -267.210556 
L 413.801313 -267.210556 
L 412.325496 -267.210556 
L 410.849679 -267.210556 
L 409.373863 -266.730641 
L 407.898046 -266.730641 
L 406.422229 -266.730641 
L 404.946412 -266.730641 
L 403.470595 -266.730641 
L 401.994779 -266.730641 
L 400.518962 -266.730641 
L 399.043145 -266.730641 
L 397.567328 -266.730641 
L 396.091511 -266.730641 
L 394.615695 -266.730641 
L 393.139878 -266.730641 
L 391.664061 -265.93784 
L 390.188244 -265.233244 
L 388.712427 -265.233244 
L 387.236611 -265.716903 
L 385.760794 -264.035512 
L 384.284977 -264.035512 
L 382.80916 -264.035512 
L 381.333344 -264.035512 
L 379.857527 -264.035512 
L 378.38171 -264.035512 
L 376.905893 -264.035512 
L 375.430076 -264.035512 
L 373.95426 -264.035512 
L 372.478443 -264.035512 
L 371.002626 -264.035512 
L 369.526809 -264.035512 
L 368.050992 -264.035512 
L 366.575176 -263.65056 
L 365.099359 -262.442364 
L 363.623542 -261.31493 
L 362.147725 -273.231373 
L 360.671908 -272.089291 
L 359.196092 -270.070629 
L 357.720275 -269.200628 
L 356.244458 -268.133919 
L 354.768641 -268.133919 
L 353.292824 -267.118225 
L 351.817008 -262.748161 
L 350.341191 -259.779901 
L 348.865374 -258.94241 
L 347.389557 -258.274472 
L 345.91374 -257.598766 
L 344.437924 -257.598766 
L 342.962107 -257.088578 
L 341.48629 -256.453839 
L 340.010473 -256.453839 
L 338.534656 -255.054239 
L 337.05884 -254.229079 
L 335.583023 -254.229079 
L 334.107206 -253.456754 
L 332.631389 -252.859 
L 331.155573 -251.447608 
L 329.679756 -250.904973 
L 328.203939 -248.398337 
L 326.728122 -247.024789 
L 325.252305 -246.658228 
L 323.776489 -245.01326 
L 322.300672 -245.01326 
L 320.824855 -244.744748 
L 319.349038 -241.372708 
L 317.873221 -241.372708 
L 316.397405 -241.372708 
L 314.921588 -240.634258 
L 313.445771 -240.634258 
L 311.969954 -240.634258 
L 310.494137 -240.634258 
L 309.018321 -240.634258 
L 307.542504 -240.634258 
L 306.066687 -239.889083 
L 304.59087 -239.889083 
L 303.115053 -238.648424 
L 301.639237 -238.648424 
L 300.16342 -238.648424 
L 298.687603 -238.648424 
L 297.211786 -242.342231 
L 295.735969 -242.342231 
L 294.260153 -242.342231 
L 292.784336 -240.509179 
L 291.308519 -243.167288 
L 289.832702 -243.167288 
L 288.356885 -242.530515 
L 286.881069 -241.774266 
L 285.405252 -241.376321 
L 283.929435 -240.521153 
L 282.453618 -240.521153 
L 280.977802 -240.357231 
L 279.501985 -240.357231 
L 278.026168 -239.951372 
L 276.550351 -241.164089 
L 275.074534 -241.164089 
L 273.598718 -240.836545 
L 272.122901 -240.530076 
L 270.647084 -240.530076 
L 269.171267 -239.008013 
L 267.69545 -238.460751 
L 266.219634 -238.074976 
L 264.743817 -237.640497 
L 263.268 -237.640497 
L 261.792183 -237.10838 
L 260.316366 -236.078174 
L 258.84055 -235.709862 
L 257.364733 -234.573983 
L 255.888916 -233.470465 
L 254.413099 -232.690024 
L 252.937282 -230.487762 
L 251.461466 -229.776323 
L 249.985649 -229.469798 
L 248.509832 -229.469798 
L 247.034015 -228.7919 
L 245.558198 -227.708287 
L 244.082382 -225.204946 
L 242.606565 -224.64653 
L 241.130748 -224.304327 
L 239.654931 -223.084478 
L 238.179115 -222.075967 
L 236.703298 -221.356257 
L 235.227481 -220.202889 
L 233.751664 -219.273545 
L 232.275847 -219.273545 
L 230.800031 -218.881594 
L 229.324214 -218.130298 
L 227.848397 -217.279796 
L 226.37258 -216.203081 
L 224.896763 -215.042296 
L 223.420947 -214.330199 
L 221.94513 -213.535543 
L 220.469313 -212.410527 
L 218.993496 -212.410527 
L 217.517679 -210.808295 
L 216.041863 -209.598265 
L 214.566046 -208.577333 
L 213.090229 -206.988309 
L 211.614412 -206.569109 
L 210.138595 -205.751268 
L 208.662779 -205.146928 
L 207.186962 -201.637089 
L 205.711145 -201.17691 
L 204.235328 -200.855163 
L 202.759511 -200.625412 
L 201.283695 -200.475142 
L 199.807878 -199.874673 
L 198.332061 -199.656096 
L 196.856244 -198.918721 
L 195.380427 -198.240075 
L 193.904611 -196.953159 
L 192.428794 -196.953159 
L 190.952977 -196.533029 
L 189.47716 -195.686831 
L 188.001344 -196.064055 
L 186.525527 -194.987589 
L 185.04971 -194.496056 
L 183.573893 -194.797396 
L 182.098076 -194.15521 
L 180.62226 -192.829322 
L 179.146443 -192.829322 
L 177.670626 -191.904438 
L 176.194809 -190.555269 
L 174.718992 -190.007393 
L 173.243176 -189.577778 
L 171.767359 -189.366506 
L 170.291542 -188.882085 
L 168.815725 -188.517243 
L 167.339908 -187.967271 
L 165.864092 -187.476195 
L 164.388275 -186.941224 
L 162.912458 -187.447359 
L 161.436641 -186.216779 
L 159.960824 -185.939792 
L 158.485008 -185.352836 
L 157.009191 -183.735442 
L 155.533374 -183.511376 
L 154.057557 -181.850859 
L 152.58174 -181.021569 
L 151.105924 -180.466152 
L 149.630107 -179.818202 
L 148.15429 -179.174502 
L 146.678473 -178.535225 
L 145.202656 -177.15025 
L 143.72684 -176.120879 
L 142.251023 -175.114563 
L 140.775206 -174.284622 
L 139.299389 -172.454241 
L 137.823573 -171.920434 
L 136.347756 -170.192652 
L 134.871939 -168.713322 
L 133.396122 -167.138511 
L 131.920305 -165.711407 
L 130.444489 -164.635758 
L 128.968672 -164.082582 
L 127.492855 -162.64315 
L 126.017038 -162.455743 
L 124.541221 -161.566099 
L 123.065405 -160.343856 
L 121.589588 -159.138997 
L 120.113771 -157.936135 
L 118.637954 -157.170518 
L 117.162137 -156.348063 
L 115.686321 -155.481705 
L 114.210504 -154.402294 
L 112.734687 -153.124395 
L 111.25887 -151.525543 
L 109.783053 -150.143799 
L 108.307237 -149.106843 
L 106.83142 -147.55987 
L 105.355603 -146.477472 
L 103.879786 -145.050592 
L 102.403969 -144.238754 
L 100.928153 -142.568143 
L 99.452336 -141.149017 
L 97.976519 -139.302794 
L 96.500702 -137.44571 
L 95.024885 -136.315262 
L 93.549069 -134.808782 
L 92.073252 -132.79192 
L 90.597435 -131.764533 
L 89.121618 -130.157146 
L 87.645802 -128.554674 
L 86.169985 -126.953618 
L 84.694168 -125.310379 
L 83.218351 -123.810155 
L 81.742534 -121.590959 
L 80.266718 -118.584205 
L 78.790901 -115.549275 
L 77.315084 -113.062452 
L 75.839267 -110.852564 
L 74.36345 -108.428444 
L 72.887634 -105.612271 
L 71.411817 -101.3862 
L 69.936 -96.397111 
z
" id="md991d181cd" style="stroke:#cfeafe;stroke-opacity:0.1;stroke-width:0.8;"/>
    </defs>
    <g clip-path="url(#p2a8eed7c4b)">
     <use style="fill:#cfeafe;fill-opacity:0.1;stroke:#cfeafe;stroke-opacity:0.1;stroke-width:0.8;" x="0" xlink:href="#md991d181cd" y="360"/>
    </g>
   </g>
   <g id="line2d_12">
    <path clip-path="url(#p2a8eed7c4b)" d="M 69.936 263.675781 
L 71.411817 258.879511 
L 72.887634 254.783924 
L 74.36345 252.02153 
L 75.839267 249.67498 
L 77.315084 247.555516 
L 78.790901 245.057576 
L 81.742534 239.153353 
L 83.218351 236.918872 
L 90.597435 229.175452 
L 92.073252 228.177556 
L 93.549069 226.181762 
L 95.024885 224.768075 
L 96.500702 223.68702 
L 99.452336 219.962986 
L 100.928153 218.605559 
L 102.403969 216.931418 
L 103.879786 216.178652 
L 105.355603 214.845441 
L 106.83142 213.810615 
L 108.307237 212.334559 
L 109.783053 211.365533 
L 111.25887 210.057701 
L 112.734687 208.496815 
L 114.210504 207.19648 
L 115.686321 206.142155 
L 120.113771 203.750283 
L 124.541221 200.343365 
L 126.017038 199.517477 
L 127.492855 199.284553 
L 128.968672 198.00042 
L 130.444489 197.4756 
L 131.920305 196.557166 
L 136.347756 192.349662 
L 137.823573 190.784148 
L 139.299389 190.30413 
L 140.775206 188.471661 
L 142.251023 187.586028 
L 145.202656 185.51955 
L 146.678473 184.274365 
L 152.58174 181.85212 
L 154.057557 181.095168 
L 155.533374 179.545409 
L 157.009191 179.348042 
L 158.485008 177.663654 
L 159.960824 177.00763 
L 161.436641 176.679617 
L 162.912458 175.531574 
L 164.388275 175.883016 
L 168.815725 174.364787 
L 170.291542 174.027403 
L 171.767359 173.521327 
L 173.243176 173.352635 
L 174.718992 173.015251 
L 176.194809 172.509175 
L 177.670626 171.282323 
L 179.146443 170.387744 
L 180.62226 170.387744 
L 182.098076 169.135333 
L 183.573893 168.41967 
L 185.04971 168.754416 
L 186.525527 168.18304 
L 188.001344 167.040287 
L 189.47716 167.364067 
L 190.952977 166.576837 
L 192.428794 166.183222 
L 193.904611 166.183222 
L 195.380427 165.063456 
L 198.332061 163.863706 
L 199.807878 163.652841 
L 201.283695 163.020246 
L 205.711145 162.356412 
L 207.186962 161.919062 
L 208.662779 158.310926 
L 210.138595 157.818908 
L 211.614412 157.08088 
L 213.090229 156.588861 
L 214.566046 155.112806 
L 216.041863 154.128769 
L 218.993496 151.691041 
L 220.469313 151.691041 
L 221.94513 150.617546 
L 224.896763 149.544051 
L 227.848397 147.767672 
L 229.324214 146.924212 
L 230.800031 146.404078 
L 232.275847 146.108867 
L 233.751664 146.108867 
L 236.703298 144.27545 
L 238.179115 143.653953 
L 239.654931 142.721708 
L 241.130748 141.478714 
L 242.606565 141.167965 
L 244.082382 140.546468 
L 245.558198 138.302173 
L 248.509832 136.835765 
L 249.985649 136.835765 
L 251.461466 136.488458 
L 252.937282 135.793843 
L 254.413099 133.71 
L 255.888916 132.971972 
L 258.84055 130.757889 
L 260.316366 130.388875 
L 261.792183 129.773852 
L 263.268 129.380237 
L 264.743817 129.380237 
L 269.171267 128.199393 
L 270.647084 126.624934 
L 272.122901 126.624934 
L 275.074534 125.837704 
L 276.550351 125.837704 
L 278.026168 127.384048 
L 279.501985 126.962318 
L 280.977802 126.962318 
L 282.453618 126.540587 
L 283.929435 126.540587 
L 286.881069 125.534923 
L 288.356885 124.626581 
L 289.832702 124.17241 
L 291.308519 124.17241 
L 292.784336 127.26903 
L 294.260153 126.624934 
L 297.211786 126.624934 
L 298.687603 130.429877 
L 303.115053 130.429877 
L 304.59087 129.117827 
L 306.066687 129.117827 
L 307.542504 128.461803 
L 314.921588 128.461803 
L 316.397405 127.805778 
L 319.349038 127.805778 
L 320.824855 124.853667 
L 322.300672 124.115639 
L 323.776489 124.115639 
L 325.252305 122.639584 
L 328.203939 121.163528 
L 329.679756 118.949445 
L 335.583023 115.997334 
L 337.05884 115.997334 
L 340.010473 114.521278 
L 341.48629 114.521278 
L 344.437924 113.045222 
L 345.91374 113.045222 
L 350.341191 110.831139 
L 351.817008 108.617056 
L 353.292824 105.87581 
L 354.768641 105.032349 
L 356.244458 105.032349 
L 359.196092 103.345429 
L 360.671908 101.658508 
L 362.147725 100.815048 
L 363.623542 110.093111 
L 368.050992 107.141 
L 385.760794 107.141 
L 387.236611 106.156963 
L 388.712427 108.912267 
L 390.188244 108.912267 
L 393.139878 106.550578 
L 409.373863 106.550578 
L 410.849679 105.369734 
L 421.180397 105.369734 
L 422.656214 115.997334 
L 424.132031 114.521278 
L 425.607847 114.521278 
L 427.083664 108.125037 
L 430.035298 108.125037 
L 431.511115 106.156963 
L 437.414382 106.156963 
L 438.890198 104.188889 
L 444.793466 104.188889 
L 447.745099 98.284667 
L 458.075817 98.284667 
L 459.551634 95.332556 
L 462.503267 95.332556 
L 465.454901 89.428334 
L 468.406534 89.428334 
L 469.882351 86.476222 
L 604.181679 86.476222 
L 605.657496 83.524111 
L 608.60913 83.524111 
L 610.084947 80.572 
L 618.939847 80.572 
L 621.891481 74.667778 
L 633.698015 74.667778 
L 635.173832 71.715667 
L 644.028733 71.715667 
L 645.50455 74.667778 
L 760.61826 74.667778 
L 762.094076 68.763556 
L 765.04571 68.763556 
L 766.521527 62.859334 
L 778.328061 62.859334 
L 779.803878 56.955111 
L 825.554198 56.955111 
L 827.030015 51.050889 
L 843.264 51.050889 
L 843.264 51.050889 
" style="fill:none;stroke:#82cafc;stroke-linecap:round;stroke-width:2;"/>
   </g>
   <g id="patch_3">
    <path d="M 69.936 293.124 
L 69.936 40.416 
" style="fill:none;stroke:#9d9d9d;stroke-linecap:square;stroke-linejoin:miter;stroke-width:0.6;"/>
   </g>
   <g id="patch_4">
    <path d="M 843.264 293.124 
L 843.264 40.416 
" style="fill:none;stroke:#9d9d9d;stroke-linecap:square;stroke-linejoin:miter;stroke-width:0.6;"/>
   </g>
   <g id="patch_5">
    <path d="M 69.936 293.124 
L 843.264 293.124 
" style="fill:none;stroke:#9d9d9d;stroke-linecap:square;stroke-linejoin:miter;stroke-width:0.6;"/>
   </g>
   <g id="patch_6">
    <path d="M 69.936 40.416 
L 843.264 40.416 
" style="fill:none;stroke:#9d9d9d;stroke-linecap:square;stroke-linejoin:miter;stroke-width:0.6;"/>
   </g>
   <g id="text_14">
    <!-- Game progress averaged over 81 players -->
    <g style="fill:#262626;" transform="translate(279.4545 34.416)scale(0.192 -0.192)">
     <defs>
      <path d="M 41.21875 28.078125 
L 41.21875 36.46875 
L 71.53125 36.53125 
L 71.53125 9.96875 
Q 64.546875 4.390625 57.125 1.578125 
Q 49.703125 -1.21875 41.890625 -1.21875 
Q 31.34375 -1.21875 22.71875 3.296875 
Q 14.109375 7.8125 9.71875 16.359375 
Q 5.328125 24.90625 5.328125 35.453125 
Q 5.328125 45.90625 9.6875 54.953125 
Q 14.0625 64.015625 22.265625 68.40625 
Q 30.46875 72.796875 41.15625 72.796875 
Q 48.921875 72.796875 55.1875 70.28125 
Q 61.46875 67.78125 65.03125 63.28125 
Q 68.609375 58.796875 70.453125 51.5625 
L 61.921875 49.21875 
Q 60.296875 54.6875 57.90625 57.8125 
Q 55.515625 60.9375 51.0625 62.8125 
Q 46.625 64.703125 41.21875 64.703125 
Q 34.71875 64.703125 29.984375 62.71875 
Q 25.25 60.75 22.34375 57.515625 
Q 19.4375 54.296875 17.828125 50.4375 
Q 15.09375 43.796875 15.09375 36.03125 
Q 15.09375 26.46875 18.390625 20.015625 
Q 21.6875 13.578125 27.984375 10.453125 
Q 34.28125 7.328125 41.359375 7.328125 
Q 47.515625 7.328125 53.375 9.6875 
Q 59.234375 12.0625 62.25 14.75 
L 62.25 28.078125 
z
" id="ArialMT-71"/>
      <path d="M 6.59375 0 
L 6.59375 51.859375 
L 14.453125 51.859375 
L 14.453125 44.578125 
Q 16.890625 48.390625 20.9375 50.703125 
Q 25 53.03125 30.171875 53.03125 
Q 35.9375 53.03125 39.625 50.640625 
Q 43.3125 48.25 44.828125 43.953125 
Q 50.984375 53.03125 60.84375 53.03125 
Q 68.5625 53.03125 72.703125 48.75 
Q 76.859375 44.484375 76.859375 35.59375 
L 76.859375 0 
L 68.109375 0 
L 68.109375 32.671875 
Q 68.109375 37.9375 67.25 40.25 
Q 66.40625 42.578125 64.15625 43.984375 
Q 61.921875 45.40625 58.890625 45.40625 
Q 53.421875 45.40625 49.796875 41.765625 
Q 46.1875 38.140625 46.1875 30.125 
L 46.1875 0 
L 37.40625 0 
L 37.40625 33.6875 
Q 37.40625 39.546875 35.25 42.46875 
Q 33.109375 45.40625 28.21875 45.40625 
Q 24.515625 45.40625 21.359375 43.453125 
Q 18.21875 41.5 16.796875 37.734375 
Q 15.375 33.984375 15.375 26.90625 
L 15.375 0 
z
" id="ArialMT-109"/>
      <path d="M 6.59375 -19.875 
L 6.59375 51.859375 
L 14.59375 51.859375 
L 14.59375 45.125 
Q 17.4375 49.078125 21 51.046875 
Q 24.5625 53.03125 29.640625 53.03125 
Q 36.28125 53.03125 41.359375 49.609375 
Q 46.4375 46.1875 49.015625 39.953125 
Q 51.609375 33.734375 51.609375 26.3125 
Q 51.609375 18.359375 48.75 11.984375 
Q 45.90625 5.609375 40.453125 2.21875 
Q 35.015625 -1.171875 29 -1.171875 
Q 24.609375 -1.171875 21.109375 0.6875 
Q 17.625 2.546875 15.375 5.375 
L 15.375 -19.875 
z
M 14.546875 25.640625 
Q 14.546875 15.625 18.59375 10.84375 
Q 22.65625 6.0625 28.421875 6.0625 
Q 34.28125 6.0625 38.453125 11.015625 
Q 42.625 15.96875 42.625 26.375 
Q 42.625 36.28125 38.546875 41.203125 
Q 34.46875 46.140625 28.8125 46.140625 
Q 23.1875 46.140625 18.859375 40.890625 
Q 14.546875 35.640625 14.546875 25.640625 
z
" id="ArialMT-112"/>
      <path d="M 4.984375 -4.296875 
L 13.53125 -5.5625 
Q 14.0625 -9.515625 16.5 -11.328125 
Q 19.78125 -13.765625 25.4375 -13.765625 
Q 31.546875 -13.765625 34.859375 -11.328125 
Q 38.1875 -8.890625 39.359375 -4.5 
Q 40.046875 -1.8125 39.984375 6.78125 
Q 34.234375 0 25.640625 0 
Q 14.9375 0 9.078125 7.71875 
Q 3.21875 15.4375 3.21875 26.21875 
Q 3.21875 33.640625 5.90625 39.90625 
Q 8.59375 46.1875 13.6875 49.609375 
Q 18.796875 53.03125 25.6875 53.03125 
Q 34.859375 53.03125 40.828125 45.609375 
L 40.828125 51.859375 
L 48.921875 51.859375 
L 48.921875 7.03125 
Q 48.921875 -5.078125 46.453125 -10.125 
Q 44 -15.1875 38.640625 -18.109375 
Q 33.296875 -21.046875 25.484375 -21.046875 
Q 16.21875 -21.046875 10.5 -16.875 
Q 4.78125 -12.703125 4.984375 -4.296875 
z
M 12.25 26.859375 
Q 12.25 16.65625 16.296875 11.96875 
Q 20.359375 7.28125 26.46875 7.28125 
Q 32.515625 7.28125 36.609375 11.9375 
Q 40.71875 16.609375 40.71875 26.5625 
Q 40.71875 36.078125 36.5 40.90625 
Q 32.28125 45.75 26.3125 45.75 
Q 20.453125 45.75 16.34375 40.984375 
Q 12.25 36.234375 12.25 26.859375 
z
" id="ArialMT-103"/>
      <path d="M 40.234375 0 
L 40.234375 6.546875 
Q 35.296875 -1.171875 25.734375 -1.171875 
Q 19.53125 -1.171875 14.328125 2.25 
Q 9.125 5.671875 6.265625 11.796875 
Q 3.421875 17.921875 3.421875 25.875 
Q 3.421875 33.640625 6 39.96875 
Q 8.59375 46.296875 13.765625 49.65625 
Q 18.953125 53.03125 25.34375 53.03125 
Q 30.03125 53.03125 33.6875 51.046875 
Q 37.359375 49.078125 39.65625 45.90625 
L 39.65625 71.578125 
L 48.390625 71.578125 
L 48.390625 0 
z
M 12.453125 25.875 
Q 12.453125 15.921875 16.640625 10.984375 
Q 20.84375 6.0625 26.5625 6.0625 
Q 32.328125 6.0625 36.34375 10.765625 
Q 40.375 15.484375 40.375 25.140625 
Q 40.375 35.796875 36.265625 40.765625 
Q 32.171875 45.75 26.171875 45.75 
Q 20.3125 45.75 16.375 40.96875 
Q 12.453125 36.1875 12.453125 25.875 
z
" id="ArialMT-100"/>
      <path d="M 17.671875 38.8125 
Q 12.203125 40.828125 9.5625 44.53125 
Q 6.9375 48.25 6.9375 53.421875 
Q 6.9375 61.234375 12.546875 66.546875 
Q 18.171875 71.875 27.484375 71.875 
Q 36.859375 71.875 42.578125 66.421875 
Q 48.296875 60.984375 48.296875 53.171875 
Q 48.296875 48.1875 45.671875 44.5 
Q 43.0625 40.828125 37.75 38.8125 
Q 44.34375 36.671875 47.78125 31.875 
Q 51.21875 27.09375 51.21875 20.453125 
Q 51.21875 11.28125 44.71875 5.03125 
Q 38.234375 -1.21875 27.640625 -1.21875 
Q 17.046875 -1.21875 10.546875 5.046875 
Q 4.046875 11.328125 4.046875 20.703125 
Q 4.046875 27.6875 7.59375 32.390625 
Q 11.140625 37.109375 17.671875 38.8125 
z
M 15.921875 53.71875 
Q 15.921875 48.640625 19.1875 45.40625 
Q 22.46875 42.1875 27.6875 42.1875 
Q 32.765625 42.1875 36.015625 45.375 
Q 39.265625 48.578125 39.265625 53.21875 
Q 39.265625 58.0625 35.90625 61.359375 
Q 32.5625 64.65625 27.59375 64.65625 
Q 22.5625 64.65625 19.234375 61.421875 
Q 15.921875 58.203125 15.921875 53.71875 
z
M 13.09375 20.65625 
Q 13.09375 16.890625 14.875 13.375 
Q 16.65625 9.859375 20.171875 7.921875 
Q 23.6875 6 27.734375 6 
Q 34.03125 6 38.125 10.046875 
Q 42.234375 14.109375 42.234375 20.359375 
Q 42.234375 26.703125 38.015625 30.859375 
Q 33.796875 35.015625 27.4375 35.015625 
Q 21.234375 35.015625 17.15625 30.90625 
Q 13.09375 26.8125 13.09375 20.65625 
z
" id="ArialMT-56"/>
     </defs>
     <use xlink:href="#ArialMT-71"/>
     <use x="77.783203" xlink:href="#ArialMT-97"/>
     <use x="133.398438" xlink:href="#ArialMT-109"/>
     <use x="216.699219" xlink:href="#ArialMT-101"/>
     <use x="272.314453" xlink:href="#ArialMT-32"/>
     <use x="300.097656" xlink:href="#ArialMT-112"/>
     <use x="355.712891" xlink:href="#ArialMT-114"/>
     <use x="389.013672" xlink:href="#ArialMT-111"/>
     <use x="444.628906" xlink:href="#ArialMT-103"/>
     <use x="500.244141" xlink:href="#ArialMT-114"/>
     <use x="533.544922" xlink:href="#ArialMT-101"/>
     <use x="589.160156" xlink:href="#ArialMT-115"/>
     <use x="639.160156" xlink:href="#ArialMT-115"/>
     <use x="689.160156" xlink:href="#ArialMT-32"/>
     <use x="716.943359" xlink:href="#ArialMT-97"/>
     <use x="772.558594" xlink:href="#ArialMT-118"/>
     <use x="822.558594" xlink:href="#ArialMT-101"/>
     <use x="878.173828" xlink:href="#ArialMT-114"/>
     <use x="911.474609" xlink:href="#ArialMT-97"/>
     <use x="967.089844" xlink:href="#ArialMT-103"/>
     <use x="1022.705078" xlink:href="#ArialMT-101"/>
     <use x="1078.320312" xlink:href="#ArialMT-100"/>
     <use x="1133.935547" xlink:href="#ArialMT-32"/>
     <use x="1161.71875" xlink:href="#ArialMT-111"/>
     <use x="1217.333984" xlink:href="#ArialMT-118"/>
     <use x="1267.333984" xlink:href="#ArialMT-101"/>
     <use x="1322.949219" xlink:href="#ArialMT-114"/>
     <use x="1356.25" xlink:href="#ArialMT-32"/>
     <use x="1384.033203" xlink:href="#ArialMT-56"/>
     <use x="1439.648438" xlink:href="#ArialMT-49"/>
     <use x="1495.263672" xlink:href="#ArialMT-32"/>
     <use x="1523.046875" xlink:href="#ArialMT-112"/>
     <use x="1578.662109" xlink:href="#ArialMT-108"/>
     <use x="1600.878906" xlink:href="#ArialMT-97"/>
     <use x="1656.494141" xlink:href="#ArialMT-121"/>
     <use x="1706.494141" xlink:href="#ArialMT-101"/>
     <use x="1762.109375" xlink:href="#ArialMT-114"/>
     <use x="1795.410156" xlink:href="#ArialMT-115"/>
    </g>
   </g>
  </g>
 </g>
 <defs>
  <clipPath id="p2a8eed7c4b">
   <rect height="252.708" width="773.328" x="69.936" y="40.416"/>
  </clipPath>
 </defs>
</svg>
