<?xml version="1.0" encoding="utf-8" standalone="no"?>
<!DOCTYPE svg PUBLIC "-//W3C//DTD SVG 1.1//EN"
  "http://www.w3.org/Graphics/SVG/1.1/DTD/svg11.dtd">
<!-- Created with matplotlib (https://matplotlib.org/) -->
<svg height="360pt" version="1.1" viewBox="0 0 864 360" width="864pt" xmlns="http://www.w3.org/2000/svg" xmlns:xlink="http://www.w3.org/1999/xlink">
 <metadata>
  <rdf:RDF xmlns:cc="http://creativecommons.org/ns#" xmlns:dc="http://purl.org/dc/elements/1.1/" xmlns:rdf="http://www.w3.org/1999/02/22-rdf-syntax-ns#">
   <cc:Work>
    <dc:type rdf:resource="http://purl.org/dc/dcmitype/StillImage"/>
    <dc:date>2021-08-04T17:11:00.362616</dc:date>
    <dc:format>image/svg+xml</dc:format>
    <dc:creator>
     <cc:Agent>
      <dc:title>Matplotlib v3.3.3, https://matplotlib.org/</dc:title>
     </cc:Agent>
    </dc:creator>
   </cc:Work>
  </rdf:RDF>
 </metadata>
 <defs>
  <style type="text/css">*{stroke-linecap:butt;stroke-linejoin:round;}</style>
 </defs>
 <g id="figure_1">
  <g id="patch_1">
   <path d="M 0 360 
L 864 360 
L 864 0 
L 0 0 
z
" style="fill:#ffffff;"/>
  </g>
  <g id="axes_1">
   <g id="patch_2">
    <path d="M 69.846 293.124 
L 843.264 293.124 
L 843.264 40.416 
L 69.846 40.416 
z
" style="fill:#ffffff;"/>
   </g>
   <g id="matplotlib.axis_1">
    <g id="xtick_1">
     <g id="line2d_1">
      <defs>
       <path d="M 0 0 
L 0 4.8 
" id="mc86edab0e5" style="stroke:#262626;"/>
      </defs>
      <g>
       <use style="fill:#262626;stroke:#262626;" x="69.846" xlink:href="#mc86edab0e5" y="293.124"/>
      </g>
     </g>
     <g id="text_1">
      <!-- 0 -->
      <g style="fill:#262626;" transform="translate(64.952375 314.02175)scale(0.176 -0.176)">
       <defs>
        <path d="M 4.15625 35.296875 
Q 4.15625 48 6.765625 55.734375 
Q 9.375 63.484375 14.515625 67.671875 
Q 19.671875 71.875 27.484375 71.875 
Q 33.25 71.875 37.59375 69.546875 
Q 41.9375 67.234375 44.765625 62.859375 
Q 47.609375 58.5 49.21875 52.21875 
Q 50.828125 45.953125 50.828125 35.296875 
Q 50.828125 22.703125 48.234375 14.96875 
Q 45.65625 7.234375 40.5 3 
Q 35.359375 -1.21875 27.484375 -1.21875 
Q 17.140625 -1.21875 11.234375 6.203125 
Q 4.15625 15.140625 4.15625 35.296875 
z
M 13.1875 35.296875 
Q 13.1875 17.671875 17.3125 11.828125 
Q 21.4375 6 27.484375 6 
Q 33.546875 6 37.671875 11.859375 
Q 41.796875 17.71875 41.796875 35.296875 
Q 41.796875 52.984375 37.671875 58.78125 
Q 33.546875 64.59375 27.390625 64.59375 
Q 21.34375 64.59375 17.71875 59.46875 
Q 13.1875 52.9375 13.1875 35.296875 
z
" id="ArialMT-48"/>
       </defs>
       <use xlink:href="#ArialMT-48"/>
      </g>
     </g>
    </g>
    <g id="xtick_2">
     <g id="line2d_2">
      <g>
       <use style="fill:#262626;stroke:#262626;" x="211.497648" xlink:href="#mc86edab0e5" y="293.124"/>
      </g>
     </g>
     <g id="text_2">
      <!-- 200 -->
      <g style="fill:#262626;" transform="translate(196.816773 314.02175)scale(0.176 -0.176)">
       <defs>
        <path d="M 50.34375 8.453125 
L 50.34375 0 
L 3.03125 0 
Q 2.9375 3.171875 4.046875 6.109375 
Q 5.859375 10.9375 9.828125 15.625 
Q 13.8125 20.3125 21.34375 26.46875 
Q 33.015625 36.03125 37.109375 41.625 
Q 41.21875 47.21875 41.21875 52.203125 
Q 41.21875 57.421875 37.46875 61 
Q 33.734375 64.59375 27.734375 64.59375 
Q 21.390625 64.59375 17.578125 60.78125 
Q 13.765625 56.984375 13.71875 50.25 
L 4.6875 51.171875 
Q 5.609375 61.28125 11.65625 66.578125 
Q 17.71875 71.875 27.9375 71.875 
Q 38.234375 71.875 44.234375 66.15625 
Q 50.25 60.453125 50.25 52 
Q 50.25 47.703125 48.484375 43.546875 
Q 46.734375 39.40625 42.65625 34.8125 
Q 38.578125 30.21875 29.109375 22.21875 
Q 21.1875 15.578125 18.9375 13.203125 
Q 16.703125 10.84375 15.234375 8.453125 
z
" id="ArialMT-50"/>
       </defs>
       <use xlink:href="#ArialMT-50"/>
       <use x="55.615234" xlink:href="#ArialMT-48"/>
       <use x="111.230469" xlink:href="#ArialMT-48"/>
      </g>
     </g>
    </g>
    <g id="xtick_3">
     <g id="line2d_3">
      <g>
       <use style="fill:#262626;stroke:#262626;" x="353.149297" xlink:href="#mc86edab0e5" y="293.124"/>
      </g>
     </g>
     <g id="text_3">
      <!-- 400 -->
      <g style="fill:#262626;" transform="translate(338.468422 314.02175)scale(0.176 -0.176)">
       <defs>
        <path d="M 32.328125 0 
L 32.328125 17.140625 
L 1.265625 17.140625 
L 1.265625 25.203125 
L 33.9375 71.578125 
L 41.109375 71.578125 
L 41.109375 25.203125 
L 50.78125 25.203125 
L 50.78125 17.140625 
L 41.109375 17.140625 
L 41.109375 0 
z
M 32.328125 25.203125 
L 32.328125 57.46875 
L 9.90625 25.203125 
z
" id="ArialMT-52"/>
       </defs>
       <use xlink:href="#ArialMT-52"/>
       <use x="55.615234" xlink:href="#ArialMT-48"/>
       <use x="111.230469" xlink:href="#ArialMT-48"/>
      </g>
     </g>
    </g>
    <g id="xtick_4">
     <g id="line2d_4">
      <g>
       <use style="fill:#262626;stroke:#262626;" x="494.800945" xlink:href="#mc86edab0e5" y="293.124"/>
      </g>
     </g>
     <g id="text_4">
      <!-- 600 -->
      <g style="fill:#262626;" transform="translate(480.12007 314.02175)scale(0.176 -0.176)">
       <defs>
        <path d="M 49.75 54.046875 
L 41.015625 53.375 
Q 39.84375 58.546875 37.703125 60.890625 
Q 34.125 64.65625 28.90625 64.65625 
Q 24.703125 64.65625 21.53125 62.3125 
Q 17.390625 59.28125 14.984375 53.46875 
Q 12.59375 47.65625 12.5 36.921875 
Q 15.671875 41.75 20.265625 44.09375 
Q 24.859375 46.4375 29.890625 46.4375 
Q 38.671875 46.4375 44.84375 39.96875 
Q 51.03125 33.5 51.03125 23.25 
Q 51.03125 16.5 48.125 10.71875 
Q 45.21875 4.9375 40.140625 1.859375 
Q 35.0625 -1.21875 28.609375 -1.21875 
Q 17.625 -1.21875 10.6875 6.859375 
Q 3.765625 14.9375 3.765625 33.5 
Q 3.765625 54.25 11.421875 63.671875 
Q 18.109375 71.875 29.4375 71.875 
Q 37.890625 71.875 43.28125 67.140625 
Q 48.6875 62.40625 49.75 54.046875 
z
M 13.875 23.1875 
Q 13.875 18.65625 15.796875 14.5 
Q 17.71875 10.359375 21.1875 8.171875 
Q 24.65625 6 28.46875 6 
Q 34.03125 6 38.03125 10.484375 
Q 42.046875 14.984375 42.046875 22.703125 
Q 42.046875 30.125 38.078125 34.390625 
Q 34.125 38.671875 28.125 38.671875 
Q 22.171875 38.671875 18.015625 34.390625 
Q 13.875 30.125 13.875 23.1875 
z
" id="ArialMT-54"/>
       </defs>
       <use xlink:href="#ArialMT-54"/>
       <use x="55.615234" xlink:href="#ArialMT-48"/>
       <use x="111.230469" xlink:href="#ArialMT-48"/>
      </g>
     </g>
    </g>
    <g id="xtick_5">
     <g id="line2d_5">
      <g>
       <use style="fill:#262626;stroke:#262626;" x="636.452593" xlink:href="#mc86edab0e5" y="293.124"/>
      </g>
     </g>
     <g id="text_5">
      <!-- 800 -->
      <g style="fill:#262626;" transform="translate(621.771718 314.02175)scale(0.176 -0.176)">
       <defs>
        <path d="M 17.671875 38.8125 
Q 12.203125 40.828125 9.5625 44.53125 
Q 6.9375 48.25 6.9375 53.421875 
Q 6.9375 61.234375 12.546875 66.546875 
Q 18.171875 71.875 27.484375 71.875 
Q 36.859375 71.875 42.578125 66.421875 
Q 48.296875 60.984375 48.296875 53.171875 
Q 48.296875 48.1875 45.671875 44.5 
Q 43.0625 40.828125 37.75 38.8125 
Q 44.34375 36.671875 47.78125 31.875 
Q 51.21875 27.09375 51.21875 20.453125 
Q 51.21875 11.28125 44.71875 5.03125 
Q 38.234375 -1.21875 27.640625 -1.21875 
Q 17.046875 -1.21875 10.546875 5.046875 
Q 4.046875 11.328125 4.046875 20.703125 
Q 4.046875 27.6875 7.59375 32.390625 
Q 11.140625 37.109375 17.671875 38.8125 
z
M 15.921875 53.71875 
Q 15.921875 48.640625 19.1875 45.40625 
Q 22.46875 42.1875 27.6875 42.1875 
Q 32.765625 42.1875 36.015625 45.375 
Q 39.265625 48.578125 39.265625 53.21875 
Q 39.265625 58.0625 35.90625 61.359375 
Q 32.5625 64.65625 27.59375 64.65625 
Q 22.5625 64.65625 19.234375 61.421875 
Q 15.921875 58.203125 15.921875 53.71875 
z
M 13.09375 20.65625 
Q 13.09375 16.890625 14.875 13.375 
Q 16.65625 9.859375 20.171875 7.921875 
Q 23.6875 6 27.734375 6 
Q 34.03125 6 38.125 10.046875 
Q 42.234375 14.109375 42.234375 20.359375 
Q 42.234375 26.703125 38.015625 30.859375 
Q 33.796875 35.015625 27.4375 35.015625 
Q 21.234375 35.015625 17.15625 30.90625 
Q 13.09375 26.8125 13.09375 20.65625 
z
" id="ArialMT-56"/>
       </defs>
       <use xlink:href="#ArialMT-56"/>
       <use x="55.615234" xlink:href="#ArialMT-48"/>
       <use x="111.230469" xlink:href="#ArialMT-48"/>
      </g>
     </g>
    </g>
    <g id="xtick_6">
     <g id="line2d_6">
      <g>
       <use style="fill:#262626;stroke:#262626;" x="778.104242" xlink:href="#mc86edab0e5" y="293.124"/>
      </g>
     </g>
     <g id="text_6">
      <!-- 1000 -->
      <g style="fill:#262626;" transform="translate(758.529742 314.02175)scale(0.176 -0.176)">
       <defs>
        <path d="M 37.25 0 
L 28.46875 0 
L 28.46875 56 
Q 25.296875 52.984375 20.140625 49.953125 
Q 14.984375 46.921875 10.890625 45.40625 
L 10.890625 53.90625 
Q 18.265625 57.375 23.78125 62.296875 
Q 29.296875 67.234375 31.59375 71.875 
L 37.25 71.875 
z
" id="ArialMT-49"/>
       </defs>
       <use xlink:href="#ArialMT-49"/>
       <use x="55.615234" xlink:href="#ArialMT-48"/>
       <use x="111.230469" xlink:href="#ArialMT-48"/>
       <use x="166.845703" xlink:href="#ArialMT-48"/>
      </g>
     </g>
    </g>
    <g id="text_7">
     <!-- Trial -->
     <g style="fill:#262626;" transform="translate(438.2505 335.26275)scale(0.192 -0.192)">
      <defs>
       <path d="M 25.921875 0 
L 25.921875 63.140625 
L 2.34375 63.140625 
L 2.34375 71.578125 
L 59.078125 71.578125 
L 59.078125 63.140625 
L 35.40625 63.140625 
L 35.40625 0 
z
" id="ArialMT-84"/>
       <path d="M 6.5 0 
L 6.5 51.859375 
L 14.40625 51.859375 
L 14.40625 44 
Q 17.4375 49.515625 20 51.265625 
Q 22.5625 53.03125 25.640625 53.03125 
Q 30.078125 53.03125 34.671875 50.203125 
L 31.640625 42.046875 
Q 28.421875 43.953125 25.203125 43.953125 
Q 22.3125 43.953125 20.015625 42.21875 
Q 17.71875 40.484375 16.75 37.40625 
Q 15.28125 32.71875 15.28125 27.15625 
L 15.28125 0 
z
" id="ArialMT-114"/>
       <path d="M 6.640625 61.46875 
L 6.640625 71.578125 
L 15.4375 71.578125 
L 15.4375 61.46875 
z
M 6.640625 0 
L 6.640625 51.859375 
L 15.4375 51.859375 
L 15.4375 0 
z
" id="ArialMT-105"/>
       <path d="M 40.4375 6.390625 
Q 35.546875 2.25 31.03125 0.53125 
Q 26.515625 -1.171875 21.34375 -1.171875 
Q 12.796875 -1.171875 8.203125 3 
Q 3.609375 7.171875 3.609375 13.671875 
Q 3.609375 17.484375 5.34375 20.625 
Q 7.078125 23.78125 9.890625 25.6875 
Q 12.703125 27.59375 16.21875 28.5625 
Q 18.796875 29.25 24.03125 29.890625 
Q 34.671875 31.15625 39.703125 32.90625 
Q 39.75 34.71875 39.75 35.203125 
Q 39.75 40.578125 37.25 42.78125 
Q 33.890625 45.75 27.25 45.75 
Q 21.046875 45.75 18.09375 43.578125 
Q 15.140625 41.40625 13.71875 35.890625 
L 5.125 37.0625 
Q 6.296875 42.578125 8.984375 45.96875 
Q 11.671875 49.359375 16.75 51.1875 
Q 21.828125 53.03125 28.515625 53.03125 
Q 35.15625 53.03125 39.296875 51.46875 
Q 43.453125 49.90625 45.40625 47.53125 
Q 47.359375 45.171875 48.140625 41.546875 
Q 48.578125 39.3125 48.578125 33.453125 
L 48.578125 21.734375 
Q 48.578125 9.46875 49.140625 6.21875 
Q 49.703125 2.984375 51.375 0 
L 42.1875 0 
Q 40.828125 2.734375 40.4375 6.390625 
z
M 39.703125 26.03125 
Q 34.90625 24.078125 25.34375 22.703125 
Q 19.921875 21.921875 17.671875 20.9375 
Q 15.4375 19.96875 14.203125 18.09375 
Q 12.984375 16.21875 12.984375 13.921875 
Q 12.984375 10.40625 15.640625 8.0625 
Q 18.3125 5.71875 23.4375 5.71875 
Q 28.515625 5.71875 32.46875 7.9375 
Q 36.421875 10.15625 38.28125 14.015625 
Q 39.703125 17 39.703125 22.796875 
z
" id="ArialMT-97"/>
       <path d="M 6.390625 0 
L 6.390625 71.578125 
L 15.1875 71.578125 
L 15.1875 0 
z
" id="ArialMT-108"/>
      </defs>
      <use xlink:href="#ArialMT-84"/>
      <use x="57.333984" xlink:href="#ArialMT-114"/>
      <use x="90.634766" xlink:href="#ArialMT-105"/>
      <use x="112.851562" xlink:href="#ArialMT-97"/>
      <use x="168.466797" xlink:href="#ArialMT-108"/>
     </g>
    </g>
   </g>
   <g id="matplotlib.axis_2">
    <g id="ytick_1">
     <g id="line2d_7">
      <defs>
       <path d="M 0 0 
L -4.8 0 
" id="m8cbacbb0d5" style="stroke:#262626;"/>
      </defs>
      <g>
       <use style="fill:#262626;stroke:#262626;" x="69.846" xlink:href="#m8cbacbb0d5" y="293.124"/>
      </g>
     </g>
     <g id="text_8">
      <!-- 0 -->
      <g style="fill:#262626;" transform="translate(51.75875 299.422875)scale(0.176 -0.176)">
       <use xlink:href="#ArialMT-48"/>
      </g>
     </g>
    </g>
    <g id="ytick_2">
     <g id="line2d_8">
      <g>
       <use style="fill:#262626;stroke:#262626;" x="69.846" xlink:href="#m8cbacbb0d5" y="251.508786"/>
      </g>
     </g>
     <g id="text_9">
      <!-- 10 -->
      <g style="fill:#262626;" transform="translate(41.9715 257.807661)scale(0.176 -0.176)">
       <use xlink:href="#ArialMT-49"/>
       <use x="55.615234" xlink:href="#ArialMT-48"/>
      </g>
     </g>
    </g>
    <g id="ytick_3">
     <g id="line2d_9">
      <g>
       <use style="fill:#262626;stroke:#262626;" x="69.846" xlink:href="#m8cbacbb0d5" y="209.893571"/>
      </g>
     </g>
     <g id="text_10">
      <!-- 20 -->
      <g style="fill:#262626;" transform="translate(41.9715 216.192446)scale(0.176 -0.176)">
       <use xlink:href="#ArialMT-50"/>
       <use x="55.615234" xlink:href="#ArialMT-48"/>
      </g>
     </g>
    </g>
    <g id="ytick_4">
     <g id="line2d_10">
      <g>
       <use style="fill:#262626;stroke:#262626;" x="69.846" xlink:href="#m8cbacbb0d5" y="168.278357"/>
      </g>
     </g>
     <g id="text_11">
      <!-- 30 -->
      <g style="fill:#262626;" transform="translate(41.9715 174.577232)scale(0.176 -0.176)">
       <defs>
        <path d="M 4.203125 18.890625 
L 12.984375 20.0625 
Q 14.5 12.59375 18.140625 9.296875 
Q 21.78125 6 27 6 
Q 33.203125 6 37.46875 10.296875 
Q 41.75 14.59375 41.75 20.953125 
Q 41.75 27 37.796875 30.921875 
Q 33.84375 34.859375 27.734375 34.859375 
Q 25.25 34.859375 21.53125 33.890625 
L 22.515625 41.609375 
Q 23.390625 41.5 23.921875 41.5 
Q 29.546875 41.5 34.03125 44.421875 
Q 38.53125 47.359375 38.53125 53.46875 
Q 38.53125 58.296875 35.25 61.46875 
Q 31.984375 64.65625 26.8125 64.65625 
Q 21.6875 64.65625 18.265625 61.421875 
Q 14.84375 58.203125 13.875 51.765625 
L 5.078125 53.328125 
Q 6.6875 62.15625 12.390625 67.015625 
Q 18.109375 71.875 26.609375 71.875 
Q 32.46875 71.875 37.390625 69.359375 
Q 42.328125 66.84375 44.9375 62.5 
Q 47.5625 58.15625 47.5625 53.265625 
Q 47.5625 48.640625 45.0625 44.828125 
Q 42.578125 41.015625 37.703125 38.765625 
Q 44.046875 37.3125 47.5625 32.6875 
Q 51.078125 28.078125 51.078125 21.140625 
Q 51.078125 11.765625 44.234375 5.25 
Q 37.40625 -1.265625 26.953125 -1.265625 
Q 17.53125 -1.265625 11.296875 4.34375 
Q 5.078125 9.96875 4.203125 18.890625 
z
" id="ArialMT-51"/>
       </defs>
       <use xlink:href="#ArialMT-51"/>
       <use x="55.615234" xlink:href="#ArialMT-48"/>
      </g>
     </g>
    </g>
    <g id="ytick_5">
     <g id="line2d_11">
      <g>
       <use style="fill:#262626;stroke:#262626;" x="69.846" xlink:href="#m8cbacbb0d5" y="126.663142"/>
      </g>
     </g>
     <g id="text_12">
      <!-- 40 -->
      <g style="fill:#262626;" transform="translate(41.9715 132.962017)scale(0.176 -0.176)">
       <use xlink:href="#ArialMT-52"/>
       <use x="55.615234" xlink:href="#ArialMT-48"/>
      </g>
     </g>
    </g>
    <g id="ytick_6">
     <g id="line2d_12">
      <g>
       <use style="fill:#262626;stroke:#262626;" x="69.846" xlink:href="#m8cbacbb0d5" y="85.047928"/>
      </g>
     </g>
     <g id="text_13">
      <!-- 50 -->
      <g style="fill:#262626;" transform="translate(41.9715 91.346803)scale(0.176 -0.176)">
       <defs>
        <path d="M 4.15625 18.75 
L 13.375 19.53125 
Q 14.40625 12.796875 18.140625 9.390625 
Q 21.875 6 27.15625 6 
Q 33.5 6 37.890625 10.78125 
Q 42.28125 15.578125 42.28125 23.484375 
Q 42.28125 31 38.0625 35.34375 
Q 33.84375 39.703125 27 39.703125 
Q 22.75 39.703125 19.328125 37.765625 
Q 15.921875 35.84375 13.96875 32.765625 
L 5.71875 33.84375 
L 12.640625 70.609375 
L 48.25 70.609375 
L 48.25 62.203125 
L 19.671875 62.203125 
L 15.828125 42.96875 
Q 22.265625 47.46875 29.34375 47.46875 
Q 38.71875 47.46875 45.15625 40.96875 
Q 51.609375 34.46875 51.609375 24.265625 
Q 51.609375 14.546875 45.953125 7.46875 
Q 39.0625 -1.21875 27.15625 -1.21875 
Q 17.390625 -1.21875 11.203125 4.25 
Q 5.03125 9.71875 4.15625 18.75 
z
" id="ArialMT-53"/>
       </defs>
       <use xlink:href="#ArialMT-53"/>
       <use x="55.615234" xlink:href="#ArialMT-48"/>
      </g>
     </g>
    </g>
    <g id="ytick_7">
     <g id="line2d_13">
      <g>
       <use style="fill:#262626;stroke:#262626;" x="69.846" xlink:href="#m8cbacbb0d5" y="43.432713"/>
      </g>
     </g>
     <g id="text_14">
      <!-- 60 -->
      <g style="fill:#262626;" transform="translate(41.9715 49.731588)scale(0.176 -0.176)">
       <use xlink:href="#ArialMT-54"/>
       <use x="55.615234" xlink:href="#ArialMT-48"/>
      </g>
     </g>
    </g>
    <g id="text_15">
     <!-- Inventory size -->
     <g style="fill:#262626;" transform="translate(33.9305 225.993)rotate(-90)scale(0.192 -0.192)">
      <defs>
       <path d="M 9.328125 0 
L 9.328125 71.578125 
L 18.796875 71.578125 
L 18.796875 0 
z
" id="ArialMT-73"/>
       <path d="M 6.59375 0 
L 6.59375 51.859375 
L 14.5 51.859375 
L 14.5 44.484375 
Q 20.21875 53.03125 31 53.03125 
Q 35.6875 53.03125 39.625 51.34375 
Q 43.5625 49.65625 45.515625 46.921875 
Q 47.46875 44.1875 48.25 40.4375 
Q 48.734375 37.984375 48.734375 31.890625 
L 48.734375 0 
L 39.9375 0 
L 39.9375 31.546875 
Q 39.9375 36.921875 38.90625 39.578125 
Q 37.890625 42.234375 35.28125 43.8125 
Q 32.671875 45.40625 29.15625 45.40625 
Q 23.53125 45.40625 19.453125 41.84375 
Q 15.375 38.28125 15.375 28.328125 
L 15.375 0 
z
" id="ArialMT-110"/>
       <path d="M 21 0 
L 1.265625 51.859375 
L 10.546875 51.859375 
L 21.6875 20.796875 
Q 23.484375 15.765625 25 10.359375 
Q 26.171875 14.453125 28.265625 20.21875 
L 39.796875 51.859375 
L 48.828125 51.859375 
L 29.203125 0 
z
" id="ArialMT-118"/>
       <path d="M 42.09375 16.703125 
L 51.171875 15.578125 
Q 49.03125 7.625 43.21875 3.21875 
Q 37.40625 -1.171875 28.375 -1.171875 
Q 17 -1.171875 10.328125 5.828125 
Q 3.65625 12.84375 3.65625 25.484375 
Q 3.65625 38.578125 10.390625 45.796875 
Q 17.140625 53.03125 27.875 53.03125 
Q 38.28125 53.03125 44.875 45.953125 
Q 51.46875 38.875 51.46875 26.03125 
Q 51.46875 25.25 51.421875 23.6875 
L 12.75 23.6875 
Q 13.234375 15.140625 17.578125 10.59375 
Q 21.921875 6.0625 28.421875 6.0625 
Q 33.25 6.0625 36.671875 8.59375 
Q 40.09375 11.140625 42.09375 16.703125 
z
M 13.234375 30.90625 
L 42.1875 30.90625 
Q 41.609375 37.453125 38.875 40.71875 
Q 34.671875 45.796875 27.984375 45.796875 
Q 21.921875 45.796875 17.796875 41.75 
Q 13.671875 37.703125 13.234375 30.90625 
z
" id="ArialMT-101"/>
       <path d="M 25.78125 7.859375 
L 27.046875 0.09375 
Q 23.34375 -0.6875 20.40625 -0.6875 
Q 15.625 -0.6875 12.984375 0.828125 
Q 10.359375 2.34375 9.28125 4.8125 
Q 8.203125 7.28125 8.203125 15.1875 
L 8.203125 45.015625 
L 1.765625 45.015625 
L 1.765625 51.859375 
L 8.203125 51.859375 
L 8.203125 64.703125 
L 16.9375 69.96875 
L 16.9375 51.859375 
L 25.78125 51.859375 
L 25.78125 45.015625 
L 16.9375 45.015625 
L 16.9375 14.703125 
Q 16.9375 10.9375 17.40625 9.859375 
Q 17.875 8.796875 18.921875 8.15625 
Q 19.96875 7.515625 21.921875 7.515625 
Q 23.390625 7.515625 25.78125 7.859375 
z
" id="ArialMT-116"/>
       <path d="M 3.328125 25.921875 
Q 3.328125 40.328125 11.328125 47.265625 
Q 18.015625 53.03125 27.640625 53.03125 
Q 38.328125 53.03125 45.109375 46.015625 
Q 51.90625 39.015625 51.90625 26.65625 
Q 51.90625 16.65625 48.90625 10.90625 
Q 45.90625 5.171875 40.15625 2 
Q 34.421875 -1.171875 27.640625 -1.171875 
Q 16.75 -1.171875 10.03125 5.8125 
Q 3.328125 12.796875 3.328125 25.921875 
z
M 12.359375 25.921875 
Q 12.359375 15.96875 16.703125 11.015625 
Q 21.046875 6.0625 27.640625 6.0625 
Q 34.1875 6.0625 38.53125 11.03125 
Q 42.875 16.015625 42.875 26.21875 
Q 42.875 35.84375 38.5 40.796875 
Q 34.125 45.75 27.640625 45.75 
Q 21.046875 45.75 16.703125 40.8125 
Q 12.359375 35.890625 12.359375 25.921875 
z
" id="ArialMT-111"/>
       <path d="M 6.203125 -19.96875 
L 5.21875 -11.71875 
Q 8.109375 -12.5 10.25 -12.5 
Q 13.1875 -12.5 14.9375 -11.515625 
Q 16.703125 -10.546875 17.828125 -8.796875 
Q 18.65625 -7.46875 20.515625 -2.25 
Q 20.75 -1.515625 21.296875 -0.09375 
L 1.609375 51.859375 
L 11.078125 51.859375 
L 21.875 21.828125 
Q 23.96875 16.109375 25.640625 9.8125 
Q 27.15625 15.875 29.25 21.625 
L 40.328125 51.859375 
L 49.125 51.859375 
L 29.390625 -0.875 
Q 26.21875 -9.421875 24.46875 -12.640625 
Q 22.125 -17 19.09375 -19.015625 
Q 16.0625 -21.046875 11.859375 -21.046875 
Q 9.328125 -21.046875 6.203125 -19.96875 
z
" id="ArialMT-121"/>
       <path id="ArialMT-32"/>
       <path d="M 3.078125 15.484375 
L 11.765625 16.84375 
Q 12.5 11.625 15.84375 8.84375 
Q 19.1875 6.0625 25.203125 6.0625 
Q 31.25 6.0625 34.171875 8.515625 
Q 37.109375 10.984375 37.109375 14.3125 
Q 37.109375 17.28125 34.515625 19 
Q 32.71875 20.171875 25.53125 21.96875 
Q 15.875 24.421875 12.140625 26.203125 
Q 8.40625 27.984375 6.46875 31.125 
Q 4.546875 34.28125 4.546875 38.09375 
Q 4.546875 41.546875 6.125 44.5 
Q 7.71875 47.46875 10.453125 49.421875 
Q 12.5 50.921875 16.03125 51.96875 
Q 19.578125 53.03125 23.640625 53.03125 
Q 29.734375 53.03125 34.34375 51.265625 
Q 38.96875 49.515625 41.15625 46.5 
Q 43.359375 43.5 44.1875 38.484375 
L 35.59375 37.3125 
Q 35.015625 41.3125 32.203125 43.546875 
Q 29.390625 45.796875 24.265625 45.796875 
Q 18.21875 45.796875 15.625 43.796875 
Q 13.03125 41.796875 13.03125 39.109375 
Q 13.03125 37.40625 14.109375 36.03125 
Q 15.1875 34.625 17.484375 33.6875 
Q 18.796875 33.203125 25.25 31.453125 
Q 34.578125 28.953125 38.25 27.359375 
Q 41.9375 25.78125 44.03125 22.75 
Q 46.140625 19.734375 46.140625 15.234375 
Q 46.140625 10.84375 43.578125 6.953125 
Q 41.015625 3.078125 36.171875 0.953125 
Q 31.34375 -1.171875 25.25 -1.171875 
Q 15.140625 -1.171875 9.84375 3.03125 
Q 4.546875 7.234375 3.078125 15.484375 
z
" id="ArialMT-115"/>
       <path d="M 1.953125 0 
L 1.953125 7.125 
L 34.96875 45.015625 
Q 29.34375 44.734375 25.046875 44.734375 
L 3.90625 44.734375 
L 3.90625 51.859375 
L 46.296875 51.859375 
L 46.296875 46.046875 
L 18.21875 13.140625 
L 12.796875 7.125 
Q 18.703125 7.5625 23.875 7.5625 
L 47.859375 7.5625 
L 47.859375 0 
z
" id="ArialMT-122"/>
      </defs>
      <use xlink:href="#ArialMT-73"/>
      <use x="27.783203" xlink:href="#ArialMT-110"/>
      <use x="83.398438" xlink:href="#ArialMT-118"/>
      <use x="133.398438" xlink:href="#ArialMT-101"/>
      <use x="189.013672" xlink:href="#ArialMT-110"/>
      <use x="244.628906" xlink:href="#ArialMT-116"/>
      <use x="272.412109" xlink:href="#ArialMT-111"/>
      <use x="328.027344" xlink:href="#ArialMT-114"/>
      <use x="361.328125" xlink:href="#ArialMT-121"/>
      <use x="411.328125" xlink:href="#ArialMT-32"/>
      <use x="439.111328" xlink:href="#ArialMT-115"/>
      <use x="489.111328" xlink:href="#ArialMT-105"/>
      <use x="511.328125" xlink:href="#ArialMT-122"/>
      <use x="561.328125" xlink:href="#ArialMT-101"/>
     </g>
    </g>
   </g>
   <g id="PolyCollection_1">
    <defs>
     <path d="M 69.846 -87.683607 
L 69.846 -87.598678 
L 70.554258 -91.056028 
L 71.262516 -93.98169 
L 71.970775 -95.367756 
L 72.679033 -96.688847 
L 73.387291 -98.227265 
L 74.095549 -100.263756 
L 74.803808 -102.672048 
L 75.512066 -104.59665 
L 76.220324 -105.94103 
L 76.928582 -106.793388 
L 77.636841 -108.150192 
L 78.345099 -109.085195 
L 79.053357 -110.14601 
L 79.761615 -111.377836 
L 80.469874 -112.523716 
L 81.178132 -113.731 
L 81.88639 -115.035181 
L 82.594648 -115.953086 
L 83.302907 -116.723091 
L 84.011165 -117.572863 
L 84.719423 -118.510644 
L 85.427681 -119.18746 
L 86.13594 -120.344292 
L 86.844198 -121.182128 
L 87.552456 -122.371436 
L 88.260714 -122.927209 
L 88.968973 -123.808611 
L 89.677231 -124.502274 
L 90.385489 -125.084485 
L 91.093747 -125.870377 
L 91.802005 -126.723721 
L 92.510264 -127.688969 
L 93.218522 -128.348295 
L 93.92678 -128.960981 
L 94.635038 -129.650854 
L 95.343297 -130.453762 
L 96.051555 -130.993141 
L 96.759813 -131.546269 
L 97.468071 -132.30648 
L 98.17633 -132.983938 
L 98.884588 -133.701924 
L 99.592846 -134.426487 
L 100.301104 -134.935022 
L 101.009363 -135.3434 
L 101.717621 -136.241854 
L 102.425879 -136.730836 
L 103.134137 -137.389708 
L 103.842396 -137.842186 
L 104.550654 -138.349354 
L 105.258912 -139.107885 
L 105.96717 -139.562006 
L 106.675429 -140.284216 
L 107.383687 -140.998283 
L 108.091945 -141.814215 
L 108.800203 -142.188146 
L 109.508462 -142.510093 
L 110.21672 -143.027582 
L 110.924978 -143.650477 
L 111.633236 -144.331345 
L 112.341495 -144.93054 
L 113.049753 -145.451538 
L 113.758011 -145.841481 
L 114.466269 -146.633196 
L 115.174527 -147.533072 
L 115.882786 -147.827115 
L 116.591044 -148.727983 
L 117.299302 -149.529409 
L 118.00756 -150.392835 
L 118.715819 -150.75605 
L 119.424077 -151.222826 
L 120.132335 -151.761009 
L 120.840593 -152.026685 
L 121.548852 -152.41278 
L 122.25711 -152.802429 
L 122.965368 -153.073452 
L 123.673626 -153.357117 
L 124.381885 -153.424282 
L 125.090143 -154.442201 
L 125.798401 -154.56977 
L 126.506659 -154.99512 
L 127.214918 -155.510685 
L 127.923176 -155.655124 
L 128.631434 -155.909245 
L 129.339692 -156.293707 
L 130.047951 -156.792164 
L 130.756209 -157.103105 
L 131.464467 -157.68775 
L 132.172725 -157.957162 
L 132.880984 -158.152349 
L 133.589242 -158.926407 
L 134.2975 -159.248321 
L 135.005758 -159.695397 
L 135.714016 -159.995272 
L 136.422275 -160.520164 
L 137.130533 -160.982323 
L 137.838791 -161.308898 
L 138.547049 -161.787308 
L 139.255308 -162.118279 
L 139.963566 -162.456615 
L 140.671824 -162.64945 
L 141.380082 -163.102315 
L 142.088341 -163.643253 
L 142.796599 -164.315197 
L 143.504857 -164.942579 
L 144.213115 -165.412486 
L 144.921374 -166.093641 
L 145.629632 -166.449441 
L 146.33789 -166.678386 
L 147.046148 -167.078361 
L 147.754407 -167.299223 
L 148.462665 -167.57699 
L 149.170923 -168.117347 
L 149.879181 -169.404837 
L 150.58744 -169.122302 
L 151.295698 -169.643301 
L 152.003956 -169.793714 
L 152.712214 -170.177017 
L 153.420473 -170.310213 
L 154.128731 -170.724427 
L 154.836989 -171.323266 
L 155.545247 -171.932548 
L 156.253505 -171.927154 
L 156.961764 -171.994127 
L 157.670022 -172.154798 
L 158.37828 -172.459508 
L 159.086538 -173.578047 
L 159.794797 -173.91822 
L 160.503055 -174.282316 
L 161.211313 -174.569343 
L 161.919571 -174.865405 
L 162.62783 -175.578385 
L 163.336088 -176.145353 
L 164.044346 -176.401037 
L 164.752604 -176.098518 
L 165.460863 -176.629161 
L 166.169121 -177.019451 
L 166.877379 -177.345414 
L 167.585637 -177.580118 
L 168.293896 -177.902568 
L 169.002154 -177.971796 
L 169.710412 -178.181115 
L 170.41867 -178.428205 
L 171.126929 -178.48618 
L 171.835187 -178.993139 
L 172.543445 -179.244843 
L 173.251703 -179.397491 
L 173.959962 -179.594244 
L 174.66822 -179.915652 
L 175.376478 -180.020337 
L 176.084736 -180.911431 
L 176.792995 -181.13546 
L 177.501253 -182.096929 
L 178.209511 -182.389127 
L 178.917769 -183.059221 
L 179.626027 -183.232902 
L 180.334286 -183.777926 
L 181.042544 -184.136191 
L 181.750802 -184.226618 
L 182.45906 -184.476488 
L 183.167319 -184.735331 
L 183.875577 -185.12914 
L 184.583835 -185.31153 
L 185.292093 -185.467285 
L 186.000352 -185.760567 
L 186.70861 -185.263452 
L 187.416868 -185.353868 
L 188.125126 -185.540614 
L 188.833385 -185.747549 
L 189.541643 -185.93766 
L 190.249901 -186.014349 
L 190.958159 -186.216221 
L 191.666418 -186.520989 
L 192.374676 -187.023713 
L 193.082934 -187.379095 
L 193.791192 -187.755591 
L 194.499451 -187.95416 
L 195.207709 -187.733503 
L 195.915967 -187.963715 
L 196.624225 -188.615116 
L 197.332484 -188.706781 
L 198.040742 -189.113688 
L 198.749 -189.393038 
L 199.457258 -189.873307 
L 200.165516 -189.98408 
L 200.873775 -190.199878 
L 201.582033 -190.199878 
L 202.290291 -190.314028 
L 202.998549 -190.555124 
L 203.706808 -191.051465 
L 204.415066 -191.238146 
L 205.123324 -191.34087 
L 205.831582 -191.534185 
L 206.539841 -192.087165 
L 207.248099 -192.181129 
L 207.956357 -192.447946 
L 208.664615 -192.630469 
L 209.372874 -192.81336 
L 210.081132 -193.257378 
L 210.78939 -193.598766 
L 211.497648 -193.66235 
L 212.205907 -193.82478 
L 212.914165 -194.021768 
L 213.622423 -194.12347 
L 214.330681 -194.466524 
L 215.03894 -193.822472 
L 215.747198 -193.949444 
L 216.455456 -194.350429 
L 217.163714 -194.668896 
L 217.871973 -194.776347 
L 218.580231 -194.640552 
L 219.288489 -194.757745 
L 219.996747 -194.757745 
L 220.705005 -194.943939 
L 221.413264 -194.943939 
L 222.121522 -195.444555 
L 222.82978 -195.630446 
L 223.538038 -195.699469 
L 224.246297 -195.96821 
L 224.954555 -196.074972 
L 225.662813 -196.510191 
L 226.371071 -196.735523 
L 227.07933 -196.842989 
L 227.787588 -196.842989 
L 228.495846 -197.093915 
L 229.204104 -197.215996 
L 229.912363 -197.215996 
L 230.620621 -197.215996 
L 231.328879 -197.739341 
L 232.037137 -197.869288 
L 232.745396 -197.988157 
L 233.453654 -198.185226 
L 234.161912 -198.185226 
L 234.87017 -198.185226 
L 235.578429 -198.185226 
L 236.286687 -197.679811 
L 236.994945 -197.679811 
L 237.703203 -197.679811 
L 238.411462 -197.679811 
L 239.11972 -197.901307 
L 239.827978 -197.596964 
L 240.536236 -197.80553 
L 241.244495 -197.80553 
L 241.952753 -198.114068 
L 242.661011 -198.43205 
L 243.369269 -198.014697 
L 244.077527 -198.014697 
L 244.785786 -198.140923 
L 245.494044 -197.835849 
L 246.202302 -198.088066 
L 246.91056 -197.68784 
L 247.618819 -199.204982 
L 248.327077 -199.363848 
L 249.035335 -198.788201 
L 249.743593 -198.788201 
L 250.451852 -198.788201 
L 251.16011 -198.788201 
L 251.868368 -199.082874 
L 252.576626 -200.135068 
L 253.284885 -200.281792 
L 253.993143 -200.570723 
L 254.701401 -200.855343 
L 255.409659 -200.987868 
L 256.117918 -201.10063 
L 256.826176 -201.10063 
L 257.534434 -201.323915 
L 258.242692 -201.323915 
L 258.950951 -201.655195 
L 259.659209 -201.880611 
L 260.367467 -202.139772 
L 261.075725 -202.211496 
L 261.783984 -202.211496 
L 262.492242 -202.331104 
L 263.2005 -202.869322 
L 263.908758 -203.388011 
L 264.617016 -203.388011 
L 265.325275 -203.492892 
L 266.033533 -203.492892 
L 266.741791 -203.635987 
L 267.450049 -201.84288 
L 268.158308 -201.84288 
L 268.866566 -201.956701 
L 269.574824 -202.149628 
L 270.283082 -202.270399 
L 270.991341 -202.512099 
L 271.699599 -203.907103 
L 272.407857 -203.907103 
L 273.116115 -204.053139 
L 273.824374 -204.225813 
L 274.532632 -204.225813 
L 275.24089 -204.424999 
L 275.949148 -204.617946 
L 276.657407 -204.617946 
L 277.365665 -205.049887 
L 278.073923 -205.049887 
L 278.782181 -204.688258 
L 279.49044 -204.688258 
L 280.198698 -204.688258 
L 280.906956 -204.688258 
L 281.615214 -204.688258 
L 282.323473 -204.713683 
L 283.031731 -204.713683 
L 283.739989 -205.139045 
L 284.448247 -205.139045 
L 285.156505 -205.139045 
L 285.864764 -205.139045 
L 286.573022 -205.139045 
L 287.28128 -205.356152 
L 287.989538 -205.884914 
L 288.697797 -205.884914 
L 289.406055 -206.369691 
L 290.114313 -206.369691 
L 290.822571 -206.369691 
L 291.53083 -206.369691 
L 292.239088 -206.565283 
L 292.947346 -206.565283 
L 293.655604 -206.565283 
L 294.363863 -206.565283 
L 295.072121 -207.037708 
L 295.780379 -207.037708 
L 296.488637 -207.037708 
L 297.196896 -207.037708 
L 297.905154 -207.197007 
L 298.613412 -207.197007 
L 299.32167 -207.631199 
L 300.029929 -207.631199 
L 300.738187 -207.631199 
L 301.446445 -208.058966 
L 302.154703 -208.3102 
L 302.862962 -208.447959 
L 303.57122 -208.447959 
L 304.279478 -208.849846 
L 304.987736 -209.007369 
L 305.695995 -209.007369 
L 306.404253 -209.342407 
L 307.112511 -209.342407 
L 307.820769 -209.342407 
L 308.529027 -209.00715 
L 309.237286 -209.00715 
L 309.945544 -209.164113 
L 310.653802 -211.084791 
L 311.36206 -211.084791 
L 312.070319 -211.455554 
L 312.778577 -211.996228 
L 313.486835 -212.791594 
L 314.195093 -213.106185 
L 314.903352 -214.260209 
L 315.61161 -214.260209 
L 316.319868 -214.512509 
L 317.028126 -214.512509 
L 317.736385 -214.512509 
L 318.444643 -214.932074 
L 319.152901 -214.932074 
L 319.861159 -214.932074 
L 320.569418 -214.932074 
L 321.277676 -215.19792 
L 321.985934 -215.96163 
L 322.694192 -215.96163 
L 323.402451 -215.96163 
L 324.110709 -215.96163 
L 324.818967 -215.96163 
L 325.527225 -215.96163 
L 326.235484 -216.512347 
L 326.943742 -216.512347 
L 327.652 -216.512347 
L 328.360258 -216.908982 
L 329.068516 -216.908982 
L 329.776775 -216.908982 
L 330.485033 -217.076216 
L 331.193291 -217.076216 
L 331.901549 -217.076216 
L 332.609808 -218.042639 
L 333.318066 -218.72877 
L 334.026324 -219.049208 
L 334.734582 -219.049208 
L 335.442841 -219.049208 
L 336.151099 -219.049208 
L 336.859357 -219.049208 
L 337.567615 -219.049208 
L 338.275874 -219.049208 
L 338.984132 -219.234376 
L 339.69239 -219.234376 
L 340.400648 -219.234376 
L 341.108907 -219.567477 
L 341.817165 -219.890198 
L 342.525423 -220.282325 
L 343.233681 -220.60706 
L 343.94194 -220.921175 
L 344.650198 -220.921175 
L 345.358456 -221.656871 
L 346.066714 -222.080351 
L 346.774973 -222.080351 
L 347.483231 -222.080351 
L 348.191489 -222.362723 
L 348.899747 -222.362723 
L 349.608005 -222.657852 
L 350.316264 -222.657852 
L 351.024522 -222.657852 
L 351.73278 -222.657852 
L 352.441038 -222.657852 
L 353.149297 -222.657852 
L 353.857555 -222.657852 
L 354.565813 -222.657852 
L 355.274071 -222.657852 
L 355.98233 -222.657852 
L 356.690588 -223.073595 
L 357.398846 -223.073595 
L 358.107104 -223.073595 
L 358.815363 -223.073595 
L 359.523621 -223.479775 
L 360.231879 -223.479775 
L 360.940137 -223.479775 
L 361.648396 -223.479775 
L 362.356654 -223.875986 
L 363.064912 -224.13181 
L 363.77317 -224.402359 
L 364.481429 -224.402359 
L 365.189687 -224.402359 
L 365.897945 -224.714244 
L 366.606203 -225.148283 
L 367.314462 -225.148283 
L 368.02272 -225.408136 
L 368.730978 -226.275835 
L 369.439236 -226.275835 
L 370.147495 -227.060647 
L 370.855753 -227.340234 
L 371.564011 -227.340234 
L 372.272269 -227.540961 
L 372.980527 -227.540961 
L 373.688786 -227.956659 
L 374.397044 -227.956659 
L 375.105302 -227.956659 
L 375.81356 -227.956659 
L 376.521819 -228.199609 
L 377.230077 -228.431099 
L 377.938335 -228.431099 
L 378.646593 -228.431099 
L 379.354852 -228.977612 
L 380.06311 -228.977612 
L 380.771368 -228.977612 
L 381.479626 -228.977612 
L 382.187885 -228.977612 
L 382.896143 -229.201063 
L 383.604401 -229.201063 
L 384.312659 -229.201063 
L 385.020918 -228.818623 
L 385.729176 -229.147355 
L 386.437434 -229.147355 
L 387.145692 -229.352603 
L 387.853951 -226.23037 
L 388.562209 -226.23037 
L 389.270467 -226.23037 
L 389.978725 -226.23037 
L 390.686984 -226.23037 
L 391.395242 -226.23037 
L 392.1035 -226.23037 
L 392.811758 -226.23037 
L 393.520016 -226.23037 
L 394.228275 -226.550944 
L 394.936533 -226.550944 
L 395.644791 -226.550944 
L 396.353049 -232.476449 
L 397.061308 -232.667723 
L 397.769566 -232.667723 
L 398.477824 -232.667723 
L 399.186082 -232.667723 
L 399.894341 -232.667723 
L 400.602599 -232.667723 
L 401.310857 -232.667723 
L 402.019115 -232.667723 
L 402.727374 -232.667723 
L 403.435632 -232.667723 
L 404.14389 -232.667723 
L 404.852148 -232.667723 
L 405.560407 -232.667723 
L 406.268665 -232.667723 
L 406.976923 -232.667723 
L 407.685181 -232.667723 
L 408.39344 -232.667723 
L 409.101698 -232.667723 
L 409.809956 -232.667723 
L 410.518214 -232.942887 
L 411.226473 -232.942887 
L 411.934731 -232.942887 
L 412.642989 -232.942887 
L 413.351247 -232.942887 
L 414.059505 -232.942887 
L 414.767764 -232.942887 
L 415.476022 -228.941572 
L 416.18428 -229.380875 
L 416.892538 -229.380875 
L 417.600797 -229.380875 
L 418.309055 -229.380875 
L 419.017313 -229.380875 
L 419.725571 -229.380875 
L 420.43383 -229.380875 
L 421.142088 -229.380875 
L 421.850346 -229.380875 
L 422.558604 -229.799794 
L 423.266863 -229.799794 
L 423.975121 -229.799794 
L 424.683379 -229.799794 
L 425.391637 -230.198582 
L 426.099896 -230.198582 
L 426.808154 -230.198582 
L 427.516412 -230.464951 
L 428.22467 -230.892536 
L 428.932929 -230.892536 
L 429.641187 -231.300459 
L 430.349445 -231.300459 
L 431.057703 -231.957226 
L 431.765962 -231.957226 
L 432.47422 -231.957226 
L 433.182478 -231.957226 
L 433.890736 -232.620177 
L 434.598995 -232.620177 
L 435.307253 -233.011045 
L 436.015511 -233.011045 
L 436.723769 -233.011045 
L 437.432027 -233.011045 
L 438.140286 -233.011045 
L 438.848544 -233.011045 
L 439.556802 -233.011045 
L 440.26506 -233.011045 
L 440.973319 -233.011045 
L 441.681577 -233.658355 
L 442.389835 -233.658355 
L 443.098093 -233.658355 
L 443.806352 -233.658355 
L 444.51461 -233.658355 
L 445.222868 -233.658355 
L 445.931126 -233.658355 
L 446.639385 -233.658355 
L 447.347643 -233.658355 
L 448.055901 -233.658355 
L 448.764159 -233.658355 
L 449.472418 -233.658355 
L 450.180676 -233.915482 
L 450.888934 -233.915482 
L 451.597192 -228.998489 
L 452.305451 -228.998489 
L 453.013709 -228.998489 
L 453.721967 -229.404211 
L 454.430225 -223.778689 
L 455.138484 -223.778689 
L 455.846742 -223.778689 
L 456.555 -223.778689 
L 457.263258 -223.778689 
L 457.971516 -223.778689 
L 458.679775 -223.778689 
L 459.388033 -223.778689 
L 460.096291 -223.778689 
L 460.804549 -224.626492 
L 461.512808 -224.967695 
L 462.221066 -224.967695 
L 462.929324 -224.967695 
L 463.637582 -224.967695 
L 464.345841 -224.967695 
L 465.054099 -224.967695 
L 465.762357 -224.967695 
L 466.470615 -224.967695 
L 467.178874 -224.967695 
L 467.887132 -224.967695 
L 468.59539 -224.967695 
L 469.303648 -224.967695 
L 470.011907 -224.967695 
L 470.720165 -224.967695 
L 471.428423 -224.967695 
L 472.136681 -225.277567 
L 472.84494 -225.277567 
L 473.553198 -225.277567 
L 474.261456 -225.277567 
L 474.969714 -225.602127 
L 475.677973 -225.602127 
L 476.386231 -228.542035 
L 477.094489 -228.542035 
L 477.802747 -228.542035 
L 478.511005 -228.542035 
L 479.219264 -228.542035 
L 479.927522 -228.955707 
L 480.63578 -228.955707 
L 481.344038 -228.955707 
L 482.052297 -229.332507 
L 482.760555 -229.332507 
L 483.468813 -229.332507 
L 484.177071 -229.332507 
L 484.88533 -230.361009 
L 485.593588 -230.361009 
L 486.301846 -230.361009 
L 487.010104 -230.361009 
L 487.718363 -231.353657 
L 488.426621 -231.353657 
L 489.134879 -231.353657 
L 489.843137 -231.353657 
L 490.551396 -231.353657 
L 491.259654 -231.353657 
L 491.967912 -231.353657 
L 492.67617 -231.353657 
L 493.384429 -231.353657 
L 494.092687 -231.353657 
L 494.800945 -231.353657 
L 495.509203 -231.353657 
L 496.217462 -231.353657 
L 496.92572 -231.353657 
L 497.633978 -231.353657 
L 498.342236 -231.353657 
L 499.050495 -231.353657 
L 499.758753 -232.481136 
L 500.467011 -232.481136 
L 501.175269 -232.481136 
L 501.883527 -232.481136 
L 502.591786 -232.481136 
L 503.300044 -232.481136 
L 504.008302 -232.481136 
L 504.71656 -232.481136 
L 505.424819 -232.481136 
L 506.133077 -232.481136 
L 506.841335 -232.481136 
L 507.549593 -232.481136 
L 508.257852 -232.481136 
L 508.96611 -232.481136 
L 509.674368 -232.481136 
L 510.382626 -232.481136 
L 511.090885 -232.481136 
L 511.799143 -232.481136 
L 512.507401 -232.481136 
L 513.215659 -232.481136 
L 513.923918 -232.481136 
L 514.632176 -232.481136 
L 515.340434 -232.481136 
L 516.048692 -232.481136 
L 516.756951 -232.481136 
L 517.465209 -232.481136 
L 518.173467 -232.481136 
L 518.881725 -232.815786 
L 519.589984 -232.815786 
L 520.298242 -232.815786 
L 521.0065 -232.815786 
L 521.714758 -232.815786 
L 522.423016 -232.815786 
L 523.131275 -232.815786 
L 523.839533 -233.79065 
L 524.547791 -234.664762 
L 525.256049 -235.612794 
L 525.964308 -235.612794 
L 526.672566 -243.159681 
L 527.380824 -243.159681 
L 528.089082 -243.159681 
L 528.797341 -243.159681 
L 529.505599 -243.159681 
L 530.213857 -244.518397 
L 530.922115 -246.139619 
L 531.630374 -246.407672 
L 532.338632 -246.407672 
L 533.04689 -246.407672 
L 533.755148 -246.407672 
L 534.463407 -246.407672 
L 535.171665 -246.407672 
L 535.879923 -246.63483 
L 536.588181 -246.63483 
L 537.29644 -246.63483 
L 538.004698 -247.951866 
L 538.712956 -247.951866 
L 539.421214 -247.951866 
L 540.129473 -247.951866 
L 540.837731 -247.951866 
L 541.545989 -247.951866 
L 542.254247 -249.380517 
L 542.962505 -250.569194 
L 543.670764 -251.281083 
L 544.379022 -251.281083 
L 545.08728 -251.281083 
L 545.795538 -251.281083 
L 546.503797 -251.916321 
L 547.212055 -251.916321 
L 547.920313 -253.255588 
L 548.628571 -253.255588 
L 549.33683 -253.255588 
L 550.045088 -253.255588 
L 550.753346 -253.255588 
L 551.461604 -253.416746 
L 552.169863 -253.416746 
L 552.878121 -253.416746 
L 553.586379 -253.416746 
L 554.294637 -253.554973 
L 555.002896 -253.554973 
L 555.711154 -253.554973 
L 556.419412 -253.554973 
L 557.12767 -253.554973 
L 557.835929 -253.554973 
L 558.544187 -253.554973 
L 559.252445 -253.554973 
L 559.960703 -253.554973 
L 560.668962 -253.554973 
L 561.37722 -254.224793 
L 562.085478 -254.224793 
L 562.793736 -254.224793 
L 563.501995 -254.224793 
L 564.210253 -254.224793 
L 564.918511 -254.224793 
L 565.626769 -254.224793 
L 566.335027 -254.224793 
L 567.043286 -254.224793 
L 567.751544 -254.833663 
L 568.459802 -254.833663 
L 569.16806 -254.833663 
L 569.876319 -254.833663 
L 570.584577 -254.833663 
L 571.292835 -254.833663 
L 572.001093 -255.006533 
L 572.709352 -255.006533 
L 573.41761 -255.006533 
L 574.125868 -255.006533 
L 574.834126 -255.006533 
L 575.542385 -255.006533 
L 576.250643 -255.006533 
L 576.958901 -255.006533 
L 577.667159 -255.006533 
L 578.375418 -255.006533 
L 579.083676 -255.006533 
L 579.791934 -255.006533 
L 580.500192 -255.006533 
L 581.208451 -255.006533 
L 581.916709 -255.006533 
L 582.624967 -255.006533 
L 583.333225 -255.883625 
L 584.041484 -255.883625 
L 584.749742 -255.883625 
L 585.458 -255.883625 
L 586.166258 -257.003713 
L 586.874516 -257.003713 
L 587.582775 -257.608222 
L 588.291033 -257.796917 
L 588.999291 -257.796917 
L 589.707549 -257.796917 
L 590.415808 -257.796917 
L 591.124066 -257.796917 
L 591.832324 -257.796917 
L 592.540582 -258.375539 
L 593.248841 -258.375539 
L 593.957099 -258.375539 
L 594.665357 -258.375539 
L 595.373615 -258.375539 
L 596.081874 -258.375539 
L 596.790132 -258.568673 
L 597.49839 -259.655521 
L 598.206648 -259.655521 
L 598.914907 -259.655521 
L 599.623165 -270.541057 
L 600.331423 -270.541057 
L 601.039681 -270.541057 
L 601.74794 -271.382577 
L 602.456198 -271.382577 
L 603.164456 -273.52417 
L 603.872714 -273.52417 
L 604.580973 -273.52417 
L 605.289231 -273.52417 
L 605.997489 -273.52417 
L 606.705747 -274.826653 
L 607.414005 -274.826653 
L 608.122264 -274.826653 
L 608.830522 -274.826653 
L 609.53878 -274.826653 
L 610.247038 -274.826653 
L 610.955297 -274.826653 
L 611.663555 -274.826653 
L 612.371813 -274.826653 
L 613.080071 -274.826653 
L 613.78833 -274.826653 
L 614.496588 -274.826653 
L 615.204846 -274.826653 
L 615.913104 -274.826653 
L 616.621363 -274.826653 
L 617.329621 -274.826653 
L 618.037879 -274.826653 
L 618.746137 -274.826653 
L 619.454396 -274.826653 
L 620.162654 -274.826653 
L 620.870912 -274.826653 
L 621.57917 -274.826653 
L 622.287429 -274.826653 
L 622.995687 -274.826653 
L 623.703945 -274.826653 
L 624.412203 -274.826653 
L 625.120462 -274.826653 
L 625.82872 -276.039841 
L 626.536978 -276.039841 
L 627.245236 -276.039841 
L 627.953495 -276.039841 
L 628.661753 -276.039841 
L 629.370011 -276.039841 
L 630.078269 -276.039841 
L 630.786527 -276.039841 
L 631.494786 -276.039841 
L 632.203044 -276.039841 
L 632.911302 -276.039841 
L 633.61956 -276.039841 
L 634.327819 -276.039841 
L 635.036077 -276.039841 
L 635.744335 -276.039841 
L 636.452593 -276.039841 
L 637.160852 -276.039841 
L 637.86911 -276.039841 
L 638.577368 -276.039841 
L 639.285626 -276.039841 
L 639.993885 -276.039841 
L 640.702143 -276.039841 
L 641.410401 -276.039841 
L 642.118659 -276.039841 
L 642.826918 -276.039841 
L 643.535176 -276.039841 
L 644.243434 -276.039841 
L 644.951692 -276.039841 
L 645.659951 -276.783339 
L 646.368209 -276.783339 
L 647.076467 -276.783339 
L 647.784725 -276.783339 
L 648.492984 -276.783339 
L 649.201242 -276.783339 
L 649.9095 -277.932212 
L 650.617758 -277.932212 
L 651.326016 -277.932212 
L 652.034275 -277.932212 
L 652.742533 -277.932212 
L 653.450791 -277.932212 
L 654.159049 -277.932212 
L 654.867308 -277.932212 
L 655.575566 -277.932212 
L 656.283824 -277.932212 
L 656.992082 -277.932212 
L 657.700341 -277.932212 
L 658.408599 -277.932212 
L 659.116857 -277.932212 
L 659.825115 -269.558471 
L 660.533374 -269.558471 
L 661.241632 -269.558471 
L 661.94989 -269.558471 
L 662.658148 -269.558471 
L 663.366407 -269.558471 
L 664.074665 -269.558471 
L 664.782923 -269.558471 
L 665.491181 -269.558471 
L 666.19944 -269.558471 
L 666.907698 -269.558471 
L 667.615956 -269.558471 
L 668.324214 -269.558471 
L 669.032473 -269.558471 
L 669.740731 -269.558471 
L 670.448989 -269.558471 
L 671.157247 -269.558471 
L 671.865505 -269.558471 
L 672.573764 -269.558471 
L 673.282022 -269.558471 
L 673.99028 -269.558471 
L 674.698538 -269.558471 
L 675.406797 -269.558471 
L 676.115055 -269.558471 
L 676.823313 -269.558471 
L 677.531571 -269.558471 
L 678.23983 -269.558471 
L 678.948088 -269.558471 
L 679.656346 -269.558471 
L 680.364604 -269.558471 
L 681.072863 -269.558471 
L 681.781121 -269.558471 
L 682.489379 -269.558471 
L 683.197637 -269.558471 
L 683.905896 -269.558471 
L 684.614154 -269.558471 
L 685.322412 -269.558471 
L 686.03067 -269.558471 
L 686.738929 -269.558471 
L 687.447187 -269.558471 
L 688.155445 -269.558471 
L 688.863703 -269.558471 
L 689.571962 -269.558471 
L 690.28022 -269.558471 
L 690.988478 -269.558471 
L 691.696736 -269.558471 
L 692.404995 -272.264764 
L 693.113253 -274.952072 
L 693.821511 -274.952072 
L 694.529769 -274.952072 
L 695.238027 -274.952072 
L 695.946286 -274.952072 
L 696.654544 -274.952072 
L 697.362802 -274.952072 
L 698.07106 -274.952072 
L 698.779319 -274.952072 
L 699.487577 -274.952072 
L 700.195835 -274.952072 
L 700.904093 -274.952072 
L 701.612352 -274.952072 
L 702.32061 -274.952072 
L 703.028868 -277.611614 
L 703.737126 -280.22867 
L 704.445385 -280.22867 
L 705.153643 -280.22867 
L 705.861901 -281.773135 
L 706.570159 -281.773135 
L 707.278418 -281.773135 
L 707.986676 -281.773135 
L 708.694934 -281.773135 
L 709.403192 -281.773135 
L 710.111451 -281.773135 
L 710.819709 -281.773135 
L 711.527967 -281.773135 
L 712.236225 -281.773135 
L 712.944484 -281.773135 
L 713.652742 -281.773135 
L 714.361 -284.390192 
L 715.069258 -284.390192 
L 715.777516 -284.547483 
L 716.485775 -284.662289 
L 717.194033 -284.662289 
L 717.902291 -284.662289 
L 718.610549 -284.662289 
L 719.318808 -284.662289 
L 720.027066 -284.662289 
L 720.735324 -284.662289 
L 721.443582 -284.662289 
L 722.151841 -284.662289 
L 722.860099 -284.662289 
L 723.568357 -284.662289 
L 724.276615 -284.662289 
L 724.984874 -284.662289 
L 725.693132 -284.662289 
L 726.40139 -284.662289 
L 727.109648 -284.662289 
L 727.817907 -284.662289 
L 728.526165 -284.662289 
L 729.234423 -284.662289 
L 729.942681 -284.662289 
L 730.65094 -284.662289 
L 731.359198 -284.662289 
L 732.067456 -284.662289 
L 732.775714 -284.662289 
L 733.483973 -284.662289 
L 734.192231 -284.662289 
L 734.900489 -284.662289 
L 735.608747 -284.662289 
L 736.317005 -284.662289 
L 737.025264 -284.662289 
L 737.733522 -284.662289 
L 738.44178 -284.662289 
L 739.150038 -284.662289 
L 739.858297 -284.662289 
L 740.566555 -284.662289 
L 741.274813 -284.662289 
L 741.983071 -284.662289 
L 742.69133 -284.662289 
L 743.399588 -284.662289 
L 744.107846 -284.662289 
L 744.816104 -284.662289 
L 745.524363 -284.662289 
L 746.232621 -284.662289 
L 746.940879 -284.662289 
L 747.649137 -284.662289 
L 748.357396 -284.662289 
L 749.065654 -284.662289 
L 749.773912 -284.662289 
L 750.48217 -284.662289 
L 751.190429 -284.662289 
L 751.898687 -284.662289 
L 752.606945 -284.662289 
L 753.315203 -284.662289 
L 754.023462 -284.662289 
L 754.73172 -284.662289 
L 755.439978 -284.662289 
L 756.148236 -284.662289 
L 756.856495 -284.662289 
L 757.564753 -284.662289 
L 758.273011 -284.662289 
L 758.981269 -284.662289 
L 759.689527 -284.662289 
L 760.397786 -284.662289 
L 761.106044 -284.662289 
L 761.814302 -284.662289 
L 762.52256 -284.662289 
L 763.230819 -284.662289 
L 763.939077 -284.662289 
L 764.647335 -284.662289 
L 765.355593 -284.662289 
L 766.063852 -284.662289 
L 766.77211 -284.662289 
L 767.480368 -284.662289 
L 768.188626 -284.662289 
L 768.896885 -284.662289 
L 769.605143 -284.662289 
L 770.313401 -284.662289 
L 771.021659 -286.149058 
L 771.729918 -286.149058 
L 772.438176 -286.149058 
L 773.146434 -286.149058 
L 773.854692 -286.149058 
L 774.562951 -286.149058 
L 775.271209 -286.149058 
L 775.979467 -286.149058 
L 776.687725 -286.149058 
L 777.395984 -286.149058 
L 778.104242 -286.149058 
L 778.8125 -286.149058 
L 779.520758 -286.149058 
L 780.229016 -286.149058 
L 780.937275 -286.149058 
L 781.645533 -287.436637 
L 782.353791 -287.436637 
L 783.062049 -287.436637 
L 783.770308 -287.436637 
L 784.478566 -287.436637 
L 785.186824 -287.436637 
L 785.895082 -287.436637 
L 786.603341 -287.436637 
L 787.311599 -287.436637 
L 788.019857 -287.436637 
L 788.728115 -288.530975 
L 789.436374 -288.530975 
L 790.144632 -288.530975 
L 790.85289 -288.530975 
L 791.561148 -288.530975 
L 792.269407 -288.530975 
L 792.977665 -288.530975 
L 793.685923 -288.530975 
L 794.394181 -288.530975 
L 795.10244 -288.530975 
L 795.810698 -288.530975 
L 796.518956 -288.530975 
L 797.227214 -288.530975 
L 797.935473 -288.530975 
L 798.643731 -288.530975 
L 799.351989 -279.113594 
L 800.060247 -279.113594 
L 800.768505 -279.113594 
L 801.476764 -279.113594 
L 802.185022 -279.113594 
L 802.89328 -279.113594 
L 803.601538 -279.113594 
L 804.309797 -279.113594 
L 805.018055 -279.113594 
L 805.726313 -279.113594 
L 806.434571 -279.113594 
L 807.14283 -279.113594 
L 807.851088 -279.113594 
L 808.559346 -279.113594 
L 809.267604 -279.113594 
L 809.975863 -279.113594 
L 810.684121 -283.275115 
L 811.392379 -283.275115 
L 812.100637 -283.275115 
L 812.808896 -283.275115 
L 813.517154 -283.275115 
L 814.225412 -283.275115 
L 814.93367 -283.275115 
L 815.641929 -283.275115 
L 816.350187 -283.275115 
L 817.058445 -283.275115 
L 817.766703 -283.275115 
L 818.474962 -283.275115 
L 819.18322 -283.275115 
L 819.891478 -283.275115 
L 820.599736 -283.275115 
L 821.307995 -283.275115 
L 822.016253 -283.275115 
L 822.724511 -283.275115 
L 823.432769 -283.275115 
L 824.141027 -283.275115 
L 824.849286 -283.275115 
L 825.557544 -283.275115 
L 826.265802 -283.275115 
L 826.97406 -283.275115 
L 827.682319 -283.275115 
L 828.390577 -283.275115 
L 828.390577 -304.082723 
L 828.390577 -304.082723 
L 827.682319 -304.082723 
L 826.97406 -304.082723 
L 826.265802 -304.082723 
L 825.557544 -304.082723 
L 824.849286 -304.082723 
L 824.141027 -304.082723 
L 823.432769 -304.082723 
L 822.724511 -304.082723 
L 822.016253 -304.082723 
L 821.307995 -304.082723 
L 820.599736 -304.082723 
L 819.891478 -304.082723 
L 819.18322 -304.082723 
L 818.474962 -304.082723 
L 817.766703 -304.082723 
L 817.058445 -304.082723 
L 816.350187 -304.082723 
L 815.641929 -304.082723 
L 814.93367 -304.082723 
L 814.225412 -304.082723 
L 813.517154 -304.082723 
L 812.808896 -304.082723 
L 812.100637 -304.082723 
L 811.392379 -304.082723 
L 810.684121 -304.082723 
L 809.975863 -304.082723 
L 809.267604 -304.082723 
L 808.559346 -304.082723 
L 807.851088 -304.082723 
L 807.14283 -304.082723 
L 806.434571 -304.082723 
L 805.726313 -304.082723 
L 805.018055 -304.082723 
L 804.309797 -304.082723 
L 803.601538 -304.082723 
L 802.89328 -304.082723 
L 802.185022 -304.082723 
L 801.476764 -304.082723 
L 800.768505 -304.082723 
L 800.060247 -304.082723 
L 799.351989 -304.082723 
L 798.643731 -308.53708 
L 797.935473 -308.53708 
L 797.227214 -308.53708 
L 796.518956 -308.53708 
L 795.810698 -308.53708 
L 795.10244 -308.53708 
L 794.394181 -308.53708 
L 793.685923 -308.53708 
L 792.977665 -308.53708 
L 792.269407 -308.53708 
L 791.561148 -308.53708 
L 790.85289 -308.53708 
L 790.144632 -308.53708 
L 789.436374 -308.53708 
L 788.728115 -308.53708 
L 788.019857 -306.85707 
L 787.311599 -306.85707 
L 786.603341 -306.85707 
L 785.895082 -306.85707 
L 785.186824 -306.85707 
L 784.478566 -306.85707 
L 783.770308 -306.85707 
L 783.062049 -306.85707 
L 782.353791 -306.85707 
L 781.645533 -306.85707 
L 780.937275 -305.370302 
L 780.229016 -305.370302 
L 779.520758 -305.370302 
L 778.8125 -305.370302 
L 778.104242 -305.370302 
L 777.395984 -305.370302 
L 776.687725 -305.370302 
L 775.979467 -305.370302 
L 775.271209 -305.370302 
L 774.562951 -305.370302 
L 773.854692 -305.370302 
L 773.146434 -305.370302 
L 772.438176 -305.370302 
L 771.729918 -305.370302 
L 771.021659 -305.370302 
L 770.313401 -304.082723 
L 769.605143 -304.082723 
L 768.896885 -304.082723 
L 768.188626 -304.082723 
L 767.480368 -304.082723 
L 766.77211 -304.082723 
L 766.063852 -304.082723 
L 765.355593 -304.082723 
L 764.647335 -304.082723 
L 763.939077 -304.082723 
L 763.230819 -304.082723 
L 762.52256 -304.082723 
L 761.814302 -304.082723 
L 761.106044 -304.082723 
L 760.397786 -304.082723 
L 759.689527 -304.082723 
L 758.981269 -304.082723 
L 758.273011 -304.082723 
L 757.564753 -304.082723 
L 756.856495 -304.082723 
L 756.148236 -304.082723 
L 755.439978 -304.082723 
L 754.73172 -304.082723 
L 754.023462 -304.082723 
L 753.315203 -304.082723 
L 752.606945 -304.082723 
L 751.898687 -304.082723 
L 751.190429 -304.082723 
L 750.48217 -304.082723 
L 749.773912 -304.082723 
L 749.065654 -304.082723 
L 748.357396 -304.082723 
L 747.649137 -304.082723 
L 746.940879 -304.082723 
L 746.232621 -304.082723 
L 745.524363 -304.082723 
L 744.816104 -304.082723 
L 744.107846 -304.082723 
L 743.399588 -304.082723 
L 742.69133 -304.082723 
L 741.983071 -304.082723 
L 741.274813 -304.082723 
L 740.566555 -304.082723 
L 739.858297 -304.082723 
L 739.150038 -304.082723 
L 738.44178 -304.082723 
L 737.733522 -304.082723 
L 737.025264 -304.082723 
L 736.317005 -304.082723 
L 735.608747 -304.082723 
L 734.900489 -304.082723 
L 734.192231 -304.082723 
L 733.483973 -304.082723 
L 732.775714 -304.082723 
L 732.067456 -304.082723 
L 731.359198 -304.082723 
L 730.65094 -304.082723 
L 729.942681 -304.082723 
L 729.234423 -304.082723 
L 728.526165 -304.082723 
L 727.817907 -304.082723 
L 727.109648 -304.082723 
L 726.40139 -304.082723 
L 725.693132 -304.082723 
L 724.984874 -304.082723 
L 724.276615 -304.082723 
L 723.568357 -304.082723 
L 722.860099 -304.082723 
L 722.151841 -304.082723 
L 721.443582 -304.082723 
L 720.735324 -304.082723 
L 720.027066 -304.082723 
L 719.318808 -304.082723 
L 718.610549 -304.082723 
L 717.902291 -304.082723 
L 717.194033 -304.082723 
L 716.485775 -304.082723 
L 715.777516 -301.423181 
L 715.069258 -298.806125 
L 714.361 -298.806125 
L 713.652742 -298.648833 
L 712.944484 -298.648833 
L 712.236225 -298.648833 
L 711.527967 -298.648833 
L 710.819709 -298.648833 
L 710.111451 -298.648833 
L 709.403192 -298.648833 
L 708.694934 -298.648833 
L 707.986676 -298.648833 
L 707.278418 -298.648833 
L 706.570159 -298.648833 
L 705.861901 -298.648833 
L 705.153643 -294.644603 
L 704.445385 -294.644603 
L 703.737126 -294.644603 
L 703.028868 -294.487312 
L 702.32061 -294.372506 
L 701.612352 -294.372506 
L 700.904093 -294.372506 
L 700.195835 -294.372506 
L 699.487577 -294.372506 
L 698.779319 -294.372506 
L 698.07106 -294.372506 
L 697.362802 -294.372506 
L 696.654544 -294.372506 
L 695.946286 -294.372506 
L 695.238027 -294.372506 
L 694.529769 -294.372506 
L 693.821511 -294.372506 
L 693.113253 -294.372506 
L 692.404995 -294.285466 
L 691.696736 -294.217412 
L 690.988478 -294.217412 
L 690.28022 -294.217412 
L 689.571962 -294.217412 
L 688.863703 -294.217412 
L 688.155445 -294.217412 
L 687.447187 -294.217412 
L 686.738929 -294.217412 
L 686.03067 -294.217412 
L 685.322412 -294.217412 
L 684.614154 -294.217412 
L 683.905896 -294.217412 
L 683.197637 -294.217412 
L 682.489379 -294.217412 
L 681.781121 -294.217412 
L 681.072863 -294.217412 
L 680.364604 -294.217412 
L 679.656346 -294.217412 
L 678.948088 -294.217412 
L 678.23983 -294.217412 
L 677.531571 -294.217412 
L 676.823313 -294.217412 
L 676.115055 -294.217412 
L 675.406797 -294.217412 
L 674.698538 -294.217412 
L 673.99028 -294.217412 
L 673.282022 -294.217412 
L 672.573764 -294.217412 
L 671.865505 -294.217412 
L 671.157247 -294.217412 
L 670.448989 -294.217412 
L 669.740731 -294.217412 
L 669.032473 -294.217412 
L 668.324214 -294.217412 
L 667.615956 -294.217412 
L 666.907698 -294.217412 
L 666.19944 -294.217412 
L 665.491181 -294.217412 
L 664.782923 -294.217412 
L 664.074665 -294.217412 
L 663.366407 -294.217412 
L 662.658148 -294.217412 
L 661.94989 -294.217412 
L 661.241632 -294.217412 
L 660.533374 -294.217412 
L 659.825115 -294.217412 
L 659.116857 -301.102583 
L 658.408599 -301.102583 
L 657.700341 -301.102583 
L 656.992082 -301.102583 
L 656.283824 -301.102583 
L 655.575566 -301.102583 
L 654.867308 -301.102583 
L 654.159049 -301.102583 
L 653.450791 -301.102583 
L 652.742533 -301.102583 
L 652.034275 -301.102583 
L 651.326016 -301.102583 
L 650.617758 -301.102583 
L 649.9095 -301.102583 
L 649.201242 -300.170695 
L 648.492984 -300.170695 
L 647.784725 -300.170695 
L 647.076467 -300.170695 
L 646.368209 -300.170695 
L 645.659951 -300.170695 
L 644.951692 -298.833433 
L 644.243434 -298.833433 
L 643.535176 -298.833433 
L 642.826918 -298.833433 
L 642.118659 -298.833433 
L 641.410401 -298.833433 
L 640.702143 -298.833433 
L 639.993885 -298.833433 
L 639.285626 -298.833433 
L 638.577368 -298.833433 
L 637.86911 -298.833433 
L 637.160852 -298.833433 
L 636.452593 -298.833433 
L 635.744335 -298.833433 
L 635.036077 -298.833433 
L 634.327819 -298.833433 
L 633.61956 -298.833433 
L 632.911302 -298.833433 
L 632.203044 -298.833433 
L 631.494786 -298.833433 
L 630.786527 -298.833433 
L 630.078269 -298.833433 
L 629.370011 -298.833433 
L 628.661753 -298.833433 
L 627.953495 -298.833433 
L 627.245236 -298.833433 
L 626.536978 -298.833433 
L 625.82872 -298.833433 
L 625.120462 -297.96586 
L 624.412203 -297.96586 
L 623.703945 -297.96586 
L 622.995687 -297.96586 
L 622.287429 -297.96586 
L 621.57917 -297.96586 
L 620.870912 -297.96586 
L 620.162654 -297.96586 
L 619.454396 -297.96586 
L 618.746137 -297.96586 
L 618.037879 -297.96586 
L 617.329621 -297.96586 
L 616.621363 -297.96586 
L 615.913104 -297.96586 
L 615.204846 -297.96586 
L 614.496588 -297.96586 
L 613.78833 -297.96586 
L 613.080071 -297.96586 
L 612.371813 -297.96586 
L 611.663555 -297.96586 
L 610.955297 -297.96586 
L 610.247038 -297.96586 
L 609.53878 -297.96586 
L 608.830522 -297.96586 
L 608.122264 -297.96586 
L 607.414005 -297.96586 
L 606.705747 -297.96586 
L 605.997489 -297.187582 
L 605.289231 -297.187582 
L 604.580973 -297.187582 
L 603.872714 -297.187582 
L 603.164456 -297.187582 
L 602.456198 -295.167653 
L 601.74794 -295.167653 
L 601.039681 -293.928413 
L 600.331423 -293.928413 
L 599.623165 -293.928413 
L 598.914907 -285.254798 
L 598.206648 -285.254798 
L 597.49839 -285.254798 
L 596.790132 -284.677038 
L 596.081874 -283.205563 
L 595.373615 -283.205563 
L 594.665357 -283.205563 
L 593.957099 -283.205563 
L 593.248841 -283.205563 
L 592.540582 -283.205563 
L 591.832324 -282.119577 
L 591.124066 -282.119577 
L 590.415808 -282.119577 
L 589.707549 -282.119577 
L 588.999291 -282.119577 
L 588.291033 -282.119577 
L 587.582775 -280.643663 
L 586.874516 -279.583563 
L 586.166258 -279.583563 
L 585.458 -279.039042 
L 584.749742 -279.039042 
L 584.041484 -279.039042 
L 583.333225 -279.039042 
L 582.624967 -278.251526 
L 581.916709 -278.251526 
L 581.208451 -278.251526 
L 580.500192 -278.251526 
L 579.791934 -278.251526 
L 579.083676 -278.251526 
L 578.375418 -278.251526 
L 577.667159 -278.251526 
L 576.958901 -278.251526 
L 576.250643 -278.251526 
L 575.542385 -278.251526 
L 574.834126 -278.251526 
L 574.125868 -278.251526 
L 573.41761 -278.251526 
L 572.709352 -278.251526 
L 572.001093 -278.251526 
L 571.292835 -276.759787 
L 570.584577 -276.759787 
L 569.876319 -276.759787 
L 569.16806 -276.759787 
L 568.459802 -276.759787 
L 567.751544 -276.759787 
L 567.043286 -275.704049 
L 566.335027 -275.704049 
L 565.626769 -275.704049 
L 564.918511 -275.704049 
L 564.210253 -275.704049 
L 563.501995 -275.704049 
L 562.793736 -275.704049 
L 562.085478 -275.704049 
L 561.37722 -275.704049 
L 560.668962 -274.70926 
L 559.960703 -274.70926 
L 559.252445 -274.70926 
L 558.544187 -274.70926 
L 557.835929 -274.70926 
L 557.12767 -274.70926 
L 556.419412 -274.70926 
L 555.711154 -274.70926 
L 555.002896 -274.70926 
L 554.294637 -274.70926 
L 553.586379 -273.182878 
L 552.878121 -273.182878 
L 552.169863 -273.182878 
L 551.461604 -273.182878 
L 550.753346 -271.679428 
L 550.045088 -271.679428 
L 549.33683 -271.679428 
L 548.628571 -271.679428 
L 547.920313 -271.679428 
L 547.212055 -269.689478 
L 546.503797 -269.689478 
L 545.795538 -268.660107 
L 545.08728 -268.660107 
L 544.379022 -268.660107 
L 543.670764 -268.660107 
L 542.962505 -267.707388 
L 542.254247 -267.231456 
L 541.545989 -265.33089 
L 540.837731 -265.33089 
L 540.129473 -265.33089 
L 539.421214 -265.33089 
L 538.712956 -265.33089 
L 538.004698 -265.33089 
L 537.29644 -264.983317 
L 536.588181 -264.983317 
L 535.879923 -264.983317 
L 535.171665 -263.545867 
L 534.463407 -263.545867 
L 533.755148 -263.545867 
L 533.04689 -263.545867 
L 532.338632 -263.545867 
L 531.630374 -263.545867 
L 530.922115 -262.149311 
L 530.213857 -260.441316 
L 529.505599 -260.135424 
L 528.797341 -260.135424 
L 528.089082 -260.135424 
L 527.380824 -260.135424 
L 526.672566 -260.135424 
L 525.964308 -254.642877 
L 525.256049 -254.642877 
L 524.547791 -254.203735 
L 523.839533 -253.690673 
L 523.131275 -253.278363 
L 522.423016 -253.278363 
L 521.714758 -253.278363 
L 521.0065 -253.278363 
L 520.298242 -253.278363 
L 519.589984 -253.278363 
L 518.881725 -253.278363 
L 518.173467 -252.225839 
L 517.465209 -252.225839 
L 516.756951 -252.225839 
L 516.048692 -252.225839 
L 515.340434 -252.225839 
L 514.632176 -252.225839 
L 513.923918 -252.225839 
L 513.215659 -252.225839 
L 512.507401 -252.225839 
L 511.799143 -252.225839 
L 511.090885 -252.225839 
L 510.382626 -252.225839 
L 509.674368 -252.225839 
L 508.96611 -252.225839 
L 508.257852 -252.225839 
L 507.549593 -252.225839 
L 506.841335 -252.225839 
L 506.133077 -252.225839 
L 505.424819 -252.225839 
L 504.71656 -252.225839 
L 504.008302 -252.225839 
L 503.300044 -252.225839 
L 502.591786 -252.225839 
L 501.883527 -252.225839 
L 501.175269 -252.225839 
L 500.467011 -252.225839 
L 499.758753 -252.225839 
L 499.050495 -251.966145 
L 498.342236 -251.966145 
L 497.633978 -251.966145 
L 496.92572 -251.966145 
L 496.217462 -251.966145 
L 495.509203 -251.966145 
L 494.800945 -251.966145 
L 494.092687 -251.966145 
L 493.384429 -251.966145 
L 492.67617 -251.966145 
L 491.967912 -251.966145 
L 491.259654 -251.966145 
L 490.551396 -251.966145 
L 489.843137 -251.966145 
L 489.134879 -251.966145 
L 488.426621 -251.966145 
L 487.718363 -251.966145 
L 487.010104 -251.571618 
L 486.301846 -251.571618 
L 485.593588 -251.571618 
L 484.88533 -251.571618 
L 484.177071 -251.212947 
L 483.468813 -251.212947 
L 482.760555 -251.212947 
L 482.052297 -251.212947 
L 481.344038 -250.202573 
L 480.63578 -250.202573 
L 479.927522 -250.202573 
L 479.219264 -249.229071 
L 478.511005 -249.229071 
L 477.802747 -249.229071 
L 477.094489 -249.229071 
L 476.386231 -249.229071 
L 475.677973 -244.638607 
L 474.969714 -244.638607 
L 474.261456 -243.774161 
L 473.553198 -243.774161 
L 472.84494 -243.774161 
L 472.136681 -243.774161 
L 471.428423 -242.895027 
L 470.720165 -242.895027 
L 470.011907 -242.895027 
L 469.303648 -242.895027 
L 468.59539 -242.895027 
L 467.887132 -242.895027 
L 467.178874 -242.895027 
L 466.470615 -242.895027 
L 465.762357 -242.895027 
L 465.054099 -242.895027 
L 464.345841 -242.895027 
L 463.637582 -242.895027 
L 462.929324 -242.895027 
L 462.221066 -242.895027 
L 461.512808 -242.895027 
L 460.804549 -242.047224 
L 460.096291 -241.706021 
L 459.388033 -241.706021 
L 458.679775 -241.706021 
L 457.971516 -241.706021 
L 457.263258 -241.706021 
L 456.555 -241.706021 
L 455.846742 -241.706021 
L 455.138484 -241.706021 
L 454.430225 -241.706021 
L 453.721967 -250.794449 
L 453.013709 -250.159792 
L 452.305451 -250.159792 
L 451.597192 -250.159792 
L 450.888934 -254.953015 
L 450.180676 -254.953015 
L 449.472418 -254.285359 
L 448.764159 -254.285359 
L 448.055901 -254.285359 
L 447.347643 -254.285359 
L 446.639385 -254.285359 
L 445.931126 -254.285359 
L 445.222868 -254.285359 
L 444.51461 -254.285359 
L 443.806352 -254.285359 
L 443.098093 -254.285359 
L 442.389835 -254.285359 
L 441.681577 -254.285359 
L 440.973319 -254.007886 
L 440.26506 -254.007886 
L 439.556802 -254.007886 
L 438.848544 -254.007886 
L 438.140286 -254.007886 
L 437.432027 -254.007886 
L 436.723769 -254.007886 
L 436.015511 -254.007886 
L 435.307253 -254.007886 
L 434.598995 -253.473972 
L 433.890736 -253.473972 
L 433.182478 -253.212141 
L 432.47422 -253.212141 
L 431.765962 -253.212141 
L 431.057703 -253.212141 
L 430.349445 -252.944125 
L 429.641187 -252.944125 
L 428.932929 -252.427265 
L 428.22467 -252.427265 
L 427.516412 -251.930068 
L 426.808154 -251.271655 
L 426.099896 -251.271655 
L 425.391637 -251.271655 
L 424.683379 -250.74566 
L 423.975121 -250.74566 
L 423.266863 -250.74566 
L 422.558604 -250.74566 
L 421.850346 -250.239796 
L 421.142088 -250.239796 
L 420.43383 -250.239796 
L 419.725571 -250.239796 
L 419.017313 -250.239796 
L 418.309055 -250.239796 
L 417.600797 -250.239796 
L 416.892538 -250.239796 
L 416.18428 -250.239796 
L 415.476022 -249.754317 
L 414.767764 -252.873828 
L 414.059505 -252.873828 
L 413.351247 -252.873828 
L 412.642989 -252.873828 
L 411.934731 -252.873828 
L 411.226473 -252.873828 
L 410.518214 -252.873828 
L 409.809956 -252.316687 
L 409.101698 -252.316687 
L 408.39344 -252.316687 
L 407.685181 -252.316687 
L 406.976923 -252.316687 
L 406.268665 -252.316687 
L 405.560407 -252.316687 
L 404.852148 -252.316687 
L 404.14389 -252.316687 
L 403.435632 -252.316687 
L 402.727374 -252.316687 
L 402.019115 -252.316687 
L 401.310857 -252.316687 
L 400.602599 -252.316687 
L 399.894341 -252.316687 
L 399.186082 -252.316687 
L 398.477824 -252.316687 
L 397.769566 -252.316687 
L 397.061308 -252.316687 
L 396.353049 -251.675657 
L 395.644791 -246.932535 
L 394.936533 -246.932535 
L 394.228275 -246.932535 
L 393.520016 -246.496468 
L 392.811758 -246.496468 
L 392.1035 -246.496468 
L 391.395242 -246.496468 
L 390.686984 -246.496468 
L 389.978725 -246.496468 
L 389.270467 -246.496468 
L 388.562209 -246.496468 
L 387.853951 -246.496468 
L 387.145692 -248.418503 
L 386.437434 -247.930165 
L 385.729176 -247.930165 
L 385.020918 -247.565309 
L 384.312659 -246.43593 
L 383.604401 -246.43593 
L 382.896143 -246.43593 
L 382.187885 -246.019147 
L 381.479626 -246.019147 
L 380.771368 -246.019147 
L 380.06311 -246.019147 
L 379.354852 -246.019147 
L 378.646593 -245.285192 
L 377.938335 -245.285192 
L 377.230077 -245.285192 
L 376.521819 -244.876447 
L 375.81356 -244.479164 
L 375.105302 -244.479164 
L 374.397044 -244.479164 
L 373.688786 -244.479164 
L 372.980527 -244.254627 
L 372.272269 -244.254627 
L 371.564011 -243.815121 
L 370.855753 -243.815121 
L 370.147495 -243.454473 
L 369.439236 -242.958817 
L 368.730978 -242.958817 
L 368.02272 -241.905814 
L 367.314462 -241.525432 
L 366.606203 -241.525432 
L 365.897945 -241.319238 
L 365.189687 -240.990889 
L 364.481429 -240.990889 
L 363.77317 -240.990889 
L 363.064912 -240.621204 
L 362.356654 -239.230711 
L 361.648396 -239.032419 
L 360.940137 -239.032419 
L 360.231879 -239.032419 
L 359.523621 -239.032419 
L 358.815363 -238.844096 
L 358.107104 -238.844096 
L 357.398846 -238.844096 
L 356.690588 -238.844096 
L 355.98233 -238.665337 
L 355.274071 -238.665337 
L 354.565813 -238.665337 
L 353.857555 -238.665337 
L 353.149297 -238.665337 
L 352.441038 -238.665337 
L 351.73278 -238.665337 
L 351.024522 -238.665337 
L 350.316264 -238.665337 
L 349.608005 -238.665337 
L 348.899747 -238.365962 
L 348.191489 -238.365962 
L 347.483231 -238.053831 
L 346.774973 -238.053831 
L 346.066714 -238.053831 
L 345.358456 -237.882809 
L 344.650198 -237.429498 
L 343.94194 -237.429498 
L 343.233681 -237.14911 
L 342.525423 -236.879341 
L 341.817165 -236.676966 
L 341.108907 -236.405184 
L 340.400648 -236.143782 
L 339.69239 -236.143782 
L 338.984132 -236.143782 
L 338.275874 -235.734446 
L 337.567615 -235.734446 
L 336.859357 -235.734446 
L 336.151099 -235.734446 
L 335.442841 -235.734446 
L 334.734582 -235.734446 
L 334.026324 -235.734446 
L 333.318066 -235.460382 
L 332.609808 -233.6496 
L 331.901549 -232.951414 
L 331.193291 -232.951414 
L 330.485033 -232.951414 
L 329.776775 -232.563778 
L 329.068516 -232.563778 
L 328.360258 -232.563778 
L 327.652 -232.405544 
L 326.943742 -232.405544 
L 326.235484 -232.405544 
L 325.527225 -231.846522 
L 324.818967 -231.846522 
L 324.110709 -231.846522 
L 323.402451 -231.846522 
L 322.694192 -231.846522 
L 321.985934 -231.846522 
L 321.277676 -230.390753 
L 320.569418 -230.10173 
L 319.861159 -230.10173 
L 319.152901 -230.10173 
L 318.444643 -230.10173 
L 317.736385 -229.411556 
L 317.028126 -229.411556 
L 316.319868 -229.411556 
L 315.61161 -229.108987 
L 314.903352 -229.108987 
L 314.195093 -227.037832 
L 313.486835 -226.832233 
L 312.778577 -226.067028 
L 312.070319 -225.567321 
L 311.36206 -225.417895 
L 310.653802 -225.417895 
L 309.945544 -223.23825 
L 309.237286 -222.905622 
L 308.529027 -222.905622 
L 307.820769 -222.651964 
L 307.112511 -222.651964 
L 306.404253 -222.651964 
L 305.695995 -222.52461 
L 304.987736 -222.52461 
L 304.279478 -222.219742 
L 303.57122 -220.991092 
L 302.862962 -220.991092 
L 302.154703 -220.690795 
L 301.446445 -220.503974 
L 300.738187 -220.055632 
L 300.029929 -220.055632 
L 299.32167 -220.055632 
L 298.613412 -219.613714 
L 297.905154 -219.613714 
L 297.196896 -218.853097 
L 296.488637 -218.853097 
L 295.780379 -218.853097 
L 295.072121 -218.853097 
L 294.363863 -218.077066 
L 293.655604 -218.077066 
L 292.947346 -218.077066 
L 292.239088 -218.077066 
L 291.53083 -217.856506 
L 290.822571 -217.856506 
L 290.114313 -217.856506 
L 289.406055 -217.856506 
L 288.697797 -217.508979 
L 287.989538 -217.508979 
L 287.28128 -217.205436 
L 286.573022 -217.006392 
L 285.864764 -217.006392 
L 285.156505 -217.006392 
L 284.448247 -217.006392 
L 283.739989 -217.006392 
L 283.031731 -216.599449 
L 282.323473 -216.599449 
L 281.615214 -216.010554 
L 280.906956 -216.010554 
L 280.198698 -216.010554 
L 279.49044 -216.010554 
L 278.782181 -216.010554 
L 278.073923 -215.847092 
L 277.365665 -215.847092 
L 276.657407 -215.012484 
L 275.949148 -215.012484 
L 275.24089 -214.84356 
L 274.532632 -214.680874 
L 273.824374 -214.680874 
L 273.116115 -214.491677 
L 272.407857 -214.275841 
L 271.699599 -214.275841 
L 270.991341 -212.836186 
L 270.283082 -212.731092 
L 269.574824 -212.50507 
L 268.866566 -212.351203 
L 268.158308 -212.118231 
L 267.450049 -212.118231 
L 266.741791 -214.431158 
L 266.033533 -214.241332 
L 265.325275 -214.241332 
L 264.617016 -214.013291 
L 263.908758 -214.013291 
L 263.2005 -213.533215 
L 262.492242 -213.072667 
L 261.783984 -212.859354 
L 261.075725 -212.859354 
L 260.367467 -212.354867 
L 259.659209 -211.973795 
L 258.950951 -211.558976 
L 258.242692 -211.250022 
L 257.534434 -211.250022 
L 256.826176 -210.284301 
L 256.117918 -210.284301 
L 255.409659 -210.099811 
L 254.701401 -209.935085 
L 253.993143 -209.625201 
L 253.284885 -209.319629 
L 252.576626 -209.169102 
L 251.868368 -207.894534 
L 251.16011 -207.615204 
L 250.451852 -207.615204 
L 249.743593 -207.615204 
L 249.035335 -207.615204 
L 248.327077 -207.938828 
L 247.618819 -207.82026 
L 246.91056 -206.428812 
L 246.202302 -206.683018 
L 245.494044 -206.415045 
L 244.785786 -206.488292 
L 244.077527 -206.362304 
L 243.369269 -206.362304 
L 242.661011 -206.55323 
L 241.952753 -206.136826 
L 241.244495 -205.710978 
L 240.536236 -205.710978 
L 239.827978 -205.429953 
L 239.11972 -205.517282 
L 238.411462 -205.263177 
L 237.703203 -205.263177 
L 236.994945 -205.263177 
L 236.286687 -205.263177 
L 235.578429 -205.603277 
L 234.87017 -205.603277 
L 234.161912 -205.603277 
L 233.453654 -205.603277 
L 232.745396 -205.337955 
L 232.037137 -205.225628 
L 231.328879 -205.124379 
L 230.620621 -204.448006 
L 229.912363 -204.448006 
L 229.204104 -204.448006 
L 228.495846 -204.34514 
L 227.787588 -204.146172 
L 227.07933 -204.146172 
L 226.371071 -204.028691 
L 225.662813 -203.804129 
L 224.954555 -203.33956 
L 224.246297 -203.221374 
L 223.538038 -202.856711 
L 222.82978 -202.706707 
L 222.121522 -202.454543 
L 221.413264 -201.730852 
L 220.705005 -201.730852 
L 219.996747 -201.490224 
L 219.288489 -201.490224 
L 218.580231 -201.394005 
L 217.871973 -201.35958 
L 217.163714 -201.258955 
L 216.455456 -200.953194 
L 215.747198 -200.521875 
L 215.03894 -200.440771 
L 214.330681 -200.866824 
L 213.622423 -200.615375 
L 212.914165 -200.518909 
L 212.205907 -200.319562 
L 211.497648 -200.085656 
L 210.78939 -199.951073 
L 210.081132 -199.697958 
L 209.372874 -199.349305 
L 208.664615 -199.135861 
L 207.956357 -198.922048 
L 207.248099 -198.594362 
L 206.539841 -198.490159 
L 205.831582 -198.0523 
L 205.123324 -197.849279 
L 204.415066 -197.753836 
L 203.706808 -197.544182 
L 202.998549 -197.049684 
L 202.290291 -196.894445 
L 201.582033 -196.810428 
L 200.873775 -196.810428 
L 200.165516 -196.62989 
L 199.457258 -196.542495 
L 198.749 -196.031926 
L 198.040742 -195.716772 
L 197.332484 -195.331009 
L 196.624225 -195.224507 
L 195.915967 -194.686901 
L 195.207709 -194.520777 
L 194.499451 -194.71489 
L 193.791192 -194.526341 
L 193.082934 -194.128601 
L 192.374676 -193.709746 
L 191.666418 -193.244674 
L 190.958159 -192.968765 
L 190.249901 -192.783518 
L 189.541643 -192.666649 
L 188.833385 -192.469641 
L 188.125126 -192.289458 
L 187.416868 -192.089085 
L 186.70861 -191.985942 
L 186.000352 -192.575398 
L 185.292093 -192.3012 
L 184.583835 -192.078635 
L 183.875577 -191.882705 
L 183.167319 -191.519874 
L 182.45906 -191.211236 
L 181.750802 -190.893625 
L 181.042544 -190.794893 
L 180.334286 -190.396517 
L 179.626027 -189.806582 
L 178.917769 -189.601942 
L 178.209511 -188.947916 
L 177.501253 -188.672634 
L 176.792995 -187.696263 
L 176.084736 -187.365423 
L 175.376478 -186.414992 
L 174.66822 -186.338742 
L 173.959962 -185.936407 
L 173.251703 -185.62885 
L 172.543445 -185.427326 
L 171.835187 -185.147772 
L 171.126929 -184.592215 
L 170.41867 -184.380872 
L 169.710412 -184.107771 
L 169.002154 -183.729665 
L 168.293896 -183.629034 
L 167.585637 -183.272052 
L 166.877379 -182.997183 
L 166.169121 -182.643714 
L 165.460863 -182.184713 
L 164.752604 -181.543336 
L 164.044346 -181.746727 
L 163.336088 -181.51282 
L 162.62783 -180.93741 
L 161.919571 -180.181618 
L 161.211313 -179.824892 
L 160.503055 -179.459132 
L 159.794797 -179.007243 
L 159.086538 -178.694628 
L 158.37828 -177.691608 
L 157.670022 -177.356084 
L 156.961764 -177.057719 
L 156.253505 -176.967653 
L 155.545247 -176.831393 
L 154.836989 -176.207632 
L 154.128731 -175.573427 
L 153.420473 -175.06286 
L 152.712214 -174.887794 
L 152.003956 -174.500445 
L 151.295698 -174.342598 
L 150.58744 -173.784684 
L 149.879181 -173.909493 
L 149.170923 -172.834616 
L 148.462665 -172.242072 
L 147.754407 -171.945836 
L 147.046148 -171.736196 
L 146.33789 -171.275167 
L 145.629632 -171.073609 
L 144.921374 -170.711906 
L 144.213115 -169.958054 
L 143.504857 -169.408861 
L 142.796599 -168.766627 
L 142.088341 -168.058451 
L 141.380082 -167.48965 
L 140.671824 -167.110211 
L 139.963566 -166.886893 
L 139.255308 -166.47479 
L 138.547049 -166.123545 
L 137.838791 -165.646852 
L 137.130533 -165.291211 
L 136.422275 -164.798266 
L 135.714016 -164.231612 
L 135.005758 -163.849269 
L 134.2975 -163.341242 
L 133.589242 -162.98094 
L 132.880984 -162.196903 
L 132.172725 -161.940353 
L 131.464467 -161.681318 
L 130.756209 -161.076957 
L 130.047951 -160.717018 
L 129.339692 -160.175094 
L 128.631434 -159.779271 
L 127.923176 -159.513201 
L 127.214918 -159.29951 
L 126.506659 -158.790701 
L 125.798401 -158.253759 
L 125.090143 -157.953662 
L 124.381885 -156.870008 
L 123.673626 -156.797153 
L 122.965368 -156.502829 
L 122.25711 -156.195863 
L 121.548852 -155.776327 
L 120.840593 -155.353237 
L 120.132335 -155.040925 
L 119.424077 -154.462718 
L 118.715819 -153.95575 
L 118.00756 -153.53165 
L 117.299302 -152.595499 
L 116.591044 -151.817797 
L 115.882786 -150.872463 
L 115.174527 -150.545672 
L 114.466269 -149.631552 
L 113.758011 -148.753323 
L 113.049753 -148.310961 
L 112.341495 -147.678551 
L 111.633236 -147.044702 
L 110.924978 -146.310828 
L 110.21672 -145.614217 
L 109.508462 -145.067784 
L 108.800203 -144.687788 
L 108.091945 -144.259497 
L 107.383687 -143.460244 
L 106.675429 -142.688053 
L 105.96717 -141.900089 
L 105.258912 -141.397538 
L 104.550654 -140.625395 
L 103.842396 -140.080223 
L 103.134137 -139.57603 
L 102.425879 -138.891213 
L 101.717621 -138.339815 
L 101.009363 -137.375361 
L 100.301104 -136.942083 
L 99.592846 -136.421927 
L 98.884588 -135.715676 
L 98.17633 -134.94283 
L 97.468071 -134.248358 
L 96.759813 -133.453715 
L 96.051555 -132.851638 
L 95.343297 -132.260655 
L 94.635038 -131.425994 
L 93.92678 -130.687994 
L 93.218522 -130.074126 
L 92.510264 -129.419288 
L 91.802005 -128.369484 
L 91.093747 -127.470608 
L 90.385489 -126.679502 
L 89.677231 -126.03516 
L 88.968973 -125.327046 
L 88.260714 -124.368618 
L 87.552456 -123.785449 
L 86.844198 -122.503397 
L 86.13594 -121.607266 
L 85.427681 -120.336543 
L 84.719423 -119.626186 
L 84.011165 -118.656602 
L 83.302907 -117.772407 
L 82.594648 -116.981842 
L 81.88639 -115.992383 
L 81.178132 -114.695613 
L 80.469874 -113.388644 
L 79.761615 -112.280367 
L 79.053357 -111.084639 
L 78.345099 -109.956544 
L 77.636841 -109.003846 
L 76.928582 -107.614904 
L 76.220324 -106.751171 
L 75.512066 -105.421601 
L 74.803808 -103.439468 
L 74.095549 -101.006806 
L 73.387291 -98.966705 
L 72.679033 -97.277821 
L 71.970775 -95.881183 
L 71.262516 -94.464592 
L 70.554258 -91.360295 
L 69.846 -87.683607 
z
" id="med9f0368cd" style="stroke:#d9effe;stroke-opacity:0.1;stroke-width:0.8;"/>
    </defs>
    <g clip-path="url(#pac512e7934)">
     <use style="fill:#d9effe;fill-opacity:0.1;stroke:#d9effe;stroke-opacity:0.1;stroke-width:0.8;" x="0" xlink:href="#med9f0368cd" y="360"/>
    </g>
   </g>
   <g id="line2d_14">
    <path clip-path="url(#pac512e7934)" d="M 69.846 272.358857 
L 71.262516 265.776859 
L 73.387291 261.403015 
L 74.095549 259.364719 
L 74.803808 256.944242 
L 75.512066 254.990875 
L 76.220324 253.6539 
L 76.928582 252.795854 
L 77.636841 251.422981 
L 79.053357 249.384676 
L 82.594648 243.532536 
L 84.011165 241.885267 
L 84.719423 240.931585 
L 85.427681 240.237998 
L 86.13594 239.024221 
L 86.844198 238.157238 
L 87.552456 236.921558 
L 88.260714 236.352086 
L 88.968973 235.432171 
L 91.093747 233.329508 
L 93.218522 230.788789 
L 94.635038 229.461576 
L 95.343297 228.642791 
L 96.759813 227.500008 
L 98.884588 225.2912 
L 99.592846 224.575793 
L 101.009363 223.640619 
L 101.717621 222.709165 
L 102.425879 222.188975 
L 103.134137 221.517131 
L 104.550654 220.512626 
L 105.258912 219.747288 
L 105.96717 219.268953 
L 108.091945 216.963144 
L 110.21672 215.679101 
L 113.049753 213.11875 
L 113.758011 212.702598 
L 115.174527 210.960628 
L 115.882786 210.650211 
L 118.00756 208.037757 
L 119.424077 207.157228 
L 120.132335 206.599033 
L 121.548852 205.905446 
L 122.965368 205.211859 
L 123.673626 204.922865 
L 124.381885 204.852855 
L 125.090143 203.802069 
L 125.798401 203.588236 
L 127.214918 202.594903 
L 128.631434 202.155742 
L 129.339692 201.765599 
L 130.047951 201.245409 
L 130.756209 200.909969 
L 131.464467 200.315466 
L 132.880984 199.825374 
L 133.589242 199.046327 
L 134.2975 198.705218 
L 135.005758 198.227667 
L 135.714016 197.886558 
L 137.130533 196.863233 
L 137.838791 196.522125 
L 138.547049 196.044573 
L 141.380082 194.704018 
L 142.796599 193.459088 
L 144.921374 191.597227 
L 145.629632 191.238475 
L 146.33789 191.023224 
L 147.046148 190.592722 
L 148.462665 190.090469 
L 149.170923 189.524019 
L 149.879181 188.342835 
L 150.58744 188.546507 
L 151.295698 188.007051 
L 152.003956 187.85292 
L 152.712214 187.467594 
L 153.420473 187.313464 
L 154.128731 186.851073 
L 155.545247 185.618029 
L 156.961764 185.474077 
L 158.37828 184.924442 
L 159.086538 183.863662 
L 161.919571 182.476489 
L 162.62783 181.742102 
L 163.336088 181.170913 
L 164.044346 180.926118 
L 164.752604 181.179073 
L 165.460863 180.593063 
L 166.877379 179.828702 
L 170.41867 178.595462 
L 171.126929 178.460803 
L 171.835187 177.929545 
L 174.66822 176.872803 
L 175.376478 176.782335 
L 176.084736 175.861573 
L 176.792995 175.584139 
L 177.501253 174.615219 
L 178.209511 174.331479 
L 178.917769 173.669418 
L 179.626027 173.480258 
L 180.334286 172.912778 
L 181.042544 172.534458 
L 181.750802 172.439878 
L 186.000352 170.832017 
L 186.70861 171.375303 
L 188.125126 171.084964 
L 191.666418 170.117168 
L 193.082934 169.246152 
L 193.791192 168.859034 
L 194.499451 168.665475 
L 195.207709 168.87286 
L 195.915967 168.674692 
L 196.624225 168.080189 
L 197.332484 167.981105 
L 199.457258 166.792099 
L 202.998549 166.197596 
L 203.706808 165.702177 
L 205.831582 165.206757 
L 206.539841 164.711338 
L 207.248099 164.612254 
L 208.664615 164.116835 
L 209.372874 163.918667 
L 210.78939 163.225081 
L 212.205907 162.927829 
L 214.330681 162.333326 
L 215.03894 162.868379 
L 215.747198 162.764341 
L 217.163714 162.036074 
L 217.871973 161.932036 
L 218.580231 161.982722 
L 221.413264 161.662605 
L 222.121522 161.050451 
L 224.246297 160.405208 
L 224.954555 160.292734 
L 225.662813 159.84284 
L 227.07933 159.505419 
L 227.787588 159.505419 
L 229.204104 159.167999 
L 230.620621 159.167999 
L 231.328879 158.56814 
L 232.745396 158.336944 
L 233.453654 158.105749 
L 235.578429 158.105749 
L 236.286687 158.528506 
L 238.411462 158.528506 
L 239.11972 158.290705 
L 239.827978 158.486541 
L 240.536236 158.241746 
L 241.244495 158.241746 
L 242.661011 157.50736 
L 243.369269 157.8115 
L 244.077527 157.8115 
L 244.785786 157.685393 
L 245.494044 157.874553 
L 246.202302 157.614458 
L 246.91056 157.941674 
L 247.618819 156.487379 
L 248.327077 156.348662 
L 249.035335 156.798297 
L 251.16011 156.798297 
L 251.868368 156.511296 
L 252.576626 155.347915 
L 253.284885 155.199289 
L 254.701401 154.604786 
L 256.117918 154.307535 
L 256.826176 154.307535 
L 257.534434 153.713031 
L 258.242692 153.713031 
L 261.075725 152.464575 
L 261.783984 152.464575 
L 262.492242 152.298114 
L 263.908758 151.299349 
L 264.617016 151.299349 
L 265.325275 151.132888 
L 266.033533 151.132888 
L 266.741791 150.966427 
L 267.450049 153.019445 
L 268.158308 153.019445 
L 270.991341 152.325858 
L 271.699599 150.908528 
L 272.407857 150.908528 
L 273.824374 150.546656 
L 274.532632 150.546656 
L 275.949148 150.184785 
L 276.657407 150.184785 
L 277.365665 149.55151 
L 281.615214 149.650594 
L 282.323473 149.343434 
L 283.031731 149.343434 
L 283.739989 148.927282 
L 286.573022 148.927282 
L 287.28128 148.719206 
L 287.989538 148.303054 
L 288.697797 148.303054 
L 289.406055 147.886901 
L 291.53083 147.886901 
L 292.239088 147.678825 
L 294.363863 147.678825 
L 295.072121 147.054597 
L 297.196896 147.054597 
L 297.905154 146.59464 
L 298.613412 146.59464 
L 299.32167 146.156585 
L 300.738187 146.156585 
L 301.446445 145.71853 
L 302.862962 145.280475 
L 303.57122 145.280475 
L 304.279478 144.465206 
L 304.987736 144.23401 
L 305.695995 144.23401 
L 306.404253 144.002815 
L 309.237286 144.043614 
L 309.945544 143.798819 
L 310.653802 141.748657 
L 311.36206 141.748657 
L 312.070319 141.488562 
L 312.778577 140.968372 
L 313.486835 140.188087 
L 314.195093 139.927992 
L 314.903352 138.315402 
L 315.61161 138.315402 
L 316.319868 138.037967 
L 317.736385 138.037967 
L 318.444643 137.483098 
L 320.569418 137.483098 
L 321.277676 137.205663 
L 321.985934 136.095924 
L 325.527225 136.095924 
L 326.235484 135.541055 
L 327.652 135.541055 
L 328.360258 135.26362 
L 329.776775 135.26362 
L 330.485033 134.986185 
L 331.901549 134.986185 
L 332.609808 134.153881 
L 333.318066 132.905424 
L 334.026324 132.608173 
L 338.275874 132.608173 
L 338.984132 132.310921 
L 340.400648 132.310921 
L 343.94194 130.824664 
L 344.650198 130.824664 
L 345.358456 130.23016 
L 346.066714 129.932909 
L 347.483231 129.932909 
L 348.191489 129.635657 
L 348.899747 129.635657 
L 349.608005 129.338406 
L 355.98233 129.338406 
L 356.690588 129.041154 
L 358.815363 129.041154 
L 359.523621 128.743903 
L 361.648396 128.743903 
L 362.356654 128.446651 
L 363.064912 127.623493 
L 363.77317 127.303376 
L 365.189687 127.303376 
L 366.606203 126.663142 
L 367.314462 126.663142 
L 368.02272 126.343025 
L 368.730978 125.382674 
L 369.439236 125.382674 
L 370.147495 124.74244 
L 370.855753 124.422323 
L 371.564011 124.422323 
L 372.272269 124.102206 
L 372.980527 124.102206 
L 373.688786 123.782089 
L 375.81356 123.782089 
L 377.230077 123.141855 
L 378.646593 123.141855 
L 379.354852 122.501621 
L 382.187885 122.501621 
L 382.896143 122.181504 
L 384.312659 122.181504 
L 385.729176 121.46124 
L 386.437434 121.46124 
L 387.145692 121.114447 
L 387.853951 123.636581 
L 393.520016 123.636581 
L 394.228275 123.258261 
L 395.644791 123.258261 
L 396.353049 117.923947 
L 397.061308 117.507795 
L 409.809956 117.507795 
L 410.518214 117.091643 
L 414.767764 117.091643 
L 415.476022 120.652056 
L 416.18428 120.189664 
L 421.850346 120.189664 
L 422.558604 119.727273 
L 424.683379 119.727273 
L 425.391637 119.264882 
L 426.808154 119.264882 
L 428.22467 118.340099 
L 428.932929 118.340099 
L 429.641187 117.877708 
L 430.349445 117.877708 
L 431.057703 117.415317 
L 433.182478 117.415317 
L 433.890736 116.952925 
L 434.598995 116.952925 
L 435.307253 116.490534 
L 440.973319 116.490534 
L 441.681577 116.028143 
L 449.472418 116.028143 
L 450.180676 115.565752 
L 450.888934 115.565752 
L 451.597192 120.42086 
L 453.013709 120.42086 
L 453.721967 119.90067 
L 454.430225 127.257645 
L 460.096291 127.257645 
L 461.512808 126.068639 
L 471.428423 126.068639 
L 472.136681 125.474136 
L 474.261456 125.474136 
L 474.969714 124.879633 
L 475.677973 124.879633 
L 476.386231 121.114447 
L 479.219264 121.114447 
L 479.927522 120.42086 
L 481.344038 120.42086 
L 482.052297 119.727273 
L 484.177071 119.727273 
L 484.88533 119.033686 
L 487.010104 119.033686 
L 487.718363 118.340099 
L 499.050495 118.340099 
L 499.758753 117.646512 
L 518.173467 117.646512 
L 518.881725 116.952925 
L 523.131275 116.952925 
L 525.256049 114.872165 
L 525.964308 114.872165 
L 526.672566 108.352448 
L 529.505599 108.352448 
L 530.213857 107.520143 
L 530.922115 105.855535 
L 531.630374 105.023231 
L 535.171665 105.023231 
L 535.879923 104.190926 
L 537.29644 104.190926 
L 538.004698 103.358622 
L 541.545989 103.358622 
L 542.254247 101.694013 
L 543.670764 100.029405 
L 545.795538 100.029405 
L 546.503797 99.197101 
L 547.212055 99.197101 
L 547.920313 97.532492 
L 550.753346 97.532492 
L 551.461604 96.700188 
L 553.586379 96.700188 
L 554.294637 95.867883 
L 560.668962 95.867883 
L 561.37722 95.035579 
L 567.043286 95.035579 
L 567.751544 94.203275 
L 571.292835 94.203275 
L 572.001093 93.37097 
L 582.624967 93.37097 
L 583.333225 92.538666 
L 585.458 92.538666 
L 586.166258 91.706362 
L 586.874516 91.706362 
L 588.291033 90.041753 
L 591.832324 90.041753 
L 592.540582 89.209449 
L 596.081874 89.209449 
L 597.49839 87.54484 
L 598.914907 87.54484 
L 599.623165 77.765265 
L 601.039681 77.765265 
L 601.74794 76.724885 
L 602.456198 76.724885 
L 603.164456 74.644124 
L 605.997489 74.644124 
L 606.705747 73.603744 
L 625.120462 73.603744 
L 625.82872 72.563363 
L 644.951692 72.563363 
L 645.659951 71.522983 
L 649.201242 71.522983 
L 649.9095 70.482603 
L 659.116857 70.482603 
L 659.825115 78.112059 
L 691.696736 78.112059 
L 693.113253 75.337711 
L 702.32061 75.337711 
L 703.737126 72.563363 
L 705.153643 72.563363 
L 705.861901 69.789016 
L 713.652742 69.789016 
L 714.361 68.401842 
L 715.069258 68.401842 
L 716.485775 65.627494 
L 770.313401 65.627494 
L 771.021659 64.24032 
L 780.937275 64.24032 
L 781.645533 62.853147 
L 788.019857 62.853147 
L 788.728115 61.465973 
L 798.643731 61.465973 
L 799.351989 68.401842 
L 809.975863 68.401842 
L 810.684121 66.321081 
L 828.390577 66.321081 
L 829.098835 76.724885 
L 843.264 76.724885 
L 843.264 76.724885 
" style="fill:none;stroke:#82cafc;stroke-linecap:round;stroke-width:2;"/>
   </g>
   <g id="patch_3">
    <path d="M 69.846 293.124 
L 69.846 40.416 
" style="fill:none;stroke:#9d9d9d;stroke-linecap:square;stroke-linejoin:miter;stroke-width:0.6;"/>
   </g>
   <g id="patch_4">
    <path d="M 843.264 293.124 
L 843.264 40.416 
" style="fill:none;stroke:#9d9d9d;stroke-linecap:square;stroke-linejoin:miter;stroke-width:0.6;"/>
   </g>
   <g id="patch_5">
    <path d="M 69.846 293.124 
L 843.264 293.124 
" style="fill:none;stroke:#9d9d9d;stroke-linecap:square;stroke-linejoin:miter;stroke-width:0.6;"/>
   </g>
   <g id="patch_6">
    <path d="M 69.846 40.416 
L 843.264 40.416 
" style="fill:none;stroke:#9d9d9d;stroke-linecap:square;stroke-linejoin:miter;stroke-width:0.6;"/>
   </g>
   <g id="text_16">
    <!-- Game progress averaged over 98 players -->
    <g style="fill:#262626;" transform="translate(279.4095 34.416)scale(0.192 -0.192)">
     <defs>
      <path d="M 41.21875 28.078125 
L 41.21875 36.46875 
L 71.53125 36.53125 
L 71.53125 9.96875 
Q 64.546875 4.390625 57.125 1.578125 
Q 49.703125 -1.21875 41.890625 -1.21875 
Q 31.34375 -1.21875 22.71875 3.296875 
Q 14.109375 7.8125 9.71875 16.359375 
Q 5.328125 24.90625 5.328125 35.453125 
Q 5.328125 45.90625 9.6875 54.953125 
Q 14.0625 64.015625 22.265625 68.40625 
Q 30.46875 72.796875 41.15625 72.796875 
Q 48.921875 72.796875 55.1875 70.28125 
Q 61.46875 67.78125 65.03125 63.28125 
Q 68.609375 58.796875 70.453125 51.5625 
L 61.921875 49.21875 
Q 60.296875 54.6875 57.90625 57.8125 
Q 55.515625 60.9375 51.0625 62.8125 
Q 46.625 64.703125 41.21875 64.703125 
Q 34.71875 64.703125 29.984375 62.71875 
Q 25.25 60.75 22.34375 57.515625 
Q 19.4375 54.296875 17.828125 50.4375 
Q 15.09375 43.796875 15.09375 36.03125 
Q 15.09375 26.46875 18.390625 20.015625 
Q 21.6875 13.578125 27.984375 10.453125 
Q 34.28125 7.328125 41.359375 7.328125 
Q 47.515625 7.328125 53.375 9.6875 
Q 59.234375 12.0625 62.25 14.75 
L 62.25 28.078125 
z
" id="ArialMT-71"/>
      <path d="M 6.59375 0 
L 6.59375 51.859375 
L 14.453125 51.859375 
L 14.453125 44.578125 
Q 16.890625 48.390625 20.9375 50.703125 
Q 25 53.03125 30.171875 53.03125 
Q 35.9375 53.03125 39.625 50.640625 
Q 43.3125 48.25 44.828125 43.953125 
Q 50.984375 53.03125 60.84375 53.03125 
Q 68.5625 53.03125 72.703125 48.75 
Q 76.859375 44.484375 76.859375 35.59375 
L 76.859375 0 
L 68.109375 0 
L 68.109375 32.671875 
Q 68.109375 37.9375 67.25 40.25 
Q 66.40625 42.578125 64.15625 43.984375 
Q 61.921875 45.40625 58.890625 45.40625 
Q 53.421875 45.40625 49.796875 41.765625 
Q 46.1875 38.140625 46.1875 30.125 
L 46.1875 0 
L 37.40625 0 
L 37.40625 33.6875 
Q 37.40625 39.546875 35.25 42.46875 
Q 33.109375 45.40625 28.21875 45.40625 
Q 24.515625 45.40625 21.359375 43.453125 
Q 18.21875 41.5 16.796875 37.734375 
Q 15.375 33.984375 15.375 26.90625 
L 15.375 0 
z
" id="ArialMT-109"/>
      <path d="M 6.59375 -19.875 
L 6.59375 51.859375 
L 14.59375 51.859375 
L 14.59375 45.125 
Q 17.4375 49.078125 21 51.046875 
Q 24.5625 53.03125 29.640625 53.03125 
Q 36.28125 53.03125 41.359375 49.609375 
Q 46.4375 46.1875 49.015625 39.953125 
Q 51.609375 33.734375 51.609375 26.3125 
Q 51.609375 18.359375 48.75 11.984375 
Q 45.90625 5.609375 40.453125 2.21875 
Q 35.015625 -1.171875 29 -1.171875 
Q 24.609375 -1.171875 21.109375 0.6875 
Q 17.625 2.546875 15.375 5.375 
L 15.375 -19.875 
z
M 14.546875 25.640625 
Q 14.546875 15.625 18.59375 10.84375 
Q 22.65625 6.0625 28.421875 6.0625 
Q 34.28125 6.0625 38.453125 11.015625 
Q 42.625 15.96875 42.625 26.375 
Q 42.625 36.28125 38.546875 41.203125 
Q 34.46875 46.140625 28.8125 46.140625 
Q 23.1875 46.140625 18.859375 40.890625 
Q 14.546875 35.640625 14.546875 25.640625 
z
" id="ArialMT-112"/>
      <path d="M 4.984375 -4.296875 
L 13.53125 -5.5625 
Q 14.0625 -9.515625 16.5 -11.328125 
Q 19.78125 -13.765625 25.4375 -13.765625 
Q 31.546875 -13.765625 34.859375 -11.328125 
Q 38.1875 -8.890625 39.359375 -4.5 
Q 40.046875 -1.8125 39.984375 6.78125 
Q 34.234375 0 25.640625 0 
Q 14.9375 0 9.078125 7.71875 
Q 3.21875 15.4375 3.21875 26.21875 
Q 3.21875 33.640625 5.90625 39.90625 
Q 8.59375 46.1875 13.6875 49.609375 
Q 18.796875 53.03125 25.6875 53.03125 
Q 34.859375 53.03125 40.828125 45.609375 
L 40.828125 51.859375 
L 48.921875 51.859375 
L 48.921875 7.03125 
Q 48.921875 -5.078125 46.453125 -10.125 
Q 44 -15.1875 38.640625 -18.109375 
Q 33.296875 -21.046875 25.484375 -21.046875 
Q 16.21875 -21.046875 10.5 -16.875 
Q 4.78125 -12.703125 4.984375 -4.296875 
z
M 12.25 26.859375 
Q 12.25 16.65625 16.296875 11.96875 
Q 20.359375 7.28125 26.46875 7.28125 
Q 32.515625 7.28125 36.609375 11.9375 
Q 40.71875 16.609375 40.71875 26.5625 
Q 40.71875 36.078125 36.5 40.90625 
Q 32.28125 45.75 26.3125 45.75 
Q 20.453125 45.75 16.34375 40.984375 
Q 12.25 36.234375 12.25 26.859375 
z
" id="ArialMT-103"/>
      <path d="M 40.234375 0 
L 40.234375 6.546875 
Q 35.296875 -1.171875 25.734375 -1.171875 
Q 19.53125 -1.171875 14.328125 2.25 
Q 9.125 5.671875 6.265625 11.796875 
Q 3.421875 17.921875 3.421875 25.875 
Q 3.421875 33.640625 6 39.96875 
Q 8.59375 46.296875 13.765625 49.65625 
Q 18.953125 53.03125 25.34375 53.03125 
Q 30.03125 53.03125 33.6875 51.046875 
Q 37.359375 49.078125 39.65625 45.90625 
L 39.65625 71.578125 
L 48.390625 71.578125 
L 48.390625 0 
z
M 12.453125 25.875 
Q 12.453125 15.921875 16.640625 10.984375 
Q 20.84375 6.0625 26.5625 6.0625 
Q 32.328125 6.0625 36.34375 10.765625 
Q 40.375 15.484375 40.375 25.140625 
Q 40.375 35.796875 36.265625 40.765625 
Q 32.171875 45.75 26.171875 45.75 
Q 20.3125 45.75 16.375 40.96875 
Q 12.453125 36.1875 12.453125 25.875 
z
" id="ArialMT-100"/>
      <path d="M 5.46875 16.546875 
L 13.921875 17.328125 
Q 14.984375 11.375 18.015625 8.6875 
Q 21.046875 6 25.78125 6 
Q 29.828125 6 32.875 7.859375 
Q 35.9375 9.71875 37.890625 12.8125 
Q 39.84375 15.921875 41.15625 21.1875 
Q 42.484375 26.46875 42.484375 31.9375 
Q 42.484375 32.515625 42.4375 33.6875 
Q 39.796875 29.5 35.234375 26.875 
Q 30.671875 24.265625 25.34375 24.265625 
Q 16.453125 24.265625 10.296875 30.703125 
Q 4.15625 37.15625 4.15625 47.703125 
Q 4.15625 58.59375 10.578125 65.234375 
Q 17 71.875 26.65625 71.875 
Q 33.640625 71.875 39.421875 68.109375 
Q 45.21875 64.359375 48.21875 57.390625 
Q 51.21875 50.4375 51.21875 37.25 
Q 51.21875 23.53125 48.234375 15.40625 
Q 45.265625 7.28125 39.375 3.03125 
Q 33.5 -1.21875 25.59375 -1.21875 
Q 17.1875 -1.21875 11.859375 3.4375 
Q 6.546875 8.109375 5.46875 16.546875 
z
M 41.453125 48.140625 
Q 41.453125 55.71875 37.421875 60.15625 
Q 33.40625 64.59375 27.734375 64.59375 
Q 21.875 64.59375 17.53125 59.8125 
Q 13.1875 55.03125 13.1875 47.40625 
Q 13.1875 40.578125 17.3125 36.296875 
Q 21.4375 32.03125 27.484375 32.03125 
Q 33.59375 32.03125 37.515625 36.296875 
Q 41.453125 40.578125 41.453125 48.140625 
z
" id="ArialMT-57"/>
     </defs>
     <use xlink:href="#ArialMT-71"/>
     <use x="77.783203" xlink:href="#ArialMT-97"/>
     <use x="133.398438" xlink:href="#ArialMT-109"/>
     <use x="216.699219" xlink:href="#ArialMT-101"/>
     <use x="272.314453" xlink:href="#ArialMT-32"/>
     <use x="300.097656" xlink:href="#ArialMT-112"/>
     <use x="355.712891" xlink:href="#ArialMT-114"/>
     <use x="389.013672" xlink:href="#ArialMT-111"/>
     <use x="444.628906" xlink:href="#ArialMT-103"/>
     <use x="500.244141" xlink:href="#ArialMT-114"/>
     <use x="533.544922" xlink:href="#ArialMT-101"/>
     <use x="589.160156" xlink:href="#ArialMT-115"/>
     <use x="639.160156" xlink:href="#ArialMT-115"/>
     <use x="689.160156" xlink:href="#ArialMT-32"/>
     <use x="716.943359" xlink:href="#ArialMT-97"/>
     <use x="772.558594" xlink:href="#ArialMT-118"/>
     <use x="822.558594" xlink:href="#ArialMT-101"/>
     <use x="878.173828" xlink:href="#ArialMT-114"/>
     <use x="911.474609" xlink:href="#ArialMT-97"/>
     <use x="967.089844" xlink:href="#ArialMT-103"/>
     <use x="1022.705078" xlink:href="#ArialMT-101"/>
     <use x="1078.320312" xlink:href="#ArialMT-100"/>
     <use x="1133.935547" xlink:href="#ArialMT-32"/>
     <use x="1161.71875" xlink:href="#ArialMT-111"/>
     <use x="1217.333984" xlink:href="#ArialMT-118"/>
     <use x="1267.333984" xlink:href="#ArialMT-101"/>
     <use x="1322.949219" xlink:href="#ArialMT-114"/>
     <use x="1356.25" xlink:href="#ArialMT-32"/>
     <use x="1384.033203" xlink:href="#ArialMT-57"/>
     <use x="1439.648438" xlink:href="#ArialMT-56"/>
     <use x="1495.263672" xlink:href="#ArialMT-32"/>
     <use x="1523.046875" xlink:href="#ArialMT-112"/>
     <use x="1578.662109" xlink:href="#ArialMT-108"/>
     <use x="1600.878906" xlink:href="#ArialMT-97"/>
     <use x="1656.494141" xlink:href="#ArialMT-121"/>
     <use x="1706.494141" xlink:href="#ArialMT-101"/>
     <use x="1762.109375" xlink:href="#ArialMT-114"/>
     <use x="1795.410156" xlink:href="#ArialMT-115"/>
    </g>
   </g>
  </g>
 </g>
 <defs>
  <clipPath id="pac512e7934">
   <rect height="252.708" width="773.418" x="69.846" y="40.416"/>
  </clipPath>
 </defs>
</svg>
