<?xml version="1.0" encoding="utf-8" standalone="no"?>
<!DOCTYPE svg PUBLIC "-//W3C//DTD SVG 1.1//EN"
  "http://www.w3.org/Graphics/SVG/1.1/DTD/svg11.dtd">
<!-- Created with matplotlib (https://matplotlib.org/) -->
<svg height="360pt" version="1.1" viewBox="0 0 864 360" width="864pt" xmlns="http://www.w3.org/2000/svg" xmlns:xlink="http://www.w3.org/1999/xlink">
 <metadata>
  <rdf:RDF xmlns:cc="http://creativecommons.org/ns#" xmlns:dc="http://purl.org/dc/elements/1.1/" xmlns:rdf="http://www.w3.org/1999/02/22-rdf-syntax-ns#">
   <cc:Work>
    <dc:type rdf:resource="http://purl.org/dc/dcmitype/StillImage"/>
    <dc:date>2021-09-03T12:54:17.353919</dc:date>
    <dc:format>image/svg+xml</dc:format>
    <dc:creator>
     <cc:Agent>
      <dc:title>Matplotlib v3.3.2, https://matplotlib.org/</dc:title>
     </cc:Agent>
    </dc:creator>
   </cc:Work>
  </rdf:RDF>
 </metadata>
 <defs>
  <style type="text/css">*{stroke-linecap:butt;stroke-linejoin:round;}</style>
 </defs>
 <g id="figure_1">
  <g id="patch_1">
   <path d="M 0 360 
L 864 360 
L 864 0 
L 0 0 
z
" style="fill:#ffffff;"/>
  </g>
  <g id="axes_1">
   <g id="patch_2">
    <path d="M 79.746 293.124 
L 421.632 293.124 
L 421.632 20.736 
L 79.746 20.736 
z
" style="fill:#ffffff;"/>
   </g>
   <g id="matplotlib.axis_1">
    <g id="xtick_1">
     <g id="line2d_1">
      <defs>
       <path d="M 0 0 
L 0 4.8 
" id="m697631f9be" style="stroke:#262626;"/>
      </defs>
      <g>
       <use style="fill:#262626;stroke:#262626;" x="95.286273" xlink:href="#m697631f9be" y="293.124"/>
      </g>
     </g>
     <g id="text_1">
      <!-- 0 -->
      <g style="fill:#262626;" transform="translate(90.392648 314.02175)scale(0.176 -0.176)">
       <defs>
        <path d="M 4.15625 35.296875 
Q 4.15625 48 6.765625 55.734375 
Q 9.375 63.484375 14.515625 67.671875 
Q 19.671875 71.875 27.484375 71.875 
Q 33.25 71.875 37.59375 69.546875 
Q 41.9375 67.234375 44.765625 62.859375 
Q 47.609375 58.5 49.21875 52.21875 
Q 50.828125 45.953125 50.828125 35.296875 
Q 50.828125 22.703125 48.234375 14.96875 
Q 45.65625 7.234375 40.5 3 
Q 35.359375 -1.21875 27.484375 -1.21875 
Q 17.140625 -1.21875 11.234375 6.203125 
Q 4.15625 15.140625 4.15625 35.296875 
z
M 13.1875 35.296875 
Q 13.1875 17.671875 17.3125 11.828125 
Q 21.4375 6 27.484375 6 
Q 33.546875 6 37.671875 11.859375 
Q 41.796875 17.71875 41.796875 35.296875 
Q 41.796875 52.984375 37.671875 58.78125 
Q 33.546875 64.59375 27.390625 64.59375 
Q 21.34375 64.59375 17.71875 59.46875 
Q 13.1875 52.9375 13.1875 35.296875 
z
" id="ArialMT-48"/>
       </defs>
       <use xlink:href="#ArialMT-48"/>
      </g>
     </g>
    </g>
    <g id="xtick_2">
     <g id="line2d_2">
      <g>
       <use style="fill:#262626;stroke:#262626;" x="193.954671" xlink:href="#m697631f9be" y="293.124"/>
      </g>
     </g>
     <g id="text_2">
      <!-- 20 -->
      <g style="fill:#262626;" transform="translate(184.167421 314.02175)scale(0.176 -0.176)">
       <defs>
        <path d="M 50.34375 8.453125 
L 50.34375 0 
L 3.03125 0 
Q 2.9375 3.171875 4.046875 6.109375 
Q 5.859375 10.9375 9.828125 15.625 
Q 13.8125 20.3125 21.34375 26.46875 
Q 33.015625 36.03125 37.109375 41.625 
Q 41.21875 47.21875 41.21875 52.203125 
Q 41.21875 57.421875 37.46875 61 
Q 33.734375 64.59375 27.734375 64.59375 
Q 21.390625 64.59375 17.578125 60.78125 
Q 13.765625 56.984375 13.71875 50.25 
L 4.6875 51.171875 
Q 5.609375 61.28125 11.65625 66.578125 
Q 17.71875 71.875 27.9375 71.875 
Q 38.234375 71.875 44.234375 66.15625 
Q 50.25 60.453125 50.25 52 
Q 50.25 47.703125 48.484375 43.546875 
Q 46.734375 39.40625 42.65625 34.8125 
Q 38.578125 30.21875 29.109375 22.21875 
Q 21.1875 15.578125 18.9375 13.203125 
Q 16.703125 10.84375 15.234375 8.453125 
z
" id="ArialMT-50"/>
       </defs>
       <use xlink:href="#ArialMT-50"/>
       <use x="55.615234" xlink:href="#ArialMT-48"/>
      </g>
     </g>
    </g>
    <g id="xtick_3">
     <g id="line2d_3">
      <g>
       <use style="fill:#262626;stroke:#262626;" x="292.623069" xlink:href="#m697631f9be" y="293.124"/>
      </g>
     </g>
     <g id="text_3">
      <!-- 40 -->
      <g style="fill:#262626;" transform="translate(282.835819 314.02175)scale(0.176 -0.176)">
       <defs>
        <path d="M 32.328125 0 
L 32.328125 17.140625 
L 1.265625 17.140625 
L 1.265625 25.203125 
L 33.9375 71.578125 
L 41.109375 71.578125 
L 41.109375 25.203125 
L 50.78125 25.203125 
L 50.78125 17.140625 
L 41.109375 17.140625 
L 41.109375 0 
z
M 32.328125 25.203125 
L 32.328125 57.46875 
L 9.90625 25.203125 
z
" id="ArialMT-52"/>
       </defs>
       <use xlink:href="#ArialMT-52"/>
       <use x="55.615234" xlink:href="#ArialMT-48"/>
      </g>
     </g>
    </g>
    <g id="xtick_4">
     <g id="line2d_4">
      <g>
       <use style="fill:#262626;stroke:#262626;" x="391.291468" xlink:href="#m697631f9be" y="293.124"/>
      </g>
     </g>
     <g id="text_4">
      <!-- 60 -->
      <g style="fill:#262626;" transform="translate(381.504218 314.02175)scale(0.176 -0.176)">
       <defs>
        <path d="M 49.75 54.046875 
L 41.015625 53.375 
Q 39.84375 58.546875 37.703125 60.890625 
Q 34.125 64.65625 28.90625 64.65625 
Q 24.703125 64.65625 21.53125 62.3125 
Q 17.390625 59.28125 14.984375 53.46875 
Q 12.59375 47.65625 12.5 36.921875 
Q 15.671875 41.75 20.265625 44.09375 
Q 24.859375 46.4375 29.890625 46.4375 
Q 38.671875 46.4375 44.84375 39.96875 
Q 51.03125 33.5 51.03125 23.25 
Q 51.03125 16.5 48.125 10.71875 
Q 45.21875 4.9375 40.140625 1.859375 
Q 35.0625 -1.21875 28.609375 -1.21875 
Q 17.625 -1.21875 10.6875 6.859375 
Q 3.765625 14.9375 3.765625 33.5 
Q 3.765625 54.25 11.421875 63.671875 
Q 18.109375 71.875 29.4375 71.875 
Q 37.890625 71.875 43.28125 67.140625 
Q 48.6875 62.40625 49.75 54.046875 
z
M 13.875 23.1875 
Q 13.875 18.65625 15.796875 14.5 
Q 17.71875 10.359375 21.1875 8.171875 
Q 24.65625 6 28.46875 6 
Q 34.03125 6 38.03125 10.484375 
Q 42.046875 14.984375 42.046875 22.703125 
Q 42.046875 30.125 38.078125 34.390625 
Q 34.125 38.671875 28.125 38.671875 
Q 22.171875 38.671875 18.015625 34.390625 
Q 13.875 30.125 13.875 23.1875 
z
" id="ArialMT-54"/>
       </defs>
       <use xlink:href="#ArialMT-54"/>
       <use x="55.615234" xlink:href="#ArialMT-48"/>
      </g>
     </g>
    </g>
    <g id="text_5">
     <!-- Empowerment -->
     <g style="fill:#262626;" transform="translate(188.8035 335.26275)scale(0.192 -0.192)">
      <defs>
       <path d="M 7.90625 0 
L 7.90625 71.578125 
L 59.671875 71.578125 
L 59.671875 63.140625 
L 17.390625 63.140625 
L 17.390625 41.21875 
L 56.984375 41.21875 
L 56.984375 32.8125 
L 17.390625 32.8125 
L 17.390625 8.453125 
L 61.328125 8.453125 
L 61.328125 0 
z
" id="ArialMT-69"/>
       <path d="M 6.59375 0 
L 6.59375 51.859375 
L 14.453125 51.859375 
L 14.453125 44.578125 
Q 16.890625 48.390625 20.9375 50.703125 
Q 25 53.03125 30.171875 53.03125 
Q 35.9375 53.03125 39.625 50.640625 
Q 43.3125 48.25 44.828125 43.953125 
Q 50.984375 53.03125 60.84375 53.03125 
Q 68.5625 53.03125 72.703125 48.75 
Q 76.859375 44.484375 76.859375 35.59375 
L 76.859375 0 
L 68.109375 0 
L 68.109375 32.671875 
Q 68.109375 37.9375 67.25 40.25 
Q 66.40625 42.578125 64.15625 43.984375 
Q 61.921875 45.40625 58.890625 45.40625 
Q 53.421875 45.40625 49.796875 41.765625 
Q 46.1875 38.140625 46.1875 30.125 
L 46.1875 0 
L 37.40625 0 
L 37.40625 33.6875 
Q 37.40625 39.546875 35.25 42.46875 
Q 33.109375 45.40625 28.21875 45.40625 
Q 24.515625 45.40625 21.359375 43.453125 
Q 18.21875 41.5 16.796875 37.734375 
Q 15.375 33.984375 15.375 26.90625 
L 15.375 0 
z
" id="ArialMT-109"/>
       <path d="M 6.59375 -19.875 
L 6.59375 51.859375 
L 14.59375 51.859375 
L 14.59375 45.125 
Q 17.4375 49.078125 21 51.046875 
Q 24.5625 53.03125 29.640625 53.03125 
Q 36.28125 53.03125 41.359375 49.609375 
Q 46.4375 46.1875 49.015625 39.953125 
Q 51.609375 33.734375 51.609375 26.3125 
Q 51.609375 18.359375 48.75 11.984375 
Q 45.90625 5.609375 40.453125 2.21875 
Q 35.015625 -1.171875 29 -1.171875 
Q 24.609375 -1.171875 21.109375 0.6875 
Q 17.625 2.546875 15.375 5.375 
L 15.375 -19.875 
z
M 14.546875 25.640625 
Q 14.546875 15.625 18.59375 10.84375 
Q 22.65625 6.0625 28.421875 6.0625 
Q 34.28125 6.0625 38.453125 11.015625 
Q 42.625 15.96875 42.625 26.375 
Q 42.625 36.28125 38.546875 41.203125 
Q 34.46875 46.140625 28.8125 46.140625 
Q 23.1875 46.140625 18.859375 40.890625 
Q 14.546875 35.640625 14.546875 25.640625 
z
" id="ArialMT-112"/>
       <path d="M 3.328125 25.921875 
Q 3.328125 40.328125 11.328125 47.265625 
Q 18.015625 53.03125 27.640625 53.03125 
Q 38.328125 53.03125 45.109375 46.015625 
Q 51.90625 39.015625 51.90625 26.65625 
Q 51.90625 16.65625 48.90625 10.90625 
Q 45.90625 5.171875 40.15625 2 
Q 34.421875 -1.171875 27.640625 -1.171875 
Q 16.75 -1.171875 10.03125 5.8125 
Q 3.328125 12.796875 3.328125 25.921875 
z
M 12.359375 25.921875 
Q 12.359375 15.96875 16.703125 11.015625 
Q 21.046875 6.0625 27.640625 6.0625 
Q 34.1875 6.0625 38.53125 11.03125 
Q 42.875 16.015625 42.875 26.21875 
Q 42.875 35.84375 38.5 40.796875 
Q 34.125 45.75 27.640625 45.75 
Q 21.046875 45.75 16.703125 40.8125 
Q 12.359375 35.890625 12.359375 25.921875 
z
" id="ArialMT-111"/>
       <path d="M 16.15625 0 
L 0.296875 51.859375 
L 9.375 51.859375 
L 17.625 21.921875 
L 20.703125 10.796875 
Q 20.90625 11.625 23.390625 21.484375 
L 31.640625 51.859375 
L 40.671875 51.859375 
L 48.4375 21.78125 
L 51.03125 11.859375 
L 54 21.875 
L 62.890625 51.859375 
L 71.4375 51.859375 
L 55.21875 0 
L 46.09375 0 
L 37.84375 31.0625 
L 35.84375 39.890625 
L 25.34375 0 
z
" id="ArialMT-119"/>
       <path d="M 42.09375 16.703125 
L 51.171875 15.578125 
Q 49.03125 7.625 43.21875 3.21875 
Q 37.40625 -1.171875 28.375 -1.171875 
Q 17 -1.171875 10.328125 5.828125 
Q 3.65625 12.84375 3.65625 25.484375 
Q 3.65625 38.578125 10.390625 45.796875 
Q 17.140625 53.03125 27.875 53.03125 
Q 38.28125 53.03125 44.875 45.953125 
Q 51.46875 38.875 51.46875 26.03125 
Q 51.46875 25.25 51.421875 23.6875 
L 12.75 23.6875 
Q 13.234375 15.140625 17.578125 10.59375 
Q 21.921875 6.0625 28.421875 6.0625 
Q 33.25 6.0625 36.671875 8.59375 
Q 40.09375 11.140625 42.09375 16.703125 
z
M 13.234375 30.90625 
L 42.1875 30.90625 
Q 41.609375 37.453125 38.875 40.71875 
Q 34.671875 45.796875 27.984375 45.796875 
Q 21.921875 45.796875 17.796875 41.75 
Q 13.671875 37.703125 13.234375 30.90625 
z
" id="ArialMT-101"/>
       <path d="M 6.5 0 
L 6.5 51.859375 
L 14.40625 51.859375 
L 14.40625 44 
Q 17.4375 49.515625 20 51.265625 
Q 22.5625 53.03125 25.640625 53.03125 
Q 30.078125 53.03125 34.671875 50.203125 
L 31.640625 42.046875 
Q 28.421875 43.953125 25.203125 43.953125 
Q 22.3125 43.953125 20.015625 42.21875 
Q 17.71875 40.484375 16.75 37.40625 
Q 15.28125 32.71875 15.28125 27.15625 
L 15.28125 0 
z
" id="ArialMT-114"/>
       <path d="M 6.59375 0 
L 6.59375 51.859375 
L 14.5 51.859375 
L 14.5 44.484375 
Q 20.21875 53.03125 31 53.03125 
Q 35.6875 53.03125 39.625 51.34375 
Q 43.5625 49.65625 45.515625 46.921875 
Q 47.46875 44.1875 48.25 40.4375 
Q 48.734375 37.984375 48.734375 31.890625 
L 48.734375 0 
L 39.9375 0 
L 39.9375 31.546875 
Q 39.9375 36.921875 38.90625 39.578125 
Q 37.890625 42.234375 35.28125 43.8125 
Q 32.671875 45.40625 29.15625 45.40625 
Q 23.53125 45.40625 19.453125 41.84375 
Q 15.375 38.28125 15.375 28.328125 
L 15.375 0 
z
" id="ArialMT-110"/>
       <path d="M 25.78125 7.859375 
L 27.046875 0.09375 
Q 23.34375 -0.6875 20.40625 -0.6875 
Q 15.625 -0.6875 12.984375 0.828125 
Q 10.359375 2.34375 9.28125 4.8125 
Q 8.203125 7.28125 8.203125 15.1875 
L 8.203125 45.015625 
L 1.765625 45.015625 
L 1.765625 51.859375 
L 8.203125 51.859375 
L 8.203125 64.703125 
L 16.9375 69.96875 
L 16.9375 51.859375 
L 25.78125 51.859375 
L 25.78125 45.015625 
L 16.9375 45.015625 
L 16.9375 14.703125 
Q 16.9375 10.9375 17.40625 9.859375 
Q 17.875 8.796875 18.921875 8.15625 
Q 19.96875 7.515625 21.921875 7.515625 
Q 23.390625 7.515625 25.78125 7.859375 
z
" id="ArialMT-116"/>
      </defs>
      <use xlink:href="#ArialMT-69"/>
      <use x="66.699219" xlink:href="#ArialMT-109"/>
      <use x="150" xlink:href="#ArialMT-112"/>
      <use x="205.615234" xlink:href="#ArialMT-111"/>
      <use x="261.230469" xlink:href="#ArialMT-119"/>
      <use x="333.447266" xlink:href="#ArialMT-101"/>
      <use x="389.0625" xlink:href="#ArialMT-114"/>
      <use x="422.363281" xlink:href="#ArialMT-109"/>
      <use x="505.664062" xlink:href="#ArialMT-101"/>
      <use x="561.279297" xlink:href="#ArialMT-110"/>
      <use x="616.894531" xlink:href="#ArialMT-116"/>
     </g>
    </g>
   </g>
   <g id="matplotlib.axis_2">
    <g id="ytick_1">
     <g id="line2d_5">
      <defs>
       <path d="M 0 0 
L -4.8 0 
" id="m0908aab2cb" style="stroke:#262626;"/>
      </defs>
      <g>
       <use style="fill:#262626;stroke:#262626;" x="79.746" xlink:href="#m0908aab2cb" y="293.124"/>
      </g>
     </g>
     <g id="text_6">
      <!-- 0 -->
      <g style="fill:#262626;" transform="translate(61.65875 299.422875)scale(0.176 -0.176)">
       <use xlink:href="#ArialMT-48"/>
      </g>
     </g>
    </g>
    <g id="ytick_2">
     <g id="line2d_6">
      <g>
       <use style="fill:#262626;stroke:#262626;" x="79.746" xlink:href="#m0908aab2cb" y="233.760809"/>
      </g>
     </g>
     <g id="text_7">
      <!-- 100 -->
      <g style="fill:#262626;" transform="translate(42.08425 240.059684)scale(0.176 -0.176)">
       <defs>
        <path d="M 37.25 0 
L 28.46875 0 
L 28.46875 56 
Q 25.296875 52.984375 20.140625 49.953125 
Q 14.984375 46.921875 10.890625 45.40625 
L 10.890625 53.90625 
Q 18.265625 57.375 23.78125 62.296875 
Q 29.296875 67.234375 31.59375 71.875 
L 37.25 71.875 
z
" id="ArialMT-49"/>
       </defs>
       <use xlink:href="#ArialMT-49"/>
       <use x="55.615234" xlink:href="#ArialMT-48"/>
       <use x="111.230469" xlink:href="#ArialMT-48"/>
      </g>
     </g>
    </g>
    <g id="ytick_3">
     <g id="line2d_7">
      <g>
       <use style="fill:#262626;stroke:#262626;" x="79.746" xlink:href="#m0908aab2cb" y="174.397619"/>
      </g>
     </g>
     <g id="text_8">
      <!-- 200 -->
      <g style="fill:#262626;" transform="translate(42.08425 180.696494)scale(0.176 -0.176)">
       <use xlink:href="#ArialMT-50"/>
       <use x="55.615234" xlink:href="#ArialMT-48"/>
       <use x="111.230469" xlink:href="#ArialMT-48"/>
      </g>
     </g>
    </g>
    <g id="ytick_4">
     <g id="line2d_8">
      <g>
       <use style="fill:#262626;stroke:#262626;" x="79.746" xlink:href="#m0908aab2cb" y="115.034428"/>
      </g>
     </g>
     <g id="text_9">
      <!-- 300 -->
      <g style="fill:#262626;" transform="translate(42.08425 121.333303)scale(0.176 -0.176)">
       <defs>
        <path d="M 4.203125 18.890625 
L 12.984375 20.0625 
Q 14.5 12.59375 18.140625 9.296875 
Q 21.78125 6 27 6 
Q 33.203125 6 37.46875 10.296875 
Q 41.75 14.59375 41.75 20.953125 
Q 41.75 27 37.796875 30.921875 
Q 33.84375 34.859375 27.734375 34.859375 
Q 25.25 34.859375 21.53125 33.890625 
L 22.515625 41.609375 
Q 23.390625 41.5 23.921875 41.5 
Q 29.546875 41.5 34.03125 44.421875 
Q 38.53125 47.359375 38.53125 53.46875 
Q 38.53125 58.296875 35.25 61.46875 
Q 31.984375 64.65625 26.8125 64.65625 
Q 21.6875 64.65625 18.265625 61.421875 
Q 14.84375 58.203125 13.875 51.765625 
L 5.078125 53.328125 
Q 6.6875 62.15625 12.390625 67.015625 
Q 18.109375 71.875 26.609375 71.875 
Q 32.46875 71.875 37.390625 69.359375 
Q 42.328125 66.84375 44.9375 62.5 
Q 47.5625 58.15625 47.5625 53.265625 
Q 47.5625 48.640625 45.0625 44.828125 
Q 42.578125 41.015625 37.703125 38.765625 
Q 44.046875 37.3125 47.5625 32.6875 
Q 51.078125 28.078125 51.078125 21.140625 
Q 51.078125 11.765625 44.234375 5.25 
Q 37.40625 -1.265625 26.953125 -1.265625 
Q 17.53125 -1.265625 11.296875 4.34375 
Q 5.078125 9.96875 4.203125 18.890625 
z
" id="ArialMT-51"/>
       </defs>
       <use xlink:href="#ArialMT-51"/>
       <use x="55.615234" xlink:href="#ArialMT-48"/>
       <use x="111.230469" xlink:href="#ArialMT-48"/>
      </g>
     </g>
    </g>
    <g id="ytick_5">
     <g id="line2d_9">
      <g>
       <use style="fill:#262626;stroke:#262626;" x="79.746" xlink:href="#m0908aab2cb" y="55.671238"/>
      </g>
     </g>
     <g id="text_10">
      <!-- 400 -->
      <g style="fill:#262626;" transform="translate(42.08425 61.970113)scale(0.176 -0.176)">
       <use xlink:href="#ArialMT-52"/>
       <use x="55.615234" xlink:href="#ArialMT-48"/>
       <use x="111.230469" xlink:href="#ArialMT-48"/>
      </g>
     </g>
    </g>
    <g id="text_11">
     <!-- Count -->
     <g style="fill:#262626;" transform="translate(34.26825 182.5455)rotate(-90)scale(0.192 -0.192)">
      <defs>
       <path d="M 58.796875 25.09375 
L 68.265625 22.703125 
Q 65.28125 11.03125 57.546875 4.90625 
Q 49.8125 -1.21875 38.625 -1.21875 
Q 27.046875 -1.21875 19.796875 3.484375 
Q 12.546875 8.203125 8.765625 17.140625 
Q 4.984375 26.078125 4.984375 36.328125 
Q 4.984375 47.515625 9.25 55.828125 
Q 13.53125 64.15625 21.40625 68.46875 
Q 29.296875 72.796875 38.765625 72.796875 
Q 49.515625 72.796875 56.828125 67.328125 
Q 64.15625 61.859375 67.046875 51.953125 
L 57.71875 49.75 
Q 55.21875 57.5625 50.484375 61.125 
Q 45.75 64.703125 38.578125 64.703125 
Q 30.328125 64.703125 24.78125 60.734375 
Q 19.234375 56.78125 16.984375 50.109375 
Q 14.75 43.453125 14.75 36.375 
Q 14.75 27.25 17.40625 20.4375 
Q 20.0625 13.625 25.671875 10.25 
Q 31.296875 6.890625 37.84375 6.890625 
Q 45.796875 6.890625 51.3125 11.46875 
Q 56.84375 16.0625 58.796875 25.09375 
z
" id="ArialMT-67"/>
       <path d="M 40.578125 0 
L 40.578125 7.625 
Q 34.515625 -1.171875 24.125 -1.171875 
Q 19.53125 -1.171875 15.546875 0.578125 
Q 11.578125 2.34375 9.640625 5 
Q 7.71875 7.671875 6.9375 11.53125 
Q 6.390625 14.109375 6.390625 19.734375 
L 6.390625 51.859375 
L 15.1875 51.859375 
L 15.1875 23.09375 
Q 15.1875 16.21875 15.71875 13.8125 
Q 16.546875 10.359375 19.234375 8.375 
Q 21.921875 6.390625 25.875 6.390625 
Q 29.828125 6.390625 33.296875 8.421875 
Q 36.765625 10.453125 38.203125 13.9375 
Q 39.65625 17.4375 39.65625 24.078125 
L 39.65625 51.859375 
L 48.4375 51.859375 
L 48.4375 0 
z
" id="ArialMT-117"/>
      </defs>
      <use xlink:href="#ArialMT-67"/>
      <use x="72.216797" xlink:href="#ArialMT-111"/>
      <use x="127.832031" xlink:href="#ArialMT-117"/>
      <use x="183.447266" xlink:href="#ArialMT-110"/>
      <use x="239.0625" xlink:href="#ArialMT-116"/>
     </g>
    </g>
   </g>
   <g id="patch_3">
    <path clip-path="url(#pdeac86a6e3)" d="M 95.286273 293.124 
L 110.826545 293.124 
L 110.826545 33.706857 
L 95.286273 33.706857 
z
" style="fill:#ffc640;fill-opacity:0.5;stroke:#ffffff;stroke-linejoin:miter;stroke-width:0.8;"/>
   </g>
   <g id="patch_4">
    <path clip-path="url(#pdeac86a6e3)" d="M 110.826545 293.124 
L 126.366818 293.124 
L 126.366818 266.410564 
L 110.826545 266.410564 
z
" style="fill:#ffc640;fill-opacity:0.5;stroke:#ffffff;stroke-linejoin:miter;stroke-width:0.8;"/>
   </g>
   <g id="patch_5">
    <path clip-path="url(#pdeac86a6e3)" d="M 126.366818 293.124 
L 141.907091 293.124 
L 141.907091 280.65773 
L 126.366818 280.65773 
z
" style="fill:#ffc640;fill-opacity:0.5;stroke:#ffffff;stroke-linejoin:miter;stroke-width:0.8;"/>
   </g>
   <g id="patch_6">
    <path clip-path="url(#pdeac86a6e3)" d="M 141.907091 293.124 
L 157.447364 293.124 
L 157.447364 286.000417 
L 141.907091 286.000417 
z
" style="fill:#ffc640;fill-opacity:0.5;stroke:#ffffff;stroke-linejoin:miter;stroke-width:0.8;"/>
   </g>
   <g id="patch_7">
    <path clip-path="url(#pdeac86a6e3)" d="M 157.447364 293.124 
L 172.987636 293.124 
L 172.987636 290.15584 
L 157.447364 290.15584 
z
" style="fill:#ffc640;fill-opacity:0.5;stroke:#ffffff;stroke-linejoin:miter;stroke-width:0.8;"/>
   </g>
   <g id="patch_8">
    <path clip-path="url(#pdeac86a6e3)" d="M 172.987636 293.124 
L 188.527909 293.124 
L 188.527909 291.343104 
L 172.987636 291.343104 
z
" style="fill:#ffc640;fill-opacity:0.5;stroke:#ffffff;stroke-linejoin:miter;stroke-width:0.8;"/>
   </g>
   <g id="patch_9">
    <path clip-path="url(#pdeac86a6e3)" d="M 188.527909 293.124 
L 204.068182 293.124 
L 204.068182 290.15584 
L 188.527909 290.15584 
z
" style="fill:#ffc640;fill-opacity:0.5;stroke:#ffffff;stroke-linejoin:miter;stroke-width:0.8;"/>
   </g>
   <g id="patch_10">
    <path clip-path="url(#pdeac86a6e3)" d="M 204.068182 293.124 
L 219.608455 293.124 
L 219.608455 289.562209 
L 204.068182 289.562209 
z
" style="fill:#ffc640;fill-opacity:0.5;stroke:#ffffff;stroke-linejoin:miter;stroke-width:0.8;"/>
   </g>
   <g id="patch_11">
    <path clip-path="url(#pdeac86a6e3)" d="M 219.608455 293.124 
L 235.148727 293.124 
L 235.148727 291.936736 
L 219.608455 291.936736 
z
" style="fill:#ffc640;fill-opacity:0.5;stroke:#ffffff;stroke-linejoin:miter;stroke-width:0.8;"/>
   </g>
   <g id="patch_12">
    <path clip-path="url(#pdeac86a6e3)" d="M 235.148727 293.124 
L 250.689 293.124 
L 250.689 292.530368 
L 235.148727 292.530368 
z
" style="fill:#ffc640;fill-opacity:0.5;stroke:#ffffff;stroke-linejoin:miter;stroke-width:0.8;"/>
   </g>
   <g id="patch_13">
    <path clip-path="url(#pdeac86a6e3)" d="M 250.689 293.124 
L 266.229273 293.124 
L 266.229273 291.936736 
L 250.689 291.936736 
z
" style="fill:#ffc640;fill-opacity:0.5;stroke:#ffffff;stroke-linejoin:miter;stroke-width:0.8;"/>
   </g>
   <g id="patch_14">
    <path clip-path="url(#pdeac86a6e3)" d="M 266.229273 293.124 
L 281.769545 293.124 
L 281.769545 293.124 
L 266.229273 293.124 
z
" style="fill:#ffc640;fill-opacity:0.5;stroke:#ffffff;stroke-linejoin:miter;stroke-width:0.8;"/>
   </g>
   <g id="patch_15">
    <path clip-path="url(#pdeac86a6e3)" d="M 281.769545 293.124 
L 297.309818 293.124 
L 297.309818 293.124 
L 281.769545 293.124 
z
" style="fill:#ffc640;fill-opacity:0.5;stroke:#ffffff;stroke-linejoin:miter;stroke-width:0.8;"/>
   </g>
   <g id="patch_16">
    <path clip-path="url(#pdeac86a6e3)" d="M 297.309818 293.124 
L 312.850091 293.124 
L 312.850091 293.124 
L 297.309818 293.124 
z
" style="fill:#ffc640;fill-opacity:0.5;stroke:#ffffff;stroke-linejoin:miter;stroke-width:0.8;"/>
   </g>
   <g id="patch_17">
    <path clip-path="url(#pdeac86a6e3)" d="M 312.850091 293.124 
L 328.390364 293.124 
L 328.390364 293.124 
L 312.850091 293.124 
z
" style="fill:#ffc640;fill-opacity:0.5;stroke:#ffffff;stroke-linejoin:miter;stroke-width:0.8;"/>
   </g>
   <g id="patch_18">
    <path clip-path="url(#pdeac86a6e3)" d="M 328.390364 293.124 
L 343.930636 293.124 
L 343.930636 293.124 
L 328.390364 293.124 
z
" style="fill:#ffc640;fill-opacity:0.5;stroke:#ffffff;stroke-linejoin:miter;stroke-width:0.8;"/>
   </g>
   <g id="patch_19">
    <path clip-path="url(#pdeac86a6e3)" d="M 343.930636 293.124 
L 359.470909 293.124 
L 359.470909 293.124 
L 343.930636 293.124 
z
" style="fill:#ffc640;fill-opacity:0.5;stroke:#ffffff;stroke-linejoin:miter;stroke-width:0.8;"/>
   </g>
   <g id="patch_20">
    <path clip-path="url(#pdeac86a6e3)" d="M 359.470909 293.124 
L 375.011182 293.124 
L 375.011182 293.124 
L 359.470909 293.124 
z
" style="fill:#ffc640;fill-opacity:0.5;stroke:#ffffff;stroke-linejoin:miter;stroke-width:0.8;"/>
   </g>
   <g id="patch_21">
    <path clip-path="url(#pdeac86a6e3)" d="M 375.011182 293.124 
L 390.551455 293.124 
L 390.551455 293.124 
L 375.011182 293.124 
z
" style="fill:#ffc640;fill-opacity:0.5;stroke:#ffffff;stroke-linejoin:miter;stroke-width:0.8;"/>
   </g>
   <g id="patch_22">
    <path clip-path="url(#pdeac86a6e3)" d="M 390.551455 293.124 
L 406.091727 293.124 
L 406.091727 292.530368 
L 390.551455 292.530368 
z
" style="fill:#ffc640;fill-opacity:0.5;stroke:#ffffff;stroke-linejoin:miter;stroke-width:0.8;"/>
   </g>
   <g id="LineCollection_1">
    <path clip-path="url(#pdeac86a6e3)" d="M 108.067485 293.124 
L 108.067485 188.423942 
" style="fill:none;stroke:#444444;stroke-dasharray:3.7,1.6;stroke-dashoffset:0;"/>
   </g>
   <g id="line2d_10">
    <path clip-path="url(#pdeac86a6e3)" d="M 95.286273 120.981871 
L 96.848109 114.992945 
L 98.409946 114.40166 
L 99.971782 118.969315 
L 101.533619 127.973089 
L 103.095455 140.349968 
L 106.219128 170.360826 
L 109.342801 200.28595 
L 110.904637 213.429986 
L 112.466474 224.934069 
L 114.02831 234.745675 
L 115.590147 242.95523 
L 117.151983 249.737672 
L 118.71382 255.305168 
L 120.275656 259.873469 
L 121.837492 263.640701 
L 123.399329 266.775862 
L 124.961165 269.414323 
L 126.523002 271.658337 
L 128.084838 273.581182 
L 129.646675 275.233791 
L 131.208511 276.652588 
L 132.770348 277.867027 
L 134.332184 278.905359 
L 137.455857 280.575814 
L 140.57953 281.912285 
L 146.826876 284.246614 
L 153.074222 286.327743 
L 157.759731 287.638391 
L 162.44524 288.697985 
L 167.13075 289.551253 
L 171.816259 290.211963 
L 174.939932 290.47929 
L 178.063605 290.558546 
L 182.749114 290.383062 
L 187.434624 290.180878 
L 190.558296 290.233299 
L 195.243806 290.620075 
L 199.929315 290.984826 
L 203.052988 290.986209 
L 207.738497 290.665643 
L 210.86217 290.470758 
L 213.985843 290.478631 
L 217.109516 290.724781 
L 224.918698 291.616663 
L 229.604208 291.800976 
L 242.098899 291.95665 
L 253.031755 292.188162 
L 262.402773 292.396306 
L 281.144811 293.091067 
L 298.325012 293.123982 
L 392.035199 293.030373 
L 406.091727 292.653532 
L 406.091727 292.653532 
" style="fill:none;stroke:#ffc640;stroke-linecap:round;stroke-width:2;"/>
   </g>
   <g id="patch_23">
    <path d="M 79.746 293.124 
L 79.746 20.736 
" style="fill:none;stroke:#9d9d9d;stroke-linecap:square;stroke-linejoin:miter;stroke-width:0.6;"/>
   </g>
   <g id="patch_24">
    <path d="M 421.632 293.124 
L 421.632 20.736 
" style="fill:none;stroke:#9d9d9d;stroke-linecap:square;stroke-linejoin:miter;stroke-width:0.6;"/>
   </g>
   <g id="patch_25">
    <path d="M 79.746 293.124 
L 421.632 293.124 
" style="fill:none;stroke:#9d9d9d;stroke-linecap:square;stroke-linejoin:miter;stroke-width:0.6;"/>
   </g>
   <g id="patch_26">
    <path d="M 79.746 20.736 
L 421.632 20.736 
" style="fill:none;stroke:#9d9d9d;stroke-linecap:square;stroke-linejoin:miter;stroke-width:0.6;"/>
   </g>
  </g>
  <g id="axes_2">
   <g id="patch_27">
    <path d="M 501.378 293.124 
L 843.264 293.124 
L 843.264 20.736 
L 501.378 20.736 
z
" style="fill:#ffffff;"/>
   </g>
   <g id="matplotlib.axis_3">
    <g id="xtick_5">
     <g id="line2d_11">
      <g>
       <use style="fill:#262626;stroke:#262626;" x="516.918273" xlink:href="#m697631f9be" y="293.124"/>
      </g>
     </g>
     <g id="text_12">
      <!-- 0 -->
      <g style="fill:#262626;" transform="translate(512.024648 314.02175)scale(0.176 -0.176)">
       <use xlink:href="#ArialMT-48"/>
      </g>
     </g>
    </g>
    <g id="xtick_6">
     <g id="line2d_12">
      <g>
       <use style="fill:#262626;stroke:#262626;" x="610.534373" xlink:href="#m697631f9be" y="293.124"/>
      </g>
     </g>
     <g id="text_13">
      <!-- 50 -->
      <g style="fill:#262626;" transform="translate(600.747123 314.02175)scale(0.176 -0.176)">
       <defs>
        <path d="M 4.15625 18.75 
L 13.375 19.53125 
Q 14.40625 12.796875 18.140625 9.390625 
Q 21.875 6 27.15625 6 
Q 33.5 6 37.890625 10.78125 
Q 42.28125 15.578125 42.28125 23.484375 
Q 42.28125 31 38.0625 35.34375 
Q 33.84375 39.703125 27 39.703125 
Q 22.75 39.703125 19.328125 37.765625 
Q 15.921875 35.84375 13.96875 32.765625 
L 5.71875 33.84375 
L 12.640625 70.609375 
L 48.25 70.609375 
L 48.25 62.203125 
L 19.671875 62.203125 
L 15.828125 42.96875 
Q 22.265625 47.46875 29.34375 47.46875 
Q 38.71875 47.46875 45.15625 40.96875 
Q 51.609375 34.46875 51.609375 24.265625 
Q 51.609375 14.546875 45.953125 7.46875 
Q 39.0625 -1.21875 27.15625 -1.21875 
Q 17.390625 -1.21875 11.203125 4.25 
Q 5.03125 9.71875 4.15625 18.75 
z
" id="ArialMT-53"/>
       </defs>
       <use xlink:href="#ArialMT-53"/>
       <use x="55.615234" xlink:href="#ArialMT-48"/>
      </g>
     </g>
    </g>
    <g id="xtick_7">
     <g id="line2d_13">
      <g>
       <use style="fill:#262626;stroke:#262626;" x="704.150474" xlink:href="#m697631f9be" y="293.124"/>
      </g>
     </g>
     <g id="text_14">
      <!-- 100 -->
      <g style="fill:#262626;" transform="translate(689.469599 314.02175)scale(0.176 -0.176)">
       <use xlink:href="#ArialMT-49"/>
       <use x="55.615234" xlink:href="#ArialMT-48"/>
       <use x="111.230469" xlink:href="#ArialMT-48"/>
      </g>
     </g>
    </g>
    <g id="xtick_8">
     <g id="line2d_14">
      <g>
       <use style="fill:#262626;stroke:#262626;" x="797.766575" xlink:href="#m697631f9be" y="293.124"/>
      </g>
     </g>
     <g id="text_15">
      <!-- 150 -->
      <g style="fill:#262626;" transform="translate(783.0857 314.02175)scale(0.176 -0.176)">
       <use xlink:href="#ArialMT-49"/>
       <use x="55.615234" xlink:href="#ArialMT-53"/>
       <use x="111.230469" xlink:href="#ArialMT-48"/>
      </g>
     </g>
    </g>
    <g id="text_16">
     <!-- Empowerment -->
     <g style="fill:#262626;" transform="translate(610.4355 335.26275)scale(0.192 -0.192)">
      <use xlink:href="#ArialMT-69"/>
      <use x="66.699219" xlink:href="#ArialMT-109"/>
      <use x="150" xlink:href="#ArialMT-112"/>
      <use x="205.615234" xlink:href="#ArialMT-111"/>
      <use x="261.230469" xlink:href="#ArialMT-119"/>
      <use x="333.447266" xlink:href="#ArialMT-101"/>
      <use x="389.0625" xlink:href="#ArialMT-114"/>
      <use x="422.363281" xlink:href="#ArialMT-109"/>
      <use x="505.664062" xlink:href="#ArialMT-101"/>
      <use x="561.279297" xlink:href="#ArialMT-110"/>
      <use x="616.894531" xlink:href="#ArialMT-116"/>
     </g>
    </g>
   </g>
   <g id="matplotlib.axis_4">
    <g id="ytick_6">
     <g id="line2d_15">
      <g>
       <use style="fill:#262626;stroke:#262626;" x="501.378" xlink:href="#m0908aab2cb" y="293.124"/>
      </g>
     </g>
     <g id="text_17">
      <!-- 0 -->
      <g style="fill:#262626;" transform="translate(483.29075 299.422875)scale(0.176 -0.176)">
       <use xlink:href="#ArialMT-48"/>
      </g>
     </g>
    </g>
    <g id="ytick_7">
     <g id="line2d_16">
      <g>
       <use style="fill:#262626;stroke:#262626;" x="501.378" xlink:href="#m0908aab2cb" y="245.957247"/>
      </g>
     </g>
     <g id="text_18">
      <!-- 50 -->
      <g style="fill:#262626;" transform="translate(473.5035 252.256122)scale(0.176 -0.176)">
       <use xlink:href="#ArialMT-53"/>
       <use x="55.615234" xlink:href="#ArialMT-48"/>
      </g>
     </g>
    </g>
    <g id="ytick_8">
     <g id="line2d_17">
      <g>
       <use style="fill:#262626;stroke:#262626;" x="501.378" xlink:href="#m0908aab2cb" y="198.790494"/>
      </g>
     </g>
     <g id="text_19">
      <!-- 100 -->
      <g style="fill:#262626;" transform="translate(463.71625 205.089369)scale(0.176 -0.176)">
       <use xlink:href="#ArialMT-49"/>
       <use x="55.615234" xlink:href="#ArialMT-48"/>
       <use x="111.230469" xlink:href="#ArialMT-48"/>
      </g>
     </g>
    </g>
    <g id="ytick_9">
     <g id="line2d_18">
      <g>
       <use style="fill:#262626;stroke:#262626;" x="501.378" xlink:href="#m0908aab2cb" y="151.62374"/>
      </g>
     </g>
     <g id="text_20">
      <!-- 150 -->
      <g style="fill:#262626;" transform="translate(463.71625 157.922615)scale(0.176 -0.176)">
       <use xlink:href="#ArialMT-49"/>
       <use x="55.615234" xlink:href="#ArialMT-53"/>
       <use x="111.230469" xlink:href="#ArialMT-48"/>
      </g>
     </g>
    </g>
    <g id="ytick_10">
     <g id="line2d_19">
      <g>
       <use style="fill:#262626;stroke:#262626;" x="501.378" xlink:href="#m0908aab2cb" y="104.456987"/>
      </g>
     </g>
     <g id="text_21">
      <!-- 200 -->
      <g style="fill:#262626;" transform="translate(463.71625 110.755862)scale(0.176 -0.176)">
       <use xlink:href="#ArialMT-50"/>
       <use x="55.615234" xlink:href="#ArialMT-48"/>
       <use x="111.230469" xlink:href="#ArialMT-48"/>
      </g>
     </g>
    </g>
    <g id="ytick_11">
     <g id="line2d_20">
      <g>
       <use style="fill:#262626;stroke:#262626;" x="501.378" xlink:href="#m0908aab2cb" y="57.290234"/>
      </g>
     </g>
     <g id="text_22">
      <!-- 250 -->
      <g style="fill:#262626;" transform="translate(463.71625 63.589109)scale(0.176 -0.176)">
       <use xlink:href="#ArialMT-50"/>
       <use x="55.615234" xlink:href="#ArialMT-53"/>
       <use x="111.230469" xlink:href="#ArialMT-48"/>
      </g>
     </g>
    </g>
    <g id="text_23">
     <!-- Count -->
     <g style="fill:#262626;" transform="translate(455.90025 182.5455)rotate(-90)scale(0.192 -0.192)">
      <use xlink:href="#ArialMT-67"/>
      <use x="72.216797" xlink:href="#ArialMT-111"/>
      <use x="127.832031" xlink:href="#ArialMT-117"/>
      <use x="183.447266" xlink:href="#ArialMT-110"/>
      <use x="239.0625" xlink:href="#ArialMT-116"/>
     </g>
    </g>
   </g>
   <g id="patch_28">
    <path clip-path="url(#pb1aa7ce35b)" d="M 516.918273 293.124 
L 532.458545 293.124 
L 532.458545 33.706857 
L 516.918273 33.706857 
z
" style="fill:#ffc640;fill-opacity:0.5;stroke:#ffffff;stroke-linejoin:miter;stroke-width:0.8;"/>
   </g>
   <g id="patch_29">
    <path clip-path="url(#pb1aa7ce35b)" d="M 532.458545 293.124 
L 547.998818 293.124 
L 547.998818 208.223844 
L 532.458545 208.223844 
z
" style="fill:#ffc640;fill-opacity:0.5;stroke:#ffffff;stroke-linejoin:miter;stroke-width:0.8;"/>
   </g>
   <g id="patch_30">
    <path clip-path="url(#pb1aa7ce35b)" d="M 547.998818 293.124 
L 563.539091 293.124 
L 563.539091 240.297236 
L 547.998818 240.297236 
z
" style="fill:#ffc640;fill-opacity:0.5;stroke:#ffffff;stroke-linejoin:miter;stroke-width:0.8;"/>
   </g>
   <g id="patch_31">
    <path clip-path="url(#pb1aa7ce35b)" d="M 563.539091 293.124 
L 579.079364 293.124 
L 579.079364 261.050608 
L 563.539091 261.050608 
z
" style="fill:#ffc640;fill-opacity:0.5;stroke:#ffffff;stroke-linejoin:miter;stroke-width:0.8;"/>
   </g>
   <g id="patch_32">
    <path clip-path="url(#pb1aa7ce35b)" d="M 579.079364 293.124 
L 594.619636 293.124 
L 594.619636 274.257299 
L 579.079364 274.257299 
z
" style="fill:#ffc640;fill-opacity:0.5;stroke:#ffffff;stroke-linejoin:miter;stroke-width:0.8;"/>
   </g>
   <g id="patch_33">
    <path clip-path="url(#pb1aa7ce35b)" d="M 594.619636 293.124 
L 610.159909 293.124 
L 610.159909 279.917309 
L 594.619636 279.917309 
z
" style="fill:#ffc640;fill-opacity:0.5;stroke:#ffffff;stroke-linejoin:miter;stroke-width:0.8;"/>
   </g>
   <g id="patch_34">
    <path clip-path="url(#pb1aa7ce35b)" d="M 610.159909 293.124 
L 625.700182 293.124 
L 625.700182 278.973974 
L 610.159909 278.973974 
z
" style="fill:#ffc640;fill-opacity:0.5;stroke:#ffffff;stroke-linejoin:miter;stroke-width:0.8;"/>
   </g>
   <g id="patch_35">
    <path clip-path="url(#pb1aa7ce35b)" d="M 625.700182 293.124 
L 641.240455 293.124 
L 641.240455 285.577319 
L 625.700182 285.577319 
z
" style="fill:#ffc640;fill-opacity:0.5;stroke:#ffffff;stroke-linejoin:miter;stroke-width:0.8;"/>
   </g>
   <g id="patch_36">
    <path clip-path="url(#pb1aa7ce35b)" d="M 641.240455 293.124 
L 656.780727 293.124 
L 656.780727 289.35066 
L 641.240455 289.35066 
z
" style="fill:#ffc640;fill-opacity:0.5;stroke:#ffffff;stroke-linejoin:miter;stroke-width:0.8;"/>
   </g>
   <g id="patch_37">
    <path clip-path="url(#pb1aa7ce35b)" d="M 656.780727 293.124 
L 672.321 293.124 
L 672.321 287.46399 
L 656.780727 287.46399 
z
" style="fill:#ffc640;fill-opacity:0.5;stroke:#ffffff;stroke-linejoin:miter;stroke-width:0.8;"/>
   </g>
   <g id="patch_38">
    <path clip-path="url(#pb1aa7ce35b)" d="M 672.321 293.124 
L 687.861273 293.124 
L 687.861273 290.293995 
L 672.321 290.293995 
z
" style="fill:#ffc640;fill-opacity:0.5;stroke:#ffffff;stroke-linejoin:miter;stroke-width:0.8;"/>
   </g>
   <g id="patch_39">
    <path clip-path="url(#pb1aa7ce35b)" d="M 687.861273 293.124 
L 703.401545 293.124 
L 703.401545 291.23733 
L 687.861273 291.23733 
z
" style="fill:#ffc640;fill-opacity:0.5;stroke:#ffffff;stroke-linejoin:miter;stroke-width:0.8;"/>
   </g>
   <g id="patch_40">
    <path clip-path="url(#pb1aa7ce35b)" d="M 703.401545 293.124 
L 718.941818 293.124 
L 718.941818 290.293995 
L 703.401545 290.293995 
z
" style="fill:#ffc640;fill-opacity:0.5;stroke:#ffffff;stroke-linejoin:miter;stroke-width:0.8;"/>
   </g>
   <g id="patch_41">
    <path clip-path="url(#pb1aa7ce35b)" d="M 718.941818 293.124 
L 734.482091 293.124 
L 734.482091 290.293995 
L 718.941818 290.293995 
z
" style="fill:#ffc640;fill-opacity:0.5;stroke:#ffffff;stroke-linejoin:miter;stroke-width:0.8;"/>
   </g>
   <g id="patch_42">
    <path clip-path="url(#pb1aa7ce35b)" d="M 734.482091 293.124 
L 750.022364 293.124 
L 750.022364 292.180665 
L 734.482091 292.180665 
z
" style="fill:#ffc640;fill-opacity:0.5;stroke:#ffffff;stroke-linejoin:miter;stroke-width:0.8;"/>
   </g>
   <g id="patch_43">
    <path clip-path="url(#pb1aa7ce35b)" d="M 750.022364 293.124 
L 765.562636 293.124 
L 765.562636 291.23733 
L 750.022364 291.23733 
z
" style="fill:#ffc640;fill-opacity:0.5;stroke:#ffffff;stroke-linejoin:miter;stroke-width:0.8;"/>
   </g>
   <g id="patch_44">
    <path clip-path="url(#pb1aa7ce35b)" d="M 765.562636 293.124 
L 781.102909 293.124 
L 781.102909 291.23733 
L 765.562636 291.23733 
z
" style="fill:#ffc640;fill-opacity:0.5;stroke:#ffffff;stroke-linejoin:miter;stroke-width:0.8;"/>
   </g>
   <g id="patch_45">
    <path clip-path="url(#pb1aa7ce35b)" d="M 781.102909 293.124 
L 796.643182 293.124 
L 796.643182 292.180665 
L 781.102909 292.180665 
z
" style="fill:#ffc640;fill-opacity:0.5;stroke:#ffffff;stroke-linejoin:miter;stroke-width:0.8;"/>
   </g>
   <g id="patch_46">
    <path clip-path="url(#pb1aa7ce35b)" d="M 796.643182 293.124 
L 812.183455 293.124 
L 812.183455 293.124 
L 796.643182 293.124 
z
" style="fill:#ffc640;fill-opacity:0.5;stroke:#ffffff;stroke-linejoin:miter;stroke-width:0.8;"/>
   </g>
   <g id="patch_47">
    <path clip-path="url(#pb1aa7ce35b)" d="M 812.183455 293.124 
L 827.723727 293.124 
L 827.723727 292.180665 
L 812.183455 292.180665 
z
" style="fill:#ffc640;fill-opacity:0.5;stroke:#ffffff;stroke-linejoin:miter;stroke-width:0.8;"/>
   </g>
   <g id="LineCollection_2">
    <path clip-path="url(#pb1aa7ce35b)" d="M 550.193596 293.124 
L 550.193596 221.363162 
" style="fill:none;stroke:#444444;stroke-dasharray:3.7,1.6;stroke-dashoffset:0;"/>
   </g>
   <g id="line2d_21">
    <path clip-path="url(#pb1aa7ce35b)" d="M 516.918273 176.811066 
L 518.480109 170.660026 
L 520.041946 165.507095 
L 521.603782 161.460073 
L 523.165619 158.588304 
L 524.727455 156.920295 
L 526.289291 156.443844 
L 527.851128 157.108582 
L 529.412964 158.830613 
L 530.974801 161.498815 
L 532.536637 164.98221 
L 534.098474 169.137803 
L 535.66031 173.818286 
L 538.783983 184.18432 
L 545.031329 205.654497 
L 548.155002 215.497111 
L 551.278675 224.345962 
L 554.402348 232.143444 
L 557.526021 238.933166 
L 560.649693 244.799871 
L 563.773366 249.835516 
L 566.897039 254.128769 
L 570.020712 257.768392 
L 573.144385 260.849691 
L 576.268058 263.476237 
L 579.391731 265.75411 
L 582.515404 267.780731 
L 587.200913 270.510085 
L 591.886423 272.979162 
L 596.571932 275.194796 
L 601.257441 277.097421 
L 604.381114 278.167559 
L 609.066624 279.484005 
L 613.752133 280.530276 
L 627.808661 283.393345 
L 644.988862 287.348096 
L 649.674371 287.994755 
L 654.359881 288.363902 
L 660.607227 288.583167 
L 668.416409 288.856582 
L 674.663755 289.293688 
L 687.158446 290.292064 
L 693.405792 290.484295 
L 699.653138 290.434526 
L 712.14783 290.245337 
L 718.395175 290.384166 
L 727.766194 290.869782 
L 738.699049 291.432703 
L 746.508232 291.589914 
L 754.317414 291.501645 
L 766.812106 291.304377 
L 774.621288 291.467821 
L 783.992307 291.936565 
L 798.048835 292.644308 
L 805.858017 292.821429 
L 815.229036 292.793801 
L 827.723727 292.680205 
L 827.723727 292.680205 
" style="fill:none;stroke:#ffc640;stroke-linecap:round;stroke-width:2;"/>
   </g>
   <g id="patch_48">
    <path d="M 501.378 293.124 
L 501.378 20.736 
" style="fill:none;stroke:#9d9d9d;stroke-linecap:square;stroke-linejoin:miter;stroke-width:0.6;"/>
   </g>
   <g id="patch_49">
    <path d="M 843.264 293.124 
L 843.264 20.736 
" style="fill:none;stroke:#9d9d9d;stroke-linecap:square;stroke-linejoin:miter;stroke-width:0.6;"/>
   </g>
   <g id="patch_50">
    <path d="M 501.378 293.124 
L 843.264 293.124 
" style="fill:none;stroke:#9d9d9d;stroke-linecap:square;stroke-linejoin:miter;stroke-width:0.6;"/>
   </g>
   <g id="patch_51">
    <path d="M 501.378 20.736 
L 843.264 20.736 
" style="fill:none;stroke:#9d9d9d;stroke-linecap:square;stroke-linejoin:miter;stroke-width:0.6;"/>
   </g>
  </g>
 </g>
 <defs>
  <clipPath id="pdeac86a6e3">
   <rect height="272.388" width="341.886" x="79.746" y="20.736"/>
  </clipPath>
  <clipPath id="pb1aa7ce35b">
   <rect height="272.388" width="341.886" x="501.378" y="20.736"/>
  </clipPath>
 </defs>
</svg>
