<?xml version="1.0" encoding="utf-8" standalone="no"?>
<!DOCTYPE svg PUBLIC "-//W3C//DTD SVG 1.1//EN"
  "http://www.w3.org/Graphics/SVG/1.1/DTD/svg11.dtd">
<!-- Created with matplotlib (https://matplotlib.org/) -->
<svg height="360pt" version="1.1" viewBox="0 0 864 360" width="864pt" xmlns="http://www.w3.org/2000/svg" xmlns:xlink="http://www.w3.org/1999/xlink">
 <metadata>
  <rdf:RDF xmlns:cc="http://creativecommons.org/ns#" xmlns:dc="http://purl.org/dc/elements/1.1/" xmlns:rdf="http://www.w3.org/1999/02/22-rdf-syntax-ns#">
   <cc:Work>
    <dc:type rdf:resource="http://purl.org/dc/dcmitype/StillImage"/>
    <dc:date>2021-09-03T12:54:16.571835</dc:date>
    <dc:format>image/svg+xml</dc:format>
    <dc:creator>
     <cc:Agent>
      <dc:title>Matplotlib v3.3.2, https://matplotlib.org/</dc:title>
     </cc:Agent>
    </dc:creator>
   </cc:Work>
  </rdf:RDF>
 </metadata>
 <defs>
  <style type="text/css">*{stroke-linecap:butt;stroke-linejoin:round;}</style>
 </defs>
 <g id="figure_1">
  <g id="patch_1">
   <path d="M 0 360 
L 864 360 
L 864 0 
L 0 0 
z
" style="fill:#ffffff;"/>
  </g>
  <g id="axes_1">
   <g id="patch_2">
    <path d="M 79.746 293.124 
L 411.822 293.124 
L 411.822 40.416 
L 79.746 40.416 
z
" style="fill:#ffffff;"/>
   </g>
   <g id="matplotlib.axis_1">
    <g id="xtick_1">
     <g id="line2d_1">
      <defs>
       <path d="M 0 0 
L 0 4.8 
" id="me230eb7cd1" style="stroke:#262626;"/>
      </defs>
      <g>
       <use style="fill:#262626;stroke:#262626;" x="79.746" xlink:href="#me230eb7cd1" y="293.124"/>
      </g>
     </g>
     <g id="text_1">
      <!-- 0.0 -->
      <g style="fill:#262626;" transform="translate(67.514 314.02175)scale(0.176 -0.176)">
       <defs>
        <path d="M 4.15625 35.296875 
Q 4.15625 48 6.765625 55.734375 
Q 9.375 63.484375 14.515625 67.671875 
Q 19.671875 71.875 27.484375 71.875 
Q 33.25 71.875 37.59375 69.546875 
Q 41.9375 67.234375 44.765625 62.859375 
Q 47.609375 58.5 49.21875 52.21875 
Q 50.828125 45.953125 50.828125 35.296875 
Q 50.828125 22.703125 48.234375 14.96875 
Q 45.65625 7.234375 40.5 3 
Q 35.359375 -1.21875 27.484375 -1.21875 
Q 17.140625 -1.21875 11.234375 6.203125 
Q 4.15625 15.140625 4.15625 35.296875 
z
M 13.1875 35.296875 
Q 13.1875 17.671875 17.3125 11.828125 
Q 21.4375 6 27.484375 6 
Q 33.546875 6 37.671875 11.859375 
Q 41.796875 17.71875 41.796875 35.296875 
Q 41.796875 52.984375 37.671875 58.78125 
Q 33.546875 64.59375 27.390625 64.59375 
Q 21.34375 64.59375 17.71875 59.46875 
Q 13.1875 52.9375 13.1875 35.296875 
z
" id="ArialMT-48"/>
        <path d="M 9.078125 0 
L 9.078125 10.015625 
L 19.09375 10.015625 
L 19.09375 0 
z
" id="ArialMT-46"/>
       </defs>
       <use xlink:href="#ArialMT-48"/>
       <use x="55.615234" xlink:href="#ArialMT-46"/>
       <use x="83.398438" xlink:href="#ArialMT-48"/>
      </g>
     </g>
    </g>
    <g id="xtick_2">
     <g id="line2d_2">
      <g>
       <use style="fill:#262626;stroke:#262626;" x="142.970686" xlink:href="#me230eb7cd1" y="293.124"/>
      </g>
     </g>
     <g id="text_2">
      <!-- 0.2 -->
      <g style="fill:#262626;" transform="translate(130.738686 314.02175)scale(0.176 -0.176)">
       <defs>
        <path d="M 50.34375 8.453125 
L 50.34375 0 
L 3.03125 0 
Q 2.9375 3.171875 4.046875 6.109375 
Q 5.859375 10.9375 9.828125 15.625 
Q 13.8125 20.3125 21.34375 26.46875 
Q 33.015625 36.03125 37.109375 41.625 
Q 41.21875 47.21875 41.21875 52.203125 
Q 41.21875 57.421875 37.46875 61 
Q 33.734375 64.59375 27.734375 64.59375 
Q 21.390625 64.59375 17.578125 60.78125 
Q 13.765625 56.984375 13.71875 50.25 
L 4.6875 51.171875 
Q 5.609375 61.28125 11.65625 66.578125 
Q 17.71875 71.875 27.9375 71.875 
Q 38.234375 71.875 44.234375 66.15625 
Q 50.25 60.453125 50.25 52 
Q 50.25 47.703125 48.484375 43.546875 
Q 46.734375 39.40625 42.65625 34.8125 
Q 38.578125 30.21875 29.109375 22.21875 
Q 21.1875 15.578125 18.9375 13.203125 
Q 16.703125 10.84375 15.234375 8.453125 
z
" id="ArialMT-50"/>
       </defs>
       <use xlink:href="#ArialMT-48"/>
       <use x="55.615234" xlink:href="#ArialMT-46"/>
       <use x="83.398438" xlink:href="#ArialMT-50"/>
      </g>
     </g>
    </g>
    <g id="xtick_3">
     <g id="line2d_3">
      <g>
       <use style="fill:#262626;stroke:#262626;" x="206.195372" xlink:href="#me230eb7cd1" y="293.124"/>
      </g>
     </g>
     <g id="text_3">
      <!-- 0.4 -->
      <g style="fill:#262626;" transform="translate(193.963372 314.02175)scale(0.176 -0.176)">
       <defs>
        <path d="M 32.328125 0 
L 32.328125 17.140625 
L 1.265625 17.140625 
L 1.265625 25.203125 
L 33.9375 71.578125 
L 41.109375 71.578125 
L 41.109375 25.203125 
L 50.78125 25.203125 
L 50.78125 17.140625 
L 41.109375 17.140625 
L 41.109375 0 
z
M 32.328125 25.203125 
L 32.328125 57.46875 
L 9.90625 25.203125 
z
" id="ArialMT-52"/>
       </defs>
       <use xlink:href="#ArialMT-48"/>
       <use x="55.615234" xlink:href="#ArialMT-46"/>
       <use x="83.398438" xlink:href="#ArialMT-52"/>
      </g>
     </g>
    </g>
    <g id="xtick_4">
     <g id="line2d_4">
      <g>
       <use style="fill:#262626;stroke:#262626;" x="269.420059" xlink:href="#me230eb7cd1" y="293.124"/>
      </g>
     </g>
     <g id="text_4">
      <!-- 0.6 -->
      <g style="fill:#262626;" transform="translate(257.188059 314.02175)scale(0.176 -0.176)">
       <defs>
        <path d="M 49.75 54.046875 
L 41.015625 53.375 
Q 39.84375 58.546875 37.703125 60.890625 
Q 34.125 64.65625 28.90625 64.65625 
Q 24.703125 64.65625 21.53125 62.3125 
Q 17.390625 59.28125 14.984375 53.46875 
Q 12.59375 47.65625 12.5 36.921875 
Q 15.671875 41.75 20.265625 44.09375 
Q 24.859375 46.4375 29.890625 46.4375 
Q 38.671875 46.4375 44.84375 39.96875 
Q 51.03125 33.5 51.03125 23.25 
Q 51.03125 16.5 48.125 10.71875 
Q 45.21875 4.9375 40.140625 1.859375 
Q 35.0625 -1.21875 28.609375 -1.21875 
Q 17.625 -1.21875 10.6875 6.859375 
Q 3.765625 14.9375 3.765625 33.5 
Q 3.765625 54.25 11.421875 63.671875 
Q 18.109375 71.875 29.4375 71.875 
Q 37.890625 71.875 43.28125 67.140625 
Q 48.6875 62.40625 49.75 54.046875 
z
M 13.875 23.1875 
Q 13.875 18.65625 15.796875 14.5 
Q 17.71875 10.359375 21.1875 8.171875 
Q 24.65625 6 28.46875 6 
Q 34.03125 6 38.03125 10.484375 
Q 42.046875 14.984375 42.046875 22.703125 
Q 42.046875 30.125 38.078125 34.390625 
Q 34.125 38.671875 28.125 38.671875 
Q 22.171875 38.671875 18.015625 34.390625 
Q 13.875 30.125 13.875 23.1875 
z
" id="ArialMT-54"/>
       </defs>
       <use xlink:href="#ArialMT-48"/>
       <use x="55.615234" xlink:href="#ArialMT-46"/>
       <use x="83.398438" xlink:href="#ArialMT-54"/>
      </g>
     </g>
    </g>
    <g id="xtick_5">
     <g id="line2d_5">
      <g>
       <use style="fill:#262626;stroke:#262626;" x="332.644745" xlink:href="#me230eb7cd1" y="293.124"/>
      </g>
     </g>
     <g id="text_5">
      <!-- 0.8 -->
      <g style="fill:#262626;" transform="translate(320.412745 314.02175)scale(0.176 -0.176)">
       <defs>
        <path d="M 17.671875 38.8125 
Q 12.203125 40.828125 9.5625 44.53125 
Q 6.9375 48.25 6.9375 53.421875 
Q 6.9375 61.234375 12.546875 66.546875 
Q 18.171875 71.875 27.484375 71.875 
Q 36.859375 71.875 42.578125 66.421875 
Q 48.296875 60.984375 48.296875 53.171875 
Q 48.296875 48.1875 45.671875 44.5 
Q 43.0625 40.828125 37.75 38.8125 
Q 44.34375 36.671875 47.78125 31.875 
Q 51.21875 27.09375 51.21875 20.453125 
Q 51.21875 11.28125 44.71875 5.03125 
Q 38.234375 -1.21875 27.640625 -1.21875 
Q 17.046875 -1.21875 10.546875 5.046875 
Q 4.046875 11.328125 4.046875 20.703125 
Q 4.046875 27.6875 7.59375 32.390625 
Q 11.140625 37.109375 17.671875 38.8125 
z
M 15.921875 53.71875 
Q 15.921875 48.640625 19.1875 45.40625 
Q 22.46875 42.1875 27.6875 42.1875 
Q 32.765625 42.1875 36.015625 45.375 
Q 39.265625 48.578125 39.265625 53.21875 
Q 39.265625 58.0625 35.90625 61.359375 
Q 32.5625 64.65625 27.59375 64.65625 
Q 22.5625 64.65625 19.234375 61.421875 
Q 15.921875 58.203125 15.921875 53.71875 
z
M 13.09375 20.65625 
Q 13.09375 16.890625 14.875 13.375 
Q 16.65625 9.859375 20.171875 7.921875 
Q 23.6875 6 27.734375 6 
Q 34.03125 6 38.125 10.046875 
Q 42.234375 14.109375 42.234375 20.359375 
Q 42.234375 26.703125 38.015625 30.859375 
Q 33.796875 35.015625 27.4375 35.015625 
Q 21.234375 35.015625 17.15625 30.90625 
Q 13.09375 26.8125 13.09375 20.65625 
z
" id="ArialMT-56"/>
       </defs>
       <use xlink:href="#ArialMT-48"/>
       <use x="55.615234" xlink:href="#ArialMT-46"/>
       <use x="83.398438" xlink:href="#ArialMT-56"/>
      </g>
     </g>
    </g>
    <g id="xtick_6">
     <g id="line2d_6">
      <g>
       <use style="fill:#262626;stroke:#262626;" x="395.869431" xlink:href="#me230eb7cd1" y="293.124"/>
      </g>
     </g>
     <g id="text_6">
      <!-- 1.0 -->
      <g style="fill:#262626;" transform="translate(383.637431 314.02175)scale(0.176 -0.176)">
       <defs>
        <path d="M 37.25 0 
L 28.46875 0 
L 28.46875 56 
Q 25.296875 52.984375 20.140625 49.953125 
Q 14.984375 46.921875 10.890625 45.40625 
L 10.890625 53.90625 
Q 18.265625 57.375 23.78125 62.296875 
Q 29.296875 67.234375 31.59375 71.875 
L 37.25 71.875 
z
" id="ArialMT-49"/>
       </defs>
       <use xlink:href="#ArialMT-49"/>
       <use x="55.615234" xlink:href="#ArialMT-46"/>
       <use x="83.398438" xlink:href="#ArialMT-48"/>
      </g>
     </g>
    </g>
    <g id="text_7">
     <!-- Similarity -->
     <g style="fill:#262626;" transform="translate(206.85 335.49675)scale(0.192 -0.192)">
      <defs>
       <path d="M 4.5 23 
L 13.421875 23.78125 
Q 14.0625 18.40625 16.375 14.96875 
Q 18.703125 11.53125 23.578125 9.40625 
Q 28.46875 7.28125 34.578125 7.28125 
Q 39.984375 7.28125 44.140625 8.890625 
Q 48.296875 10.5 50.3125 13.296875 
Q 52.34375 16.109375 52.34375 19.4375 
Q 52.34375 22.796875 50.390625 25.3125 
Q 48.4375 27.828125 43.953125 29.546875 
Q 41.0625 30.671875 31.203125 33.03125 
Q 21.34375 35.40625 17.390625 37.5 
Q 12.25 40.1875 9.734375 44.15625 
Q 7.234375 48.140625 7.234375 53.078125 
Q 7.234375 58.5 10.296875 63.203125 
Q 13.375 67.921875 19.28125 70.359375 
Q 25.203125 72.796875 32.421875 72.796875 
Q 40.375 72.796875 46.453125 70.234375 
Q 52.546875 67.671875 55.8125 62.6875 
Q 59.078125 57.71875 59.328125 51.421875 
L 50.25 50.734375 
Q 49.515625 57.515625 45.28125 60.984375 
Q 41.0625 64.453125 32.8125 64.453125 
Q 24.21875 64.453125 20.28125 61.296875 
Q 16.359375 58.15625 16.359375 53.71875 
Q 16.359375 49.859375 19.140625 47.359375 
Q 21.875 44.875 33.421875 42.265625 
Q 44.96875 39.65625 49.265625 37.703125 
Q 55.515625 34.8125 58.484375 30.390625 
Q 61.46875 25.984375 61.46875 20.21875 
Q 61.46875 14.5 58.203125 9.4375 
Q 54.9375 4.390625 48.796875 1.578125 
Q 42.671875 -1.21875 35.015625 -1.21875 
Q 25.296875 -1.21875 18.71875 1.609375 
Q 12.15625 4.4375 8.421875 10.125 
Q 4.6875 15.828125 4.5 23 
z
" id="ArialMT-83"/>
       <path d="M 6.640625 61.46875 
L 6.640625 71.578125 
L 15.4375 71.578125 
L 15.4375 61.46875 
z
M 6.640625 0 
L 6.640625 51.859375 
L 15.4375 51.859375 
L 15.4375 0 
z
" id="ArialMT-105"/>
       <path d="M 6.59375 0 
L 6.59375 51.859375 
L 14.453125 51.859375 
L 14.453125 44.578125 
Q 16.890625 48.390625 20.9375 50.703125 
Q 25 53.03125 30.171875 53.03125 
Q 35.9375 53.03125 39.625 50.640625 
Q 43.3125 48.25 44.828125 43.953125 
Q 50.984375 53.03125 60.84375 53.03125 
Q 68.5625 53.03125 72.703125 48.75 
Q 76.859375 44.484375 76.859375 35.59375 
L 76.859375 0 
L 68.109375 0 
L 68.109375 32.671875 
Q 68.109375 37.9375 67.25 40.25 
Q 66.40625 42.578125 64.15625 43.984375 
Q 61.921875 45.40625 58.890625 45.40625 
Q 53.421875 45.40625 49.796875 41.765625 
Q 46.1875 38.140625 46.1875 30.125 
L 46.1875 0 
L 37.40625 0 
L 37.40625 33.6875 
Q 37.40625 39.546875 35.25 42.46875 
Q 33.109375 45.40625 28.21875 45.40625 
Q 24.515625 45.40625 21.359375 43.453125 
Q 18.21875 41.5 16.796875 37.734375 
Q 15.375 33.984375 15.375 26.90625 
L 15.375 0 
z
" id="ArialMT-109"/>
       <path d="M 6.390625 0 
L 6.390625 71.578125 
L 15.1875 71.578125 
L 15.1875 0 
z
" id="ArialMT-108"/>
       <path d="M 40.4375 6.390625 
Q 35.546875 2.25 31.03125 0.53125 
Q 26.515625 -1.171875 21.34375 -1.171875 
Q 12.796875 -1.171875 8.203125 3 
Q 3.609375 7.171875 3.609375 13.671875 
Q 3.609375 17.484375 5.34375 20.625 
Q 7.078125 23.78125 9.890625 25.6875 
Q 12.703125 27.59375 16.21875 28.5625 
Q 18.796875 29.25 24.03125 29.890625 
Q 34.671875 31.15625 39.703125 32.90625 
Q 39.75 34.71875 39.75 35.203125 
Q 39.75 40.578125 37.25 42.78125 
Q 33.890625 45.75 27.25 45.75 
Q 21.046875 45.75 18.09375 43.578125 
Q 15.140625 41.40625 13.71875 35.890625 
L 5.125 37.0625 
Q 6.296875 42.578125 8.984375 45.96875 
Q 11.671875 49.359375 16.75 51.1875 
Q 21.828125 53.03125 28.515625 53.03125 
Q 35.15625 53.03125 39.296875 51.46875 
Q 43.453125 49.90625 45.40625 47.53125 
Q 47.359375 45.171875 48.140625 41.546875 
Q 48.578125 39.3125 48.578125 33.453125 
L 48.578125 21.734375 
Q 48.578125 9.46875 49.140625 6.21875 
Q 49.703125 2.984375 51.375 0 
L 42.1875 0 
Q 40.828125 2.734375 40.4375 6.390625 
z
M 39.703125 26.03125 
Q 34.90625 24.078125 25.34375 22.703125 
Q 19.921875 21.921875 17.671875 20.9375 
Q 15.4375 19.96875 14.203125 18.09375 
Q 12.984375 16.21875 12.984375 13.921875 
Q 12.984375 10.40625 15.640625 8.0625 
Q 18.3125 5.71875 23.4375 5.71875 
Q 28.515625 5.71875 32.46875 7.9375 
Q 36.421875 10.15625 38.28125 14.015625 
Q 39.703125 17 39.703125 22.796875 
z
" id="ArialMT-97"/>
       <path d="M 6.5 0 
L 6.5 51.859375 
L 14.40625 51.859375 
L 14.40625 44 
Q 17.4375 49.515625 20 51.265625 
Q 22.5625 53.03125 25.640625 53.03125 
Q 30.078125 53.03125 34.671875 50.203125 
L 31.640625 42.046875 
Q 28.421875 43.953125 25.203125 43.953125 
Q 22.3125 43.953125 20.015625 42.21875 
Q 17.71875 40.484375 16.75 37.40625 
Q 15.28125 32.71875 15.28125 27.15625 
L 15.28125 0 
z
" id="ArialMT-114"/>
       <path d="M 25.78125 7.859375 
L 27.046875 0.09375 
Q 23.34375 -0.6875 20.40625 -0.6875 
Q 15.625 -0.6875 12.984375 0.828125 
Q 10.359375 2.34375 9.28125 4.8125 
Q 8.203125 7.28125 8.203125 15.1875 
L 8.203125 45.015625 
L 1.765625 45.015625 
L 1.765625 51.859375 
L 8.203125 51.859375 
L 8.203125 64.703125 
L 16.9375 69.96875 
L 16.9375 51.859375 
L 25.78125 51.859375 
L 25.78125 45.015625 
L 16.9375 45.015625 
L 16.9375 14.703125 
Q 16.9375 10.9375 17.40625 9.859375 
Q 17.875 8.796875 18.921875 8.15625 
Q 19.96875 7.515625 21.921875 7.515625 
Q 23.390625 7.515625 25.78125 7.859375 
z
" id="ArialMT-116"/>
       <path d="M 6.203125 -19.96875 
L 5.21875 -11.71875 
Q 8.109375 -12.5 10.25 -12.5 
Q 13.1875 -12.5 14.9375 -11.515625 
Q 16.703125 -10.546875 17.828125 -8.796875 
Q 18.65625 -7.46875 20.515625 -2.25 
Q 20.75 -1.515625 21.296875 -0.09375 
L 1.609375 51.859375 
L 11.078125 51.859375 
L 21.875 21.828125 
Q 23.96875 16.109375 25.640625 9.8125 
Q 27.15625 15.875 29.25 21.625 
L 40.328125 51.859375 
L 49.125 51.859375 
L 29.390625 -0.875 
Q 26.21875 -9.421875 24.46875 -12.640625 
Q 22.125 -17 19.09375 -19.015625 
Q 16.0625 -21.046875 11.859375 -21.046875 
Q 9.328125 -21.046875 6.203125 -19.96875 
z
" id="ArialMT-121"/>
      </defs>
      <use xlink:href="#ArialMT-83"/>
      <use x="66.699219" xlink:href="#ArialMT-105"/>
      <use x="88.916016" xlink:href="#ArialMT-109"/>
      <use x="172.216797" xlink:href="#ArialMT-105"/>
      <use x="194.433594" xlink:href="#ArialMT-108"/>
      <use x="216.650391" xlink:href="#ArialMT-97"/>
      <use x="272.265625" xlink:href="#ArialMT-114"/>
      <use x="305.566406" xlink:href="#ArialMT-105"/>
      <use x="327.783203" xlink:href="#ArialMT-116"/>
      <use x="355.566406" xlink:href="#ArialMT-121"/>
     </g>
    </g>
   </g>
   <g id="matplotlib.axis_2">
    <g id="ytick_1">
     <g id="line2d_7">
      <defs>
       <path d="M 0 0 
L -4.8 0 
" id="m98bdbffe3b" style="stroke:#262626;"/>
      </defs>
      <g>
       <use style="fill:#262626;stroke:#262626;" x="79.746" xlink:href="#m98bdbffe3b" y="293.124"/>
      </g>
     </g>
     <g id="text_8">
      <!-- 0 -->
      <g style="fill:#262626;" transform="translate(61.65875 299.422875)scale(0.176 -0.176)">
       <use xlink:href="#ArialMT-48"/>
      </g>
     </g>
    </g>
    <g id="ytick_2">
     <g id="line2d_8">
      <g>
       <use style="fill:#262626;stroke:#262626;" x="79.746" xlink:href="#m98bdbffe3b" y="251.34027"/>
      </g>
     </g>
     <g id="text_9">
      <!-- 25 -->
      <g style="fill:#262626;" transform="translate(51.8715 257.639145)scale(0.176 -0.176)">
       <defs>
        <path d="M 4.15625 18.75 
L 13.375 19.53125 
Q 14.40625 12.796875 18.140625 9.390625 
Q 21.875 6 27.15625 6 
Q 33.5 6 37.890625 10.78125 
Q 42.28125 15.578125 42.28125 23.484375 
Q 42.28125 31 38.0625 35.34375 
Q 33.84375 39.703125 27 39.703125 
Q 22.75 39.703125 19.328125 37.765625 
Q 15.921875 35.84375 13.96875 32.765625 
L 5.71875 33.84375 
L 12.640625 70.609375 
L 48.25 70.609375 
L 48.25 62.203125 
L 19.671875 62.203125 
L 15.828125 42.96875 
Q 22.265625 47.46875 29.34375 47.46875 
Q 38.71875 47.46875 45.15625 40.96875 
Q 51.609375 34.46875 51.609375 24.265625 
Q 51.609375 14.546875 45.953125 7.46875 
Q 39.0625 -1.21875 27.15625 -1.21875 
Q 17.390625 -1.21875 11.203125 4.25 
Q 5.03125 9.71875 4.15625 18.75 
z
" id="ArialMT-53"/>
       </defs>
       <use xlink:href="#ArialMT-50"/>
       <use x="55.615234" xlink:href="#ArialMT-53"/>
      </g>
     </g>
    </g>
    <g id="ytick_3">
     <g id="line2d_9">
      <g>
       <use style="fill:#262626;stroke:#262626;" x="79.746" xlink:href="#m98bdbffe3b" y="209.55654"/>
      </g>
     </g>
     <g id="text_10">
      <!-- 50 -->
      <g style="fill:#262626;" transform="translate(51.8715 215.855415)scale(0.176 -0.176)">
       <use xlink:href="#ArialMT-53"/>
       <use x="55.615234" xlink:href="#ArialMT-48"/>
      </g>
     </g>
    </g>
    <g id="ytick_4">
     <g id="line2d_10">
      <g>
       <use style="fill:#262626;stroke:#262626;" x="79.746" xlink:href="#m98bdbffe3b" y="167.77281"/>
      </g>
     </g>
     <g id="text_11">
      <!-- 75 -->
      <g style="fill:#262626;" transform="translate(51.8715 174.071685)scale(0.176 -0.176)">
       <defs>
        <path d="M 4.734375 62.203125 
L 4.734375 70.65625 
L 51.078125 70.65625 
L 51.078125 63.8125 
Q 44.234375 56.546875 37.515625 44.484375 
Q 30.8125 32.421875 27.15625 19.671875 
Q 24.515625 10.6875 23.78125 0 
L 14.75 0 
Q 14.890625 8.453125 18.0625 20.40625 
Q 21.234375 32.375 27.171875 43.484375 
Q 33.109375 54.59375 39.796875 62.203125 
z
" id="ArialMT-55"/>
       </defs>
       <use xlink:href="#ArialMT-55"/>
       <use x="55.615234" xlink:href="#ArialMT-53"/>
      </g>
     </g>
    </g>
    <g id="ytick_5">
     <g id="line2d_11">
      <g>
       <use style="fill:#262626;stroke:#262626;" x="79.746" xlink:href="#m98bdbffe3b" y="125.989079"/>
      </g>
     </g>
     <g id="text_12">
      <!-- 100 -->
      <g style="fill:#262626;" transform="translate(42.08425 132.287954)scale(0.176 -0.176)">
       <use xlink:href="#ArialMT-49"/>
       <use x="55.615234" xlink:href="#ArialMT-48"/>
       <use x="111.230469" xlink:href="#ArialMT-48"/>
      </g>
     </g>
    </g>
    <g id="ytick_6">
     <g id="line2d_12">
      <g>
       <use style="fill:#262626;stroke:#262626;" x="79.746" xlink:href="#m98bdbffe3b" y="84.205349"/>
      </g>
     </g>
     <g id="text_13">
      <!-- 125 -->
      <g style="fill:#262626;" transform="translate(42.08425 90.504224)scale(0.176 -0.176)">
       <use xlink:href="#ArialMT-49"/>
       <use x="55.615234" xlink:href="#ArialMT-50"/>
       <use x="111.230469" xlink:href="#ArialMT-53"/>
      </g>
     </g>
    </g>
    <g id="ytick_7">
     <g id="line2d_13">
      <g>
       <use style="fill:#262626;stroke:#262626;" x="79.746" xlink:href="#m98bdbffe3b" y="42.421619"/>
      </g>
     </g>
     <g id="text_14">
      <!-- 150 -->
      <g style="fill:#262626;" transform="translate(42.08425 48.720494)scale(0.176 -0.176)">
       <use xlink:href="#ArialMT-49"/>
       <use x="55.615234" xlink:href="#ArialMT-53"/>
       <use x="111.230469" xlink:href="#ArialMT-48"/>
      </g>
     </g>
    </g>
    <g id="text_15">
     <!-- Count -->
     <g style="fill:#262626;" transform="translate(34.26825 192.3855)rotate(-90)scale(0.192 -0.192)">
      <defs>
       <path d="M 58.796875 25.09375 
L 68.265625 22.703125 
Q 65.28125 11.03125 57.546875 4.90625 
Q 49.8125 -1.21875 38.625 -1.21875 
Q 27.046875 -1.21875 19.796875 3.484375 
Q 12.546875 8.203125 8.765625 17.140625 
Q 4.984375 26.078125 4.984375 36.328125 
Q 4.984375 47.515625 9.25 55.828125 
Q 13.53125 64.15625 21.40625 68.46875 
Q 29.296875 72.796875 38.765625 72.796875 
Q 49.515625 72.796875 56.828125 67.328125 
Q 64.15625 61.859375 67.046875 51.953125 
L 57.71875 49.75 
Q 55.21875 57.5625 50.484375 61.125 
Q 45.75 64.703125 38.578125 64.703125 
Q 30.328125 64.703125 24.78125 60.734375 
Q 19.234375 56.78125 16.984375 50.109375 
Q 14.75 43.453125 14.75 36.375 
Q 14.75 27.25 17.40625 20.4375 
Q 20.0625 13.625 25.671875 10.25 
Q 31.296875 6.890625 37.84375 6.890625 
Q 45.796875 6.890625 51.3125 11.46875 
Q 56.84375 16.0625 58.796875 25.09375 
z
" id="ArialMT-67"/>
       <path d="M 3.328125 25.921875 
Q 3.328125 40.328125 11.328125 47.265625 
Q 18.015625 53.03125 27.640625 53.03125 
Q 38.328125 53.03125 45.109375 46.015625 
Q 51.90625 39.015625 51.90625 26.65625 
Q 51.90625 16.65625 48.90625 10.90625 
Q 45.90625 5.171875 40.15625 2 
Q 34.421875 -1.171875 27.640625 -1.171875 
Q 16.75 -1.171875 10.03125 5.8125 
Q 3.328125 12.796875 3.328125 25.921875 
z
M 12.359375 25.921875 
Q 12.359375 15.96875 16.703125 11.015625 
Q 21.046875 6.0625 27.640625 6.0625 
Q 34.1875 6.0625 38.53125 11.03125 
Q 42.875 16.015625 42.875 26.21875 
Q 42.875 35.84375 38.5 40.796875 
Q 34.125 45.75 27.640625 45.75 
Q 21.046875 45.75 16.703125 40.8125 
Q 12.359375 35.890625 12.359375 25.921875 
z
" id="ArialMT-111"/>
       <path d="M 40.578125 0 
L 40.578125 7.625 
Q 34.515625 -1.171875 24.125 -1.171875 
Q 19.53125 -1.171875 15.546875 0.578125 
Q 11.578125 2.34375 9.640625 5 
Q 7.71875 7.671875 6.9375 11.53125 
Q 6.390625 14.109375 6.390625 19.734375 
L 6.390625 51.859375 
L 15.1875 51.859375 
L 15.1875 23.09375 
Q 15.1875 16.21875 15.71875 13.8125 
Q 16.546875 10.359375 19.234375 8.375 
Q 21.921875 6.390625 25.875 6.390625 
Q 29.828125 6.390625 33.296875 8.421875 
Q 36.765625 10.453125 38.203125 13.9375 
Q 39.65625 17.4375 39.65625 24.078125 
L 39.65625 51.859375 
L 48.4375 51.859375 
L 48.4375 0 
z
" id="ArialMT-117"/>
       <path d="M 6.59375 0 
L 6.59375 51.859375 
L 14.5 51.859375 
L 14.5 44.484375 
Q 20.21875 53.03125 31 53.03125 
Q 35.6875 53.03125 39.625 51.34375 
Q 43.5625 49.65625 45.515625 46.921875 
Q 47.46875 44.1875 48.25 40.4375 
Q 48.734375 37.984375 48.734375 31.890625 
L 48.734375 0 
L 39.9375 0 
L 39.9375 31.546875 
Q 39.9375 36.921875 38.90625 39.578125 
Q 37.890625 42.234375 35.28125 43.8125 
Q 32.671875 45.40625 29.15625 45.40625 
Q 23.53125 45.40625 19.453125 41.84375 
Q 15.375 38.28125 15.375 28.328125 
L 15.375 0 
z
" id="ArialMT-110"/>
      </defs>
      <use xlink:href="#ArialMT-67"/>
      <use x="72.216797" xlink:href="#ArialMT-111"/>
      <use x="127.832031" xlink:href="#ArialMT-117"/>
      <use x="183.447266" xlink:href="#ArialMT-110"/>
      <use x="239.0625" xlink:href="#ArialMT-116"/>
     </g>
    </g>
   </g>
   <g id="patch_3">
    <path clip-path="url(#p5f34bdf54e)" d="M 76.818048 293.124 
L 92.770617 293.124 
L 92.770617 289.781302 
L 76.818048 289.781302 
z
" style="fill:#bf3409;fill-opacity:0.5;stroke:#ffffff;stroke-linejoin:miter;stroke-width:0.8;"/>
   </g>
   <g id="patch_4">
    <path clip-path="url(#p5f34bdf54e)" d="M 92.770617 293.124 
L 108.723187 293.124 
L 108.723187 283.095905 
L 92.770617 283.095905 
z
" style="fill:#bf3409;fill-opacity:0.5;stroke:#ffffff;stroke-linejoin:miter;stroke-width:0.8;"/>
   </g>
   <g id="patch_5">
    <path clip-path="url(#p5f34bdf54e)" d="M 108.723187 293.124 
L 124.675756 293.124 
L 124.675756 242.983524 
L 108.723187 242.983524 
z
" style="fill:#bf3409;fill-opacity:0.5;stroke:#ffffff;stroke-linejoin:miter;stroke-width:0.8;"/>
   </g>
   <g id="patch_6">
    <path clip-path="url(#p5f34bdf54e)" d="M 124.675756 293.124 
L 140.628325 293.124 
L 140.628325 199.528444 
L 124.675756 199.528444 
z
" style="fill:#bf3409;fill-opacity:0.5;stroke:#ffffff;stroke-linejoin:miter;stroke-width:0.8;"/>
   </g>
   <g id="patch_7">
    <path clip-path="url(#p5f34bdf54e)" d="M 140.628325 293.124 
L 156.580894 293.124 
L 156.580894 129.331778 
L 140.628325 129.331778 
z
" style="fill:#bf3409;fill-opacity:0.5;stroke:#ffffff;stroke-linejoin:miter;stroke-width:0.8;"/>
   </g>
   <g id="patch_8">
    <path clip-path="url(#p5f34bdf54e)" d="M 156.580894 293.124 
L 172.533463 293.124 
L 172.533463 52.449714 
L 156.580894 52.449714 
z
" style="fill:#bf3409;fill-opacity:0.5;stroke:#ffffff;stroke-linejoin:miter;stroke-width:0.8;"/>
   </g>
   <g id="patch_9">
    <path clip-path="url(#p5f34bdf54e)" d="M 172.533463 293.124 
L 188.486032 293.124 
L 188.486032 90.890746 
L 172.533463 90.890746 
z
" style="fill:#bf3409;fill-opacity:0.5;stroke:#ffffff;stroke-linejoin:miter;stroke-width:0.8;"/>
   </g>
   <g id="patch_10">
    <path clip-path="url(#p5f34bdf54e)" d="M 188.486032 293.124 
L 204.438601 293.124 
L 204.438601 142.702571 
L 188.486032 142.702571 
z
" style="fill:#bf3409;fill-opacity:0.5;stroke:#ffffff;stroke-linejoin:miter;stroke-width:0.8;"/>
   </g>
   <g id="patch_11">
    <path clip-path="url(#p5f34bdf54e)" d="M 204.438601 293.124 
L 220.39117 293.124 
L 220.39117 204.542492 
L 204.438601 204.542492 
z
" style="fill:#bf3409;fill-opacity:0.5;stroke:#ffffff;stroke-linejoin:miter;stroke-width:0.8;"/>
   </g>
   <g id="patch_12">
    <path clip-path="url(#p5f34bdf54e)" d="M 220.39117 293.124 
L 236.34374 293.124 
L 236.34374 229.61273 
L 220.39117 229.61273 
z
" style="fill:#bf3409;fill-opacity:0.5;stroke:#ffffff;stroke-linejoin:miter;stroke-width:0.8;"/>
   </g>
   <g id="patch_13">
    <path clip-path="url(#p5f34bdf54e)" d="M 236.34374 293.124 
L 252.296309 293.124 
L 252.296309 234.626778 
L 236.34374 234.626778 
z
" style="fill:#bf3409;fill-opacity:0.5;stroke:#ffffff;stroke-linejoin:miter;stroke-width:0.8;"/>
   </g>
   <g id="patch_14">
    <path clip-path="url(#p5f34bdf54e)" d="M 252.296309 293.124 
L 268.248878 293.124 
L 268.248878 237.969476 
L 252.296309 237.969476 
z
" style="fill:#bf3409;fill-opacity:0.5;stroke:#ffffff;stroke-linejoin:miter;stroke-width:0.8;"/>
   </g>
   <g id="patch_15">
    <path clip-path="url(#p5f34bdf54e)" d="M 268.248878 293.124 
L 284.201447 293.124 
L 284.201447 227.941381 
L 268.248878 227.941381 
z
" style="fill:#bf3409;fill-opacity:0.5;stroke:#ffffff;stroke-linejoin:miter;stroke-width:0.8;"/>
   </g>
   <g id="patch_16">
    <path clip-path="url(#p5f34bdf54e)" d="M 284.201447 293.124 
L 300.154016 293.124 
L 300.154016 239.640825 
L 284.201447 239.640825 
z
" style="fill:#bf3409;fill-opacity:0.5;stroke:#ffffff;stroke-linejoin:miter;stroke-width:0.8;"/>
   </g>
   <g id="patch_17">
    <path clip-path="url(#p5f34bdf54e)" d="M 300.154016 293.124 
L 316.106585 293.124 
L 316.106585 237.969476 
L 300.154016 237.969476 
z
" style="fill:#bf3409;fill-opacity:0.5;stroke:#ffffff;stroke-linejoin:miter;stroke-width:0.8;"/>
   </g>
   <g id="patch_18">
    <path clip-path="url(#p5f34bdf54e)" d="M 316.106585 293.124 
L 332.059154 293.124 
L 332.059154 278.081857 
L 316.106585 278.081857 
z
" style="fill:#bf3409;fill-opacity:0.5;stroke:#ffffff;stroke-linejoin:miter;stroke-width:0.8;"/>
   </g>
   <g id="patch_19">
    <path clip-path="url(#p5f34bdf54e)" d="M 332.059154 293.124 
L 348.011723 293.124 
L 348.011723 284.767254 
L 332.059154 284.767254 
z
" style="fill:#bf3409;fill-opacity:0.5;stroke:#ffffff;stroke-linejoin:miter;stroke-width:0.8;"/>
   </g>
   <g id="patch_20">
    <path clip-path="url(#p5f34bdf54e)" d="M 348.011723 293.124 
L 363.964293 293.124 
L 363.964293 291.452651 
L 348.011723 291.452651 
z
" style="fill:#bf3409;fill-opacity:0.5;stroke:#ffffff;stroke-linejoin:miter;stroke-width:0.8;"/>
   </g>
   <g id="patch_21">
    <path clip-path="url(#p5f34bdf54e)" d="M 363.964293 293.124 
L 379.916862 293.124 
L 379.916862 293.124 
L 363.964293 293.124 
z
" style="fill:#bf3409;fill-opacity:0.5;stroke:#ffffff;stroke-linejoin:miter;stroke-width:0.8;"/>
   </g>
   <g id="patch_22">
    <path clip-path="url(#p5f34bdf54e)" d="M 379.916862 293.124 
L 395.869431 293.124 
L 395.869431 229.61273 
L 379.916862 229.61273 
z
" style="fill:#bf3409;fill-opacity:0.5;stroke:#ffffff;stroke-linejoin:miter;stroke-width:0.8;"/>
   </g>
   <g id="LineCollection_1">
    <path clip-path="url(#p5f34bdf54e)" d="M 205.078902 293.124 
L 205.078902 173.324363 
" style="fill:none;stroke:#444444;stroke-dasharray:3.7,1.6;stroke-dashoffset:0;"/>
   </g>
   <g id="line2d_14">
    <path clip-path="url(#p5f34bdf54e)" d="M 76.818048 289.68034 
L 80.024595 288.544336 
L 83.231141 287.06971 
L 86.437688 285.183125 
L 89.644235 282.80988 
L 91.247508 281.418222 
L 92.850781 279.878721 
L 94.454054 278.1838 
L 97.660601 274.301408 
L 100.867148 269.727584 
L 104.073694 264.434303 
L 107.280241 258.408769 
L 110.486787 251.651696 
L 113.693334 244.174851 
L 116.89988 235.998891 
L 120.106427 227.152514 
L 123.312973 217.67367 
L 126.51952 207.61311 
L 131.32934 191.589426 
L 137.742433 169.062688 
L 144.155526 146.44426 
L 147.362073 135.675296 
L 150.568619 125.633602 
L 153.775166 116.611297 
L 155.378439 112.572047 
L 156.981712 108.892386 
L 158.584986 105.603127 
L 160.188259 102.731979 
L 161.791532 100.302952 
L 163.394805 98.335848 
L 164.998079 96.845831 
L 166.601352 95.843113 
L 168.204625 95.332749 
L 169.807899 95.314561 
L 171.411172 95.783187 
L 173.014445 96.728242 
L 174.617718 98.134597 
L 176.220992 99.982743 
L 177.824265 102.249238 
L 179.427538 104.907205 
L 181.030811 107.926863 
L 182.634085 111.276077 
L 185.840631 118.826122 
L 189.047178 127.273392 
L 193.856998 140.99554 
L 201.873364 164.427423 
L 205.079911 173.327126 
L 208.286457 181.693983 
L 211.493004 189.411934 
L 214.69955 196.409353 
L 217.906097 202.656308 
L 221.112643 208.158815 
L 224.31919 212.950899 
L 227.525737 217.085702 
L 230.732283 220.62688 
L 233.93883 223.64132 
L 237.145376 226.193676 
L 240.351923 228.342803 
L 243.558469 230.139833 
L 246.765016 231.627563 
L 249.971562 232.840879 
L 253.178109 233.808076 
L 256.384656 234.552983 
L 259.591202 235.097771 
L 262.797749 235.466154 
L 267.607569 235.752161 
L 275.623935 235.864641 
L 280.433755 236.024148 
L 283.640301 236.311312 
L 286.846848 236.82794 
L 290.053394 237.642792 
L 293.259941 238.814909 
L 296.466488 240.387594 
L 299.673034 242.382831 
L 302.879581 244.797087 
L 306.086127 247.599508 
L 309.292674 250.733194 
L 314.102494 255.879191 
L 325.325407 268.30943 
L 328.531953 271.581716 
L 331.7385 274.615936 
L 334.945046 277.376256 
L 338.151593 279.839519 
L 341.358139 281.990579 
L 344.564686 283.817224 
L 347.771232 285.305524 
L 350.977779 286.436394 
L 354.184326 287.184031 
L 357.390872 287.516927 
L 358.994145 287.517381 
L 360.597419 287.401967 
L 362.200692 287.167512 
L 363.803965 286.811833 
L 365.407239 286.33411 
L 368.613785 285.018367 
L 371.820332 283.255178 
L 375.026878 281.122805 
L 379.836698 277.520272 
L 384.646518 273.98068 
L 387.853064 272.003981 
L 389.456338 271.2064 
L 391.059611 270.56478 
L 392.662884 270.096389 
L 394.266158 269.814211 
L 395.869431 269.72644 
L 395.869431 269.72644 
" style="fill:none;stroke:#bf3409;stroke-linecap:round;stroke-width:2;"/>
   </g>
   <g id="patch_23">
    <path d="M 79.746 293.124 
L 79.746 40.416 
" style="fill:none;stroke:#9d9d9d;stroke-linecap:square;stroke-linejoin:miter;stroke-width:0.6;"/>
   </g>
   <g id="patch_24">
    <path d="M 411.822 293.124 
L 411.822 40.416 
" style="fill:none;stroke:#9d9d9d;stroke-linecap:square;stroke-linejoin:miter;stroke-width:0.6;"/>
   </g>
   <g id="patch_25">
    <path d="M 79.746 293.124 
L 411.822 293.124 
" style="fill:none;stroke:#9d9d9d;stroke-linecap:square;stroke-linejoin:miter;stroke-width:0.6;"/>
   </g>
   <g id="patch_26">
    <path d="M 79.746 40.416 
L 411.822 40.416 
" style="fill:none;stroke:#9d9d9d;stroke-linecap:square;stroke-linejoin:miter;stroke-width:0.6;"/>
   </g>
   <g id="text_16">
    <!-- Successful combinations -->
    <g style="fill:#262626;" transform="translate(140.1375 34.416)scale(0.192 -0.192)">
     <defs>
      <path d="M 40.4375 19 
L 49.078125 17.875 
Q 47.65625 8.9375 41.8125 3.875 
Q 35.984375 -1.171875 27.484375 -1.171875 
Q 16.84375 -1.171875 10.375 5.78125 
Q 3.90625 12.75 3.90625 25.734375 
Q 3.90625 34.125 6.6875 40.421875 
Q 9.46875 46.734375 15.15625 49.875 
Q 20.84375 53.03125 27.546875 53.03125 
Q 35.984375 53.03125 41.359375 48.75 
Q 46.734375 44.484375 48.25 36.625 
L 39.703125 35.296875 
Q 38.484375 40.53125 35.375 43.15625 
Q 32.28125 45.796875 27.875 45.796875 
Q 21.234375 45.796875 17.078125 41.03125 
Q 12.9375 36.28125 12.9375 25.984375 
Q 12.9375 15.53125 16.9375 10.796875 
Q 20.953125 6.0625 27.390625 6.0625 
Q 32.5625 6.0625 36.03125 9.234375 
Q 39.5 12.40625 40.4375 19 
z
" id="ArialMT-99"/>
      <path d="M 42.09375 16.703125 
L 51.171875 15.578125 
Q 49.03125 7.625 43.21875 3.21875 
Q 37.40625 -1.171875 28.375 -1.171875 
Q 17 -1.171875 10.328125 5.828125 
Q 3.65625 12.84375 3.65625 25.484375 
Q 3.65625 38.578125 10.390625 45.796875 
Q 17.140625 53.03125 27.875 53.03125 
Q 38.28125 53.03125 44.875 45.953125 
Q 51.46875 38.875 51.46875 26.03125 
Q 51.46875 25.25 51.421875 23.6875 
L 12.75 23.6875 
Q 13.234375 15.140625 17.578125 10.59375 
Q 21.921875 6.0625 28.421875 6.0625 
Q 33.25 6.0625 36.671875 8.59375 
Q 40.09375 11.140625 42.09375 16.703125 
z
M 13.234375 30.90625 
L 42.1875 30.90625 
Q 41.609375 37.453125 38.875 40.71875 
Q 34.671875 45.796875 27.984375 45.796875 
Q 21.921875 45.796875 17.796875 41.75 
Q 13.671875 37.703125 13.234375 30.90625 
z
" id="ArialMT-101"/>
      <path d="M 3.078125 15.484375 
L 11.765625 16.84375 
Q 12.5 11.625 15.84375 8.84375 
Q 19.1875 6.0625 25.203125 6.0625 
Q 31.25 6.0625 34.171875 8.515625 
Q 37.109375 10.984375 37.109375 14.3125 
Q 37.109375 17.28125 34.515625 19 
Q 32.71875 20.171875 25.53125 21.96875 
Q 15.875 24.421875 12.140625 26.203125 
Q 8.40625 27.984375 6.46875 31.125 
Q 4.546875 34.28125 4.546875 38.09375 
Q 4.546875 41.546875 6.125 44.5 
Q 7.71875 47.46875 10.453125 49.421875 
Q 12.5 50.921875 16.03125 51.96875 
Q 19.578125 53.03125 23.640625 53.03125 
Q 29.734375 53.03125 34.34375 51.265625 
Q 38.96875 49.515625 41.15625 46.5 
Q 43.359375 43.5 44.1875 38.484375 
L 35.59375 37.3125 
Q 35.015625 41.3125 32.203125 43.546875 
Q 29.390625 45.796875 24.265625 45.796875 
Q 18.21875 45.796875 15.625 43.796875 
Q 13.03125 41.796875 13.03125 39.109375 
Q 13.03125 37.40625 14.109375 36.03125 
Q 15.1875 34.625 17.484375 33.6875 
Q 18.796875 33.203125 25.25 31.453125 
Q 34.578125 28.953125 38.25 27.359375 
Q 41.9375 25.78125 44.03125 22.75 
Q 46.140625 19.734375 46.140625 15.234375 
Q 46.140625 10.84375 43.578125 6.953125 
Q 41.015625 3.078125 36.171875 0.953125 
Q 31.34375 -1.171875 25.25 -1.171875 
Q 15.140625 -1.171875 9.84375 3.03125 
Q 4.546875 7.234375 3.078125 15.484375 
z
" id="ArialMT-115"/>
      <path d="M 8.6875 0 
L 8.6875 45.015625 
L 0.921875 45.015625 
L 0.921875 51.859375 
L 8.6875 51.859375 
L 8.6875 57.375 
Q 8.6875 62.59375 9.625 65.140625 
Q 10.890625 68.5625 14.078125 70.671875 
Q 17.28125 72.796875 23.046875 72.796875 
Q 26.765625 72.796875 31.25 71.921875 
L 29.9375 64.265625 
Q 27.203125 64.75 24.75 64.75 
Q 20.75 64.75 19.09375 63.03125 
Q 17.4375 61.328125 17.4375 56.640625 
L 17.4375 51.859375 
L 27.546875 51.859375 
L 27.546875 45.015625 
L 17.4375 45.015625 
L 17.4375 0 
z
" id="ArialMT-102"/>
      <path id="ArialMT-32"/>
      <path d="M 14.703125 0 
L 6.546875 0 
L 6.546875 71.578125 
L 15.328125 71.578125 
L 15.328125 46.046875 
Q 20.90625 53.03125 29.546875 53.03125 
Q 34.328125 53.03125 38.59375 51.09375 
Q 42.875 49.171875 45.625 45.671875 
Q 48.390625 42.1875 49.953125 37.25 
Q 51.515625 32.328125 51.515625 26.703125 
Q 51.515625 13.375 44.921875 6.09375 
Q 38.328125 -1.171875 29.109375 -1.171875 
Q 19.921875 -1.171875 14.703125 6.5 
z
M 14.59375 26.3125 
Q 14.59375 17 17.140625 12.84375 
Q 21.296875 6.0625 28.375 6.0625 
Q 34.125 6.0625 38.328125 11.0625 
Q 42.53125 16.0625 42.53125 25.984375 
Q 42.53125 36.140625 38.5 40.96875 
Q 34.46875 45.796875 28.765625 45.796875 
Q 23 45.796875 18.796875 40.796875 
Q 14.59375 35.796875 14.59375 26.3125 
z
" id="ArialMT-98"/>
     </defs>
     <use xlink:href="#ArialMT-83"/>
     <use x="66.699219" xlink:href="#ArialMT-117"/>
     <use x="122.314453" xlink:href="#ArialMT-99"/>
     <use x="172.314453" xlink:href="#ArialMT-99"/>
     <use x="222.314453" xlink:href="#ArialMT-101"/>
     <use x="277.929688" xlink:href="#ArialMT-115"/>
     <use x="327.929688" xlink:href="#ArialMT-115"/>
     <use x="377.929688" xlink:href="#ArialMT-102"/>
     <use x="405.712891" xlink:href="#ArialMT-117"/>
     <use x="461.328125" xlink:href="#ArialMT-108"/>
     <use x="483.544922" xlink:href="#ArialMT-32"/>
     <use x="511.328125" xlink:href="#ArialMT-99"/>
     <use x="561.328125" xlink:href="#ArialMT-111"/>
     <use x="616.943359" xlink:href="#ArialMT-109"/>
     <use x="700.244141" xlink:href="#ArialMT-98"/>
     <use x="755.859375" xlink:href="#ArialMT-105"/>
     <use x="778.076172" xlink:href="#ArialMT-110"/>
     <use x="833.691406" xlink:href="#ArialMT-97"/>
     <use x="889.306641" xlink:href="#ArialMT-116"/>
     <use x="917.089844" xlink:href="#ArialMT-105"/>
     <use x="939.306641" xlink:href="#ArialMT-111"/>
     <use x="994.921875" xlink:href="#ArialMT-110"/>
     <use x="1050.537109" xlink:href="#ArialMT-115"/>
    </g>
   </g>
  </g>
  <g id="axes_2">
   <g id="patch_27">
    <path d="M 511.188 293.124 
L 843.264 293.124 
L 843.264 40.416 
L 511.188 40.416 
z
" style="fill:#ffffff;"/>
   </g>
   <g id="matplotlib.axis_3">
    <g id="xtick_7">
     <g id="line2d_15">
      <g>
       <use style="fill:#262626;stroke:#262626;" x="511.188" xlink:href="#me230eb7cd1" y="293.124"/>
      </g>
     </g>
     <g id="text_17">
      <!-- 0.0 -->
      <g style="fill:#262626;" transform="translate(498.956 314.02175)scale(0.176 -0.176)">
       <use xlink:href="#ArialMT-48"/>
       <use x="55.615234" xlink:href="#ArialMT-46"/>
       <use x="83.398438" xlink:href="#ArialMT-48"/>
      </g>
     </g>
    </g>
    <g id="xtick_8">
     <g id="line2d_16">
      <g>
       <use style="fill:#262626;stroke:#262626;" x="574.056481" xlink:href="#me230eb7cd1" y="293.124"/>
      </g>
     </g>
     <g id="text_18">
      <!-- 0.2 -->
      <g style="fill:#262626;" transform="translate(561.824481 314.02175)scale(0.176 -0.176)">
       <use xlink:href="#ArialMT-48"/>
       <use x="55.615234" xlink:href="#ArialMT-46"/>
       <use x="83.398438" xlink:href="#ArialMT-50"/>
      </g>
     </g>
    </g>
    <g id="xtick_9">
     <g id="line2d_17">
      <g>
       <use style="fill:#262626;stroke:#262626;" x="636.924963" xlink:href="#me230eb7cd1" y="293.124"/>
      </g>
     </g>
     <g id="text_19">
      <!-- 0.4 -->
      <g style="fill:#262626;" transform="translate(624.692963 314.02175)scale(0.176 -0.176)">
       <use xlink:href="#ArialMT-48"/>
       <use x="55.615234" xlink:href="#ArialMT-46"/>
       <use x="83.398438" xlink:href="#ArialMT-52"/>
      </g>
     </g>
    </g>
    <g id="xtick_10">
     <g id="line2d_18">
      <g>
       <use style="fill:#262626;stroke:#262626;" x="699.793444" xlink:href="#me230eb7cd1" y="293.124"/>
      </g>
     </g>
     <g id="text_20">
      <!-- 0.6 -->
      <g style="fill:#262626;" transform="translate(687.561444 314.02175)scale(0.176 -0.176)">
       <use xlink:href="#ArialMT-48"/>
       <use x="55.615234" xlink:href="#ArialMT-46"/>
       <use x="83.398438" xlink:href="#ArialMT-54"/>
      </g>
     </g>
    </g>
    <g id="xtick_11">
     <g id="line2d_19">
      <g>
       <use style="fill:#262626;stroke:#262626;" x="762.661925" xlink:href="#me230eb7cd1" y="293.124"/>
      </g>
     </g>
     <g id="text_21">
      <!-- 0.8 -->
      <g style="fill:#262626;" transform="translate(750.429925 314.02175)scale(0.176 -0.176)">
       <use xlink:href="#ArialMT-48"/>
       <use x="55.615234" xlink:href="#ArialMT-46"/>
       <use x="83.398438" xlink:href="#ArialMT-56"/>
      </g>
     </g>
    </g>
    <g id="xtick_12">
     <g id="line2d_20">
      <g>
       <use style="fill:#262626;stroke:#262626;" x="825.530407" xlink:href="#me230eb7cd1" y="293.124"/>
      </g>
     </g>
     <g id="text_22">
      <!-- 1.0 -->
      <g style="fill:#262626;" transform="translate(813.298407 314.02175)scale(0.176 -0.176)">
       <use xlink:href="#ArialMT-49"/>
       <use x="55.615234" xlink:href="#ArialMT-46"/>
       <use x="83.398438" xlink:href="#ArialMT-48"/>
      </g>
     </g>
    </g>
    <g id="text_23">
     <!-- Similarity -->
     <g style="fill:#262626;" transform="translate(638.292 335.49675)scale(0.192 -0.192)">
      <use xlink:href="#ArialMT-83"/>
      <use x="66.699219" xlink:href="#ArialMT-105"/>
      <use x="88.916016" xlink:href="#ArialMT-109"/>
      <use x="172.216797" xlink:href="#ArialMT-105"/>
      <use x="194.433594" xlink:href="#ArialMT-108"/>
      <use x="216.650391" xlink:href="#ArialMT-97"/>
      <use x="272.265625" xlink:href="#ArialMT-114"/>
      <use x="305.566406" xlink:href="#ArialMT-105"/>
      <use x="327.783203" xlink:href="#ArialMT-116"/>
      <use x="355.566406" xlink:href="#ArialMT-121"/>
     </g>
    </g>
   </g>
   <g id="matplotlib.axis_4">
    <g id="ytick_8">
     <g id="line2d_21">
      <g>
       <use style="fill:#262626;stroke:#262626;" x="511.188" xlink:href="#m98bdbffe3b" y="293.124"/>
      </g>
     </g>
     <g id="text_24">
      <!-- 0 -->
      <g style="fill:#262626;" transform="translate(493.10075 299.422875)scale(0.176 -0.176)">
       <use xlink:href="#ArialMT-48"/>
      </g>
     </g>
    </g>
    <g id="ytick_9">
     <g id="line2d_22">
      <g>
       <use style="fill:#262626;stroke:#262626;" x="511.188" xlink:href="#m98bdbffe3b" y="245.163508"/>
      </g>
     </g>
     <g id="text_25">
      <!-- 5000 -->
      <g style="fill:#262626;" transform="translate(463.739 251.462383)scale(0.176 -0.176)">
       <use xlink:href="#ArialMT-53"/>
       <use x="55.615234" xlink:href="#ArialMT-48"/>
       <use x="111.230469" xlink:href="#ArialMT-48"/>
       <use x="166.845703" xlink:href="#ArialMT-48"/>
      </g>
     </g>
    </g>
    <g id="ytick_10">
     <g id="line2d_23">
      <g>
       <use style="fill:#262626;stroke:#262626;" x="511.188" xlink:href="#m98bdbffe3b" y="197.203017"/>
      </g>
     </g>
     <g id="text_26">
      <!-- 10000 -->
      <g style="fill:#262626;" transform="translate(453.95175 203.501892)scale(0.176 -0.176)">
       <use xlink:href="#ArialMT-49"/>
       <use x="55.615234" xlink:href="#ArialMT-48"/>
       <use x="111.230469" xlink:href="#ArialMT-48"/>
       <use x="166.845703" xlink:href="#ArialMT-48"/>
       <use x="222.460938" xlink:href="#ArialMT-48"/>
      </g>
     </g>
    </g>
    <g id="ytick_11">
     <g id="line2d_24">
      <g>
       <use style="fill:#262626;stroke:#262626;" x="511.188" xlink:href="#m98bdbffe3b" y="149.242525"/>
      </g>
     </g>
     <g id="text_27">
      <!-- 15000 -->
      <g style="fill:#262626;" transform="translate(453.95175 155.5414)scale(0.176 -0.176)">
       <use xlink:href="#ArialMT-49"/>
       <use x="55.615234" xlink:href="#ArialMT-53"/>
       <use x="111.230469" xlink:href="#ArialMT-48"/>
       <use x="166.845703" xlink:href="#ArialMT-48"/>
       <use x="222.460938" xlink:href="#ArialMT-48"/>
      </g>
     </g>
    </g>
    <g id="ytick_12">
     <g id="line2d_25">
      <g>
       <use style="fill:#262626;stroke:#262626;" x="511.188" xlink:href="#m98bdbffe3b" y="101.282034"/>
      </g>
     </g>
     <g id="text_28">
      <!-- 20000 -->
      <g style="fill:#262626;" transform="translate(453.95175 107.580909)scale(0.176 -0.176)">
       <use xlink:href="#ArialMT-50"/>
       <use x="55.615234" xlink:href="#ArialMT-48"/>
       <use x="111.230469" xlink:href="#ArialMT-48"/>
       <use x="166.845703" xlink:href="#ArialMT-48"/>
       <use x="222.460938" xlink:href="#ArialMT-48"/>
      </g>
     </g>
    </g>
    <g id="ytick_13">
     <g id="line2d_26">
      <g>
       <use style="fill:#262626;stroke:#262626;" x="511.188" xlink:href="#m98bdbffe3b" y="53.321542"/>
      </g>
     </g>
     <g id="text_29">
      <!-- 25000 -->
      <g style="fill:#262626;" transform="translate(453.95175 59.620417)scale(0.176 -0.176)">
       <use xlink:href="#ArialMT-50"/>
       <use x="55.615234" xlink:href="#ArialMT-53"/>
       <use x="111.230469" xlink:href="#ArialMT-48"/>
       <use x="166.845703" xlink:href="#ArialMT-48"/>
       <use x="222.460938" xlink:href="#ArialMT-48"/>
      </g>
     </g>
    </g>
    <g id="text_30">
     <!-- Count -->
     <g style="fill:#262626;" transform="translate(446.13575 192.3855)rotate(-90)scale(0.192 -0.192)">
      <use xlink:href="#ArialMT-67"/>
      <use x="72.216797" xlink:href="#ArialMT-111"/>
      <use x="127.832031" xlink:href="#ArialMT-117"/>
      <use x="183.447266" xlink:href="#ArialMT-110"/>
      <use x="239.0625" xlink:href="#ArialMT-116"/>
     </g>
    </g>
   </g>
   <g id="patch_28">
    <path clip-path="url(#p0fb5cd7b7f)" d="M 470.858539 293.124 
L 488.592132 293.124 
L 488.592132 293.085632 
L 470.858539 293.085632 
z
" style="fill:#bf3409;fill-opacity:0.5;stroke:#ffffff;stroke-linejoin:miter;stroke-width:0.8;"/>
   </g>
   <g id="patch_29">
    <path clip-path="url(#p0fb5cd7b7f)" d="M 488.592132 293.124 
L 506.325725 293.124 
L 506.325725 292.318264 
L 488.592132 292.318264 
z
" style="fill:#bf3409;fill-opacity:0.5;stroke:#ffffff;stroke-linejoin:miter;stroke-width:0.8;"/>
   </g>
   <g id="patch_30">
    <path clip-path="url(#p0fb5cd7b7f)" d="M 506.325725 293.124 
L 524.059319 293.124 
L 524.059319 286.486268 
L 506.325725 286.486268 
z
" style="fill:#bf3409;fill-opacity:0.5;stroke:#ffffff;stroke-linejoin:miter;stroke-width:0.8;"/>
   </g>
   <g id="patch_31">
    <path clip-path="url(#p0fb5cd7b7f)" d="M 524.059319 293.124 
L 541.792912 293.124 
L 541.792912 266.371638 
L 524.059319 266.371638 
z
" style="fill:#bf3409;fill-opacity:0.5;stroke:#ffffff;stroke-linejoin:miter;stroke-width:0.8;"/>
   </g>
   <g id="patch_32">
    <path clip-path="url(#p0fb5cd7b7f)" d="M 541.792912 293.124 
L 559.526506 293.124 
L 559.526506 216.41599 
L 541.792912 216.41599 
z
" style="fill:#bf3409;fill-opacity:0.5;stroke:#ffffff;stroke-linejoin:miter;stroke-width:0.8;"/>
   </g>
   <g id="patch_33">
    <path clip-path="url(#p0fb5cd7b7f)" d="M 559.526506 293.124 
L 577.260099 293.124 
L 577.260099 132.686564 
L 559.526506 132.686564 
z
" style="fill:#bf3409;fill-opacity:0.5;stroke:#ffffff;stroke-linejoin:miter;stroke-width:0.8;"/>
   </g>
   <g id="patch_34">
    <path clip-path="url(#p0fb5cd7b7f)" d="M 577.260099 293.124 
L 594.993692 293.124 
L 594.993692 59.354972 
L 577.260099 59.354972 
z
" style="fill:#bf3409;fill-opacity:0.5;stroke:#ffffff;stroke-linejoin:miter;stroke-width:0.8;"/>
   </g>
   <g id="patch_35">
    <path clip-path="url(#p0fb5cd7b7f)" d="M 594.993692 293.124 
L 612.727286 293.124 
L 612.727286 67.268453 
L 594.993692 67.268453 
z
" style="fill:#bf3409;fill-opacity:0.5;stroke:#ffffff;stroke-linejoin:miter;stroke-width:0.8;"/>
   </g>
   <g id="patch_36">
    <path clip-path="url(#p0fb5cd7b7f)" d="M 612.727286 293.124 
L 630.460879 293.124 
L 630.460879 139.094085 
L 612.727286 139.094085 
z
" style="fill:#bf3409;fill-opacity:0.5;stroke:#ffffff;stroke-linejoin:miter;stroke-width:0.8;"/>
   </g>
   <g id="patch_37">
    <path clip-path="url(#p0fb5cd7b7f)" d="M 630.460879 293.124 
L 648.194473 293.124 
L 648.194473 206.123668 
L 630.460879 206.123668 
z
" style="fill:#bf3409;fill-opacity:0.5;stroke:#ffffff;stroke-linejoin:miter;stroke-width:0.8;"/>
   </g>
   <g id="patch_38">
    <path clip-path="url(#p0fb5cd7b7f)" d="M 648.194473 293.124 
L 665.928066 293.124 
L 665.928066 223.197603 
L 648.194473 223.197603 
z
" style="fill:#bf3409;fill-opacity:0.5;stroke:#ffffff;stroke-linejoin:miter;stroke-width:0.8;"/>
   </g>
   <g id="patch_39">
    <path clip-path="url(#p0fb5cd7b7f)" d="M 665.928066 293.124 
L 683.661659 293.124 
L 683.661659 218.602988 
L 665.928066 218.602988 
z
" style="fill:#bf3409;fill-opacity:0.5;stroke:#ffffff;stroke-linejoin:miter;stroke-width:0.8;"/>
   </g>
   <g id="patch_40">
    <path clip-path="url(#p0fb5cd7b7f)" d="M 683.661659 293.124 
L 701.395253 293.124 
L 701.395253 205.816721 
L 683.661659 205.816721 
z
" style="fill:#bf3409;fill-opacity:0.5;stroke:#ffffff;stroke-linejoin:miter;stroke-width:0.8;"/>
   </g>
   <g id="patch_41">
    <path clip-path="url(#p0fb5cd7b7f)" d="M 701.395253 293.124 
L 719.128846 293.124 
L 719.128846 206.967773 
L 701.395253 206.967773 
z
" style="fill:#bf3409;fill-opacity:0.5;stroke:#ffffff;stroke-linejoin:miter;stroke-width:0.8;"/>
   </g>
   <g id="patch_42">
    <path clip-path="url(#p0fb5cd7b7f)" d="M 719.128846 293.124 
L 736.86244 293.124 
L 736.86244 232.914399 
L 719.128846 232.914399 
z
" style="fill:#bf3409;fill-opacity:0.5;stroke:#ffffff;stroke-linejoin:miter;stroke-width:0.8;"/>
   </g>
   <g id="patch_43">
    <path clip-path="url(#p0fb5cd7b7f)" d="M 736.86244 293.124 
L 754.596033 293.124 
L 754.596033 264.760165 
L 736.86244 264.760165 
z
" style="fill:#bf3409;fill-opacity:0.5;stroke:#ffffff;stroke-linejoin:miter;stroke-width:0.8;"/>
   </g>
   <g id="patch_44">
    <path clip-path="url(#p0fb5cd7b7f)" d="M 754.596033 293.124 
L 772.329626 293.124 
L 772.329626 285.152966 
L 754.596033 285.152966 
z
" style="fill:#bf3409;fill-opacity:0.5;stroke:#ffffff;stroke-linejoin:miter;stroke-width:0.8;"/>
   </g>
   <g id="patch_45">
    <path clip-path="url(#p0fb5cd7b7f)" d="M 772.329626 293.124 
L 790.06322 293.124 
L 790.06322 291.685185 
L 772.329626 291.685185 
z
" style="fill:#bf3409;fill-opacity:0.5;stroke:#ffffff;stroke-linejoin:miter;stroke-width:0.8;"/>
   </g>
   <g id="patch_46">
    <path clip-path="url(#p0fb5cd7b7f)" d="M 790.06322 293.124 
L 807.796813 293.124 
L 807.796813 293.028079 
L 790.06322 293.028079 
z
" style="fill:#bf3409;fill-opacity:0.5;stroke:#ffffff;stroke-linejoin:miter;stroke-width:0.8;"/>
   </g>
   <g id="patch_47">
    <path clip-path="url(#p0fb5cd7b7f)" d="M 807.796813 293.124 
L 825.530407 293.124 
L 825.530407 288.308767 
L 807.796813 288.308767 
z
" style="fill:#bf3409;fill-opacity:0.5;stroke:#ffffff;stroke-linejoin:miter;stroke-width:0.8;"/>
   </g>
   <g id="LineCollection_2">
    <path clip-path="url(#p0fb5cd7b7f)" d="M 624.952098 293.124 
L 624.952098 154.871939 
" style="fill:none;stroke:#444444;stroke-dasharray:3.7,1.6;stroke-dashoffset:0;"/>
   </g>
   <g id="line2d_27">
    <path clip-path="url(#p0fb5cd7b7f)" d="M 470.858539 293.110649 
L 485.116704 293.027135 
L 492.245787 292.775424 
L 495.810328 292.500798 
L 499.37487 292.013902 
L 502.939411 291.226967 
L 506.503952 290.129545 
L 510.068494 288.770691 
L 513.633035 287.171233 
L 517.197577 285.308699 
L 518.979847 284.247125 
L 520.762118 283.047812 
L 522.544389 281.642444 
L 524.326659 279.949174 
L 526.10893 277.894775 
L 527.891201 275.437448 
L 529.673471 272.578218 
L 531.455742 269.355991 
L 535.020284 262.062243 
L 538.584825 253.928979 
L 542.149366 244.864411 
L 543.931637 239.820062 
L 545.713908 234.340604 
L 547.496178 228.386523 
L 549.278449 221.94937 
L 552.84299 207.715212 
L 556.407532 192.041091 
L 561.754344 167.068298 
L 565.318885 149.377342 
L 568.883427 130.388075 
L 574.230239 101.536244 
L 576.012509 92.775983 
L 577.79478 84.783055 
L 579.577051 77.66341 
L 581.359322 71.46885 
L 583.141592 66.21203 
L 584.923863 61.870975 
L 586.706134 58.39312 
L 588.488404 55.716184 
L 590.270675 53.806402 
L 592.052946 52.690146 
L 593.835216 52.449714 
L 595.617487 53.176768 
L 597.399758 54.909075 
L 599.182029 57.591199 
L 600.964299 61.086029 
L 602.74657 65.231738 
L 604.528841 69.910082 
L 606.311111 75.08574 
L 608.093382 80.796301 
L 609.875653 87.103984 
L 611.657923 94.04019 
L 613.440194 101.57024 
L 617.004735 117.929154 
L 622.351548 143.171362 
L 625.916089 159.12238 
L 629.48063 174.047646 
L 631.262901 180.989202 
L 633.045172 187.452034 
L 634.827442 193.348703 
L 636.609713 198.640926 
L 638.391984 203.344577 
L 640.174254 207.504202 
L 641.956525 211.156288 
L 643.738796 214.306802 
L 645.521067 216.935631 
L 647.303337 219.021087 
L 649.085608 220.567219 
L 650.867879 221.619744 
L 652.650149 222.266136 
L 654.43242 222.622582 
L 657.996961 222.941057 
L 663.343773 223.308896 
L 665.126044 223.271291 
L 666.908315 222.999072 
L 668.690586 222.422315 
L 670.472856 221.526483 
L 672.255127 220.352226 
L 675.819668 217.4524 
L 682.948751 211.167298 
L 684.731022 209.903658 
L 686.513292 208.875408 
L 690.077834 207.326644 
L 697.206917 204.507001 
L 698.989187 203.986685 
L 700.771458 203.667221 
L 702.553729 203.585357 
L 704.335999 203.773605 
L 706.11827 204.272733 
L 707.900541 205.126001 
L 709.682812 206.35969 
L 711.465082 207.966439 
L 713.247353 209.904607 
L 715.029624 212.113777 
L 718.594165 217.128322 
L 722.158706 222.741219 
L 725.723248 228.825875 
L 731.07006 238.497654 
L 741.763684 258.22729 
L 745.328225 264.14403 
L 748.892767 269.498136 
L 752.457308 274.219942 
L 756.02185 278.330316 
L 759.586391 281.909037 
L 763.150932 284.945021 
L 764.933203 286.22157 
L 766.715474 287.319124 
L 768.497744 288.239242 
L 770.280015 288.998639 
L 773.844556 290.147379 
L 777.409098 290.982579 
L 782.75591 291.918317 
L 788.102722 292.571451 
L 793.449534 292.917374 
L 800.578617 293.037188 
L 809.48997 293.025871 
L 811.272241 292.938672 
L 813.054512 292.729513 
L 814.836782 292.311379 
L 816.619053 291.596878 
L 818.401324 290.551893 
L 821.965865 287.956127 
L 823.748136 286.970155 
L 825.530407 286.60132 
L 825.530407 286.60132 
" style="fill:none;stroke:#bf3409;stroke-linecap:round;stroke-width:2;"/>
   </g>
   <g id="patch_48">
    <path d="M 511.188 293.124 
L 511.188 40.416 
" style="fill:none;stroke:#9d9d9d;stroke-linecap:square;stroke-linejoin:miter;stroke-width:0.6;"/>
   </g>
   <g id="patch_49">
    <path d="M 843.264 293.124 
L 843.264 40.416 
" style="fill:none;stroke:#9d9d9d;stroke-linecap:square;stroke-linejoin:miter;stroke-width:0.6;"/>
   </g>
   <g id="patch_50">
    <path d="M 511.188 293.124 
L 843.264 293.124 
" style="fill:none;stroke:#9d9d9d;stroke-linecap:square;stroke-linejoin:miter;stroke-width:0.6;"/>
   </g>
   <g id="patch_51">
    <path d="M 511.188 40.416 
L 843.264 40.416 
" style="fill:none;stroke:#9d9d9d;stroke-linecap:square;stroke-linejoin:miter;stroke-width:0.6;"/>
   </g>
   <g id="text_31">
    <!-- Unsuccessful combinations -->
    <g style="fill:#262626;" transform="translate(560.9115 34.416)scale(0.192 -0.192)">
     <defs>
      <path d="M 54.6875 71.578125 
L 64.15625 71.578125 
L 64.15625 30.21875 
Q 64.15625 19.4375 61.71875 13.078125 
Q 59.28125 6.734375 52.90625 2.75 
Q 46.53125 -1.21875 36.1875 -1.21875 
Q 26.125 -1.21875 19.71875 2.25 
Q 13.328125 5.71875 10.59375 12.28125 
Q 7.859375 18.84375 7.859375 30.21875 
L 7.859375 71.578125 
L 17.328125 71.578125 
L 17.328125 30.28125 
Q 17.328125 20.953125 19.0625 16.53125 
Q 20.796875 12.109375 25.015625 9.71875 
Q 29.25 7.328125 35.359375 7.328125 
Q 45.796875 7.328125 50.234375 12.0625 
Q 54.6875 16.796875 54.6875 30.28125 
z
" id="ArialMT-85"/>
     </defs>
     <use xlink:href="#ArialMT-85"/>
     <use x="72.216797" xlink:href="#ArialMT-110"/>
     <use x="127.832031" xlink:href="#ArialMT-115"/>
     <use x="177.832031" xlink:href="#ArialMT-117"/>
     <use x="233.447266" xlink:href="#ArialMT-99"/>
     <use x="283.447266" xlink:href="#ArialMT-99"/>
     <use x="333.447266" xlink:href="#ArialMT-101"/>
     <use x="389.0625" xlink:href="#ArialMT-115"/>
     <use x="439.0625" xlink:href="#ArialMT-115"/>
     <use x="489.0625" xlink:href="#ArialMT-102"/>
     <use x="516.845703" xlink:href="#ArialMT-117"/>
     <use x="572.460938" xlink:href="#ArialMT-108"/>
     <use x="594.677734" xlink:href="#ArialMT-32"/>
     <use x="622.460938" xlink:href="#ArialMT-99"/>
     <use x="672.460938" xlink:href="#ArialMT-111"/>
     <use x="728.076172" xlink:href="#ArialMT-109"/>
     <use x="811.376953" xlink:href="#ArialMT-98"/>
     <use x="866.992188" xlink:href="#ArialMT-105"/>
     <use x="889.208984" xlink:href="#ArialMT-110"/>
     <use x="944.824219" xlink:href="#ArialMT-97"/>
     <use x="1000.439453" xlink:href="#ArialMT-116"/>
     <use x="1028.222656" xlink:href="#ArialMT-105"/>
     <use x="1050.439453" xlink:href="#ArialMT-111"/>
     <use x="1106.054688" xlink:href="#ArialMT-110"/>
     <use x="1161.669922" xlink:href="#ArialMT-115"/>
    </g>
   </g>
  </g>
 </g>
 <defs>
  <clipPath id="p5f34bdf54e">
   <rect height="252.708" width="332.076" x="79.746" y="40.416"/>
  </clipPath>
  <clipPath id="p0fb5cd7b7f">
   <rect height="252.708" width="332.076" x="511.188" y="40.416"/>
  </clipPath>
 </defs>
</svg>
